<?xml version="1.0" encoding="UTF-8"?>
<!DOCTYPE svg  PUBLIC '-//W3C//DTD SVG 1.1//EN'  'http://www.w3.org/Graphics/SVG/1.1/DTD/svg11.dtd'>
<svg enable-background="new 0 416.106 1920 1022.894" version="1.1" viewBox="0 416.106 1920 1022.894" xml:space="preserve" xmlns="http://www.w3.org/2000/svg">
	<path d="m1919.6 1286.4l-1.31-0.24c-1.28 0.43-2.48 0.93-3.68 1.42 0.3-0.52 0.89-1.56 1.19-2.08l-2.04-0.22-0.58-0.07c-1.54-1-3.07-2.01-4.6-2.95-1.25 2.27-3.43 3.69-5.49 5.13l-1.48-1c0-2.04 0.28-4.05 0.75-6.02 1.71-4.22 2.63-8.77 2.06-13.32-3.51 2.02-3.88 6.44-6.51 9.24-0.03-0.91-0.08-2.74-0.11-3.66-0.07-1.35-0.21-2.65-0.36-3.96-0.84 1.16-1.54 2.41-2.41 3.54-0.12-0.8-0.35-2.39-0.46-3.19-3.48 0.17-3.79 3.89-4.95 6.37-2.81 0.51-5.05 2.26-7.04 4.18-0.57-0.05-1.72-0.16-2.29-0.22-0.27-1.33-0.46-2.64-0.64-3.95-0.01-0.53-0.04-1.58-0.06-2.11-0.62-1.2-1.3-2.33-1.95-3.45-0.11 0.73-0.32 2.18-0.42 2.91-0.72 0.74-1.4 1.5-2.02 2.31-0.5 2.63-0.5 5.33-0.44 8.01-0.88-3.73-2.07-7.36-3.25-10.98-0.34 0.12-1.02 0.35-1.36 0.47 0.88 4.16 1.74 8.36 1.8 12.64-2.55-2.54-2.74-6.08-2.41-9.45-0.67-0.15-2.02-0.45-2.7-0.6-1.43-5.03-0.87-10.28-0.91-15.42 0.06-1.89 0.11-4.45-2.38-4.57-0.07-0.71-0.19-2.15-0.25-2.86-0.89 1.05-1.72 2.15-2.58 3.23-0.13 3.18-0.68 6.35-1.77 9.36-3.76-1.34-5.08 2.3-5.92 5.07-0.43 0.53-1.3 1.59-1.73 2.12-1.34-3.08-3.42-5.91-3.89-9.29-1.07-7.49-2.58-14.91-4.71-22.17 0.86-0.48 1.74-0.96 2.65-1.41 0.4-1.56 0.81-3.11 1.28-4.63-1.399-0.85-2.81-1.66-4.21-2.41-0.979-2.95-0.65-6.03-0.78-9.06-1.61-11.32-1.41-22.81-2.61-34.18 0.02-6.28-1.49-12.42-3.46-18.34-3.06-9.66-0.89-19.95-2.78-29.78-1.47-9.03-3.34-18.01-5.65-26.86-3.44-10.98-8.36-22.1-6.8-33.88 1.53-12.32 2.52-24.7 3.32-37.09-0.07-4.58 1.15-9.41-0.7-13.78-2.37-5.49-5.5-10.62-7.81-16.13-0.91-2.05-1.54-4.31-3.24-5.84-9.8-8.81-13.68-22.67-24.47-30.53 0.3-6.65-2.44-12.81-3.85-19.17-1.47 0.23-2.92 0.48-4.34 0.74l0.33-0.76c2.07-1.56 4.04-3.25 5.68-5.27 0.73 0.09 1.47 0.2 2.25 0.32 1.03-1.65 2.27-3.2 3.07-4.99-0.2-2.2-0.77-4.33-1.05-6.5l-0.63 0.49c-0.45-0.42-1.34-1.24-1.79-1.65 0.5-0.17 1.49-0.49 1.99-0.65 0.88-0.73 1.79-1.44 2.73-2.12-0.03-0.28-0.1-0.84-0.13-1.12 2.64-1.65 5.1-3.59 7.28-5.82 0.92 1.78 2.229 3.31 3.84 4.55-0.32 0.64-0.62 1.3-0.88 1.98 1.16 3.66 0.36 7.54 1.12 11.27 0.27 2.33 1.39 4.46 1.79 6.77-0.52 2.18-1.61 4.41-0.15 6.51 3.42 1.08 6.84 2.44 10.52 2.28l-0.75 1.46c-3.04 3.58 0.27 7.38 2.67 10.16-0.4 0.35-1.21 1.04-1.61 1.39-0.05 1.72-0.06 3.46-0.05 5.21 1.42 1.16 2.77 2.47 4.42 3.39 5.63 0.38 11.21-2.71 14.07-7.54 1.75-2.9 1.27-6.45 2.35-9.57 0.07-0.59 0.19-1.77 0.26-2.36 3.91-0.54 9.7 1.62 11.96-2.68-4.38-0.31-8.73 0.59-13.1 0.18 2.15-4.51 7.27-6.54 9.37-11.04 1.69-3.44-0.25-6.95-2.13-9.82-1.57-1.93 0.08-4.28 0.32-6.37 1.26-3.98-0.03-8.12 0.38-12.18-2.86-3.88-4.08-9.01-8.18-11.88-5.27-3.65-11.27-6.17-17.47-7.72-0.44-1.03-0.851-2.04-1.23-3.05-0.58 0.12-1.74 0.37-2.32 0.49-1.3-1.69-2.75-3.2-4.29-4.62-0.83 0.25-1.64 0.52-2.43 0.8-1.63-5.08-1.38-10.56-3.42-15.51 0.64 0.06 1.9 0.16 2.54 0.22-1.51-0.91-2.82-2.05-3.34-3.75-3.19-7.82-9.08-14.14-12.4-21.89-0.32-2.17-0.12-4.38-0.22-6.55-0.35 0.97-0.66 1.96-0.94 2.96-0.36 0.36-1.08 1.09-1.43 1.45-3.72-1.81-7.37-3.89-10.2-6.94-1.29-0.27-2.52-0.49-3.75-0.77l-0.79-0.22c0.11-0.84 0.33-2.53 0.44-3.37-4.5-1.01-9.08-2.36-13.73-1.9-1.78-1.47-4.21-0.54-6.25-0.57 0.86-1.23 1.72-2.47 2.59-3.71-2.79 0.28-5.55 0.82-8.08 1.99-1.021-0.15-2.01-0.29-2.98-0.42-2.17 0.67-4.36 1.25-6.63 1.2-0.66-0.66-1.31-1.29-1.97-1.88l-0.04-0.03-0.23 0.17c-1.76 1.12-3.24 2.61-4.59 4.16 0.78 0.18 2.35 0.55 3.14 0.73-1.75 0.14-3.51 0.15-5.22 0.24-1.62 1-3.24 2-4.88 2.95-2.68 0.53-5.37 1.01-8.08 1.12-2.61-0.57-6.47 2.97-7.74-0.59-1.64 2.23-3.46 4.31-5.11 6.52-0.521-0.01-1.56-0.02-2.07-0.03-0.65 0.85-1.28 1.71-1.88 2.58-0.83-0.28-1.63-0.55-2.41-0.8 0.02 0.8 0.06 2.39 0.08 3.19-0.51 0.17-1.52 0.51-2.02 0.67l-1.52 0.49c0.06 0.61 0.16 1.84 0.21 2.45-1.04 0.48-2.07 0.97-3.07 1.47-0.17 0.52-0.5 1.56-0.66 2.09-0.61 2.14-0.78 4.38-1.29 6.55-0.97 2.32-2.47 4.45-2.79 7.02-0.88 5-3.36 9.63-3.521 14.77-0.2 4.74-0.3 9.61 1.23 14.18 0.65 2.74 2.31 5.55 1.3 8.42-1.7 5.42-6.2 9.37-8.27 14.59-1.27 4.16 3.31 5.97 6.45 6.87 0.38 4.03-3.68 7.41-2.12 11.38 1.84 1.54 4.26 2.19 6.39 3.31-0.67 1.67-1.89 3.38-1.32 5.3 1.65 3.2 5.32 5.17 5.93 8.94 0.65 4.3 3.25 8.49 7.62 9.78 6.04 1.37 12.43 0.12 18.05-2.31 2.5-0.96 5.57-2.58 8.09-0.71 1.64 2.02 1.85 4.82 2.66 7.25-2.54 2.77-4.06 6.19-5.8 9.46-1.979 3.75-6.66 3.53-10.16 4.77-4.58 1.58-9.65 2.25-13.62 5.22 5.98 2.24 12.43 1.02 18.65 1.38-2.93 1.79-5.48 4.07-7.7 6.68-4.98 5.39-12.6 8.15-16.04 14.95-2.43 4.4-5.44 8.45-7.94 12.81-2.08 8.05-1.09 16.45-0.85 24.66-0.94 0.13-2.83 0.38-3.77 0.5-0.09 2.87 0.65 5.77 0.28 8.62-1.31 4.03-2.53 8.08-3.87 12.1 0.39 0.42 1.17 1.27 1.56 1.7-0.72 1.89-1.21 3.92-2.37 5.62-1.22 0.38-2.43 0.71-3.64 1.01-0.53 2.5-1.08 5.03-1.17 7.61 1.14 0.6 2.32 1.16 3.56 1.68-0.53 1.66-1.07 3.31-1.59 4.99-2.02-0.06-4.24-0.27-5.71 1.38 0.26 4.03-2.17 7.3-3.79 10.77-11.71-0.5-23.49 0.05-35.02 2.22-1.15 0.07-2.24 0.05-3.33 0.05-10.46 2.97-21.21 5.08-31.24 9.4-5.29 2.88-11.45 4.07-16.1 8.11 0.13-23.51 5.2-47.55-1.45-70.62-1.37-4.89-2.36-9.92-2.58-14.98 1.22-2.45 4.01-4.19 4.25-7.04-1.76-2.99-4.84-4.85-6.85-7.63-2.44-4.75-2.63-10.16-2.23-15.37-1-12.99-2.91-25.94-2.69-38.99-0.01-2.47 1.29-4.65 2.09-6.91 3.63-8.96 3.21-19.31-0.49-28.16-1.24-3.92-3.26-7.52-4.8-11.3-3.24-11.01-4.09-22.53-6.83-33.65-1.48-7.29-4.49-14.12-6.62-21.21-3.37-8.21-7.11-16.26-10.55-24.43-4.65-10.45-8.11-21.37-12.07-32.08-2.46-6.23-3.58-12.86-5.92-19.12-4.52-13.55-10.54-26.62-13.83-40.56-2.24-8.21-2.4-16.9-5.72-24.82-6.62-16.14-15.89-31.25-27.59-44.21-4.27-4.71-9.93-7.93-15.92-9.9-3.45-0.92-5.04-4.54-8.24-5.9-3.36-1.23-4.16-5.22-7.11-6.95-3.87-2.56-8.74-1.73-13.05-2.74-4.2-0.89-8.49-1.13-12.74-1.59-0.1-1.78-0.18-3.56-0.24-5.33 1.69 0.4 3.41 0.81 5.12 1.27 2.31-7.37 5.07-14.69 5.88-22.43 0.52-4.74 1.71-9.36 2.5-14.05 0.7-7.8-0.11-15.65-1.53-23.31-3.01-8.15-6.23-16.21-9.54-24.23-1.85-3.95-6.13-5.89-8.29-9.6-1.15-1.89-2.55-3.59-4.17-5.06-0.6-1.13-0.88-2.62-2.44-2.67-5.26 0.26-8.61-4.39-13.5-5.38-4.39-1.71-9.15-1.85-13.65-3.09-2.93-0.75-5.97-0.87-8.96-0.91l-0.06-1.49c-0.05 0.36-0.16 1.08-0.21 1.45-10.24 0.09-19.03 5.98-28.47 9.11-8.81 3.64-18 7.4-24.53 14.62-6.62 5.33-10.81 12.8-15.2 19.92-2.99 4.5-1.73 10.08-2.6 15.12-1.29 5.62 2.6 11.69 7.89 13.59 1.43 4.46 1.12 9.19 1.9 13.75 0.8 4.35 4.69 7.75 4.24 12.37-0.39 6.29-3.95 11.77-5.25 17.82-1.07 4.81 3.85 8.05 8.11 8.11 0.37 1.45 0.69 2.9 1.06 4.37-4.56 1.06-8.99 2.67-12.98 5.12-4.37 2.74-9.74 2.31-14.54 3.7-7.86 1.63-15.36 4.61-22.39 8.44-4.37 2.77-9.74 1.4-14.57 2.41-3.25 0.83-5.86-2.48-9.1-1.67-5.52 1.37-11.3 1.32-16.68 3.28-9.4-0.38-18.81-1.18-28.24-1.15-7.58 0.22-15.13 1.09-22.58 2.44-0.67-1.23-1.4-2.41-2.35-3.41-2.65-0.19-4.92 1.57-7.38 2.27-7.46-0.38-14.77 1.23-22 2.79-3.71 0.92-7.42 1.78-11.16 2.46-8.02 2.37-16.44 0.21-24.54 1.93-7.34 0.45-14.72 0.44-22.06 1.02-1.43 0.15-2.44 1.27-3.72 1.79-2.13 0.19-4.27-0.26-6.35-0.58-4.04-1.82-7.86-4.08-11.29-6.88-2.55-1.91-5.14-4.29-8.5-4.36-5.09-0.32-10.13-1.13-15.2-1.56-4.79-0.53-10.14-1.06-13.46-5.01-1.07 1.37-3.06 2.67-2.29 4.7 0.47 3.8 3.91 6.01 6.82 7.96-5.68 0.95-11.11 2.87-16.71 4.12-6.26 1.84-12.99 2.27-18.78 5.48-0.05 0.59-0.16 1.76-0.21 2.35-2.12 0.19-4.34-0.02-6.31 0.84-1.92 1.55-1.67 4.1-1.39 6.28 0.93 0.43 1.88 0.86 2.84 1.3 0.26 1.78-0.05 4.24 1.98 5.1 4.71 1.79 9.92 0.05 14.71 1.51-0.68 0.08-2.03 0.24-2.71 0.32-0.87 0.05-1.72 0.15-2.56 0.3 1.29 5.09 7.07 4.95 11.18 5.81 7.62 1.66 15.51 1.33 23.1 3.13 7.77 2.17 15.92 1.81 23.89 2.51 8.32-0.36 16.9-1.48 24.26-5.68 1.71 8.7 4.35 17.18 6.7 25.73 0.73 2.92 2.3 5.9 5.11 7.28 2.59 0.58 5.3 0.28 7.96 0.3 11.66-0.9 23.33 0.52 34.98 1.14 16.04-0.09 31.96 2.25 47.99 2.54 5.46 0.39 9.61-4.25 15.01-4.55 4.25-0.26 7.9-2.71 12.1-3.18 7.83-1.14 15.24-4.11 22.95-5.76 8.47 2.29 17.31 2.24 25.89 3.89 8.81-0.16 17.35-2.91 26.13-3.52 3.1-0.21 5.47 2.17 8.06 3.53 2.99 1.93 6.85 3.04 8.71 6.33 4.78 8.13 10.48 15.67 15.06 23.92 6.38 10.82 9.99 22.95 15.78 34.07 3.29 5.93 4.71 12.6 6.4 19.11-2.6 0-5.33-0.24-7.66 1.1-4.95 2.74-11.1 3.33-15.13 7.6-3.2-0.64-6.36-1.39-9.48-2.27-0.92-3.62-2.46-8.04-6.61-8.92-3.75-0.77-7.47-1.97-11.28-2.22-2.75 1.28-4.83 3.55-7.09 5.48-0.12 0.57-0.35 1.71-0.47 2.28-0.45 0.05-1.35 0.14-1.8 0.18-0.32-0.53-0.94-1.58-1.25-2.11-4.65-1.09-10.06-2.98-14.12 0.56 0.46 0.49 1.37 1.46 1.83 1.94 0.43 0.39 1.3 1.18 1.74 1.58 0 0.45 0.01 1.37 0.02 1.83-1.52 0.01-3.03 0.04-4.52 0.09l0.37-0.21c0.9-0.09 2.69-0.26 3.59-0.35-1.01-0.91-1.25-3.18-2.87-3.07-5.7 0.32-11.43 1.48-16.61 3.93-4.55 2.2-9.47 3.46-14.1 5.44-6.24 2.56-12.8 4.95-19.61 5.04-2.6 0.2-5.95-2.16-7.91 0.31l-2.04-0.2c0.59-1.26 1.18-2.51 1.78-3.75-0.42-0.1-1.26-0.29-1.69-0.39-2.85-0.75-5.82-0.67-8.72-0.64v-0.8c-2.59-0.39-5.15-0.9-7.67-1.55-1.29-3.78-4.87-5.86-8.04-7.87-5.22-3.22-11.28-4.69-17.33-5.25-0.3-1.17-0.6-2.33-0.87-3.47-0.53-0.22-1.59-0.65-2.12-0.87 0.04-3.52-0.27-7.16-2.06-10.27-1.39-2.94-5.2-4.57-8.23-3.27-2.07 0.84-3.58 2.55-5.19 4.02-0.71-0.1-2.12-0.29-2.82-0.38-3.89-4.39-5.92-10.67-11.49-13.33-5.74-2.53-12.96-2.94-18.3 0.74-2.32 1.33-3.44 3.98-5.64 5.4-11.93 4.68-25.34-0.67-37.27 3.96-4.47 3.96-3.78 13.67 2.68 15.25 5.23 0.99 10.58 1.2 15.87 1.91 6.25 1 12.6-2.34 18.59 0.66-3.2 3.11-6.38 6.25-9.09 9.8-2.09 1.09-4.14 2.23-6.24 3.28-2.05-1.02-4.11-1.99-6.17-2.95-10.11 3.33-19.95 7.41-29.56 12-2.74 1.27-5.39 4.02-4.31 7.3 1.02 1.82 2.54 4.18 4.98 3.75 3.54-2.67 6.87-5.82 11.28-7.02 6.35-1.91 12.37-4.71 18.65-6.77 2.43 1.27 4.22 3.53 6.77 4.62 4.88-0.01 9.89-0.2 14.55-1.82 2.04-0.55 4.09-1.51 6.26-1.33 3.9 3.95 5.85 10.17 11.42 12.22-3.93 6.46-10.52 10.49-16.05 15.43-6.32 5.33-12.71 10.71-17.77 17.31-13.35 18.34-21.02 40.99-20.32 63.77 0 16.41 8.11 32 19.92 43.09 11.74 11.74 27.37 18.06 42.16 24.96 2.09 0.81 3.65 2.48 5.27 3.99-1.2 3.52-2.22 7.11-2.83 10.79-6.93 6.31-13.24 13.27-20.38 19.36-3.77 3.4-7.18 7.18-11.04 10.49-2.87-1.15-5.31-5.52-8.68-3.48-3.41 2.89-8.06 1.82-12.13 2.55-3.5 0.62-7.38-0.09-10.43 2.07-3.25-0.26-6.56-0.09-9.05 2.25-8.47 1.54-15.73 6.5-23.15 10.57-2.84 2.22-5.99 4.01-8.88 6.15-2.66 2.97-6.09 5.03-9.26 7.38 0.04 0.55 0.12 1.66 0.16 2.22-3.22 1.6-7.59 3.5-7.6 7.73-3.08 1.76-7.05 3.9-7.01 7.98-2.64 1.93-5.16 4.05-6.87 6.89 0.11 0.53 0.34 1.59 0.45 2.12-3.25 2.46-6.79 5.41-7.13 9.79-2.02 2.57-4.61 4.82-5.51 8.09-1.09 4.07-4.74 6.83-5.62 10.98-0.59 2.55-2.02 4.74-3.37 6.95-1.94 3.12-1.66 7.15-3.98 10.09-1.08 1.5-1.97 3.16-2.06 5.06-0.37 4.54-3.27 8.36-3.74 12.9-0.44 4.18-2.66 7.89-3.12 12.07-0.55 4.36-2.3 8.48-2.63 12.88-0.28 4.05-2.26 7.68-3.53 11.48-2.3 5.53-3.92 11.36-6.9 16.6-4.43 7.99-8.54 16.25-14.07 23.55-1.38-0.43-2.75-0.86-4.1-1.27 0.71-0.48 2.13-1.43 2.85-1.91-1.24-1.04-2.47-2.07-3.69-3.09-1.28 0.17-2.55 0.35-3.81 0.53 0.17-2.01 0.4-4.02 1.01-5.93l0.4-0.68c1.82-3.09 3.58-6.22 4.92-9.55 3.9-6.19 9.08-12.04 10.24-19.51-2.5 4.29-4.86 8.86-8.91 11.91-0.8 2.88-2.31 5.46-4.9 7.09-0.14-2.57-0.27-5.09-0.62-7.61-0.75 2.84-1.18 5.75-1.71 8.65-0.41 1.42-0.94 2.81-1.43 4.22-0.53 0.06-1.57 0.17-2.09 0.23-0.33 1.05-0.68 2.11-1.03 3.17-1.41 1-2.82 1.98-4.23 2.98-0.71-2.13-1.43-4.24-2.09-6.35-0.22-2.83-0.95-5.6-0.97-8.43 0.95-3.65 3.67-6.39 5.94-9.26 3.4-4.21 6.98-8.27 10.58-12.31 1.21-1.15 1.37-2.83 1.66-4.36-5.77 4.55-9.97 10.67-14.93 16.02-0.27 0.45-0.81 1.36-1.08 1.81l-1.3-0.97c0.02-2.74 0.53-5.43 0.79-8.13-1.62 1.52-3.26 3.03-4.91 4.52-0.6-6.22-0.12-12.46-0.26-18.68 0.1-1.39 0.22-2.75 0.34-4.1-0.52 0-1.56-0.01-2.08-0.01-1.69 9.09-1.22 18.36-1.03 27.56 0.22 3.51-3.09 5.8-4.01 8.99-0.67 2.33-0.98 4.75-1.44 7.14-0.32 0.25-0.97 0.75-1.3 0.99-0.42 2.59-1.03 7.46-4.74 6.54-0.33-0.93-0.61-1.85-0.83-2.76-2.35-7.07-4.82-14.2-8.66-20.61-1.97-3.82-3.01-8.07-5.43-11.65 0.03 2.63 0.68 5.2 2.03 7.49 3.04 6.91 6.25 13.96 6.6 21.63-0.49 0.44-1.47 1.31-1.97 1.75-0.28 0.25-0.83 0.76-1.11 1.01-0.43-1.24-0.86-2.47-1.27-3.66-3-0.24-3.83-3.23-5.29-5.32 0.26 2.25 1.63 4.05 3.12 5.68 0.33 1.97 0.68 3.95 1.06 5.93-1.46 0.21-2.9 0.47-4.34 0.75-0.16-2.71-0.95-5.29-1.96-7.77-0.56 0.96-1.1 1.94-1.64 2.94-0.28 2.93 0.87 6.41-1.28 8.84-1.49-0.97-2.37-2.54-3.41-3.9 0.24-1.38 0.5-2.73 0.78-4.07 1.46-2.66 3.46-4.94 5.33-7.29-2.41 2.02-4.73 4.15-7.19 6.11 0.1-1.63 0.21-3.25 0.34-4.85 1.02-0.36 2.11-0.62 3.16-0.92-1.61-0.43-3.13-1.06-4.53-1.9-0.78 0.51-1.55 1.05-2.31 1.61-1.77-3.23-3.66-6.39-5.57-9.51 0.32 4.97 4.03 9.22 3.37 14.29-1.86-0.36-3.67-0.67-5.5-0.99 0.2-2.19 0.34-4.38 0.41-6.55-1.03 2.07-1.79 4.25-2.89 6.3-0.8 0.01-2.42 0.03-3.22 0.04 0.1-0.89 0.32-2.67 0.42-3.56-0.59 0.39-1.77 1.19-2.37 1.59-0.62-0.98-1.24-1.94-1.84-2.89-0.08 0.98-0.25 2.94-0.33 3.92-0.68-0.05-2.05-0.15-2.74-0.21 1.51-7.64 2.36-15.53 0.75-23.24 0.05 7.88 0.85 16.49-3.71 23.4-0.29-0.91-0.85-2.72-1.13-3.63-0.33-2.02-0.77-4.02-1.5-5.92-0.29 3.34-0.19 6.72-0.52 10.07 0.3 1.74 0.52 3.5 0.74 5.28-0.62 0.21-1.87 0.62-2.49 0.83 0.55-5.52 0.65-11.07 0.57-16.6-1.78 2.33-1.42 5.4-2.14 8.11-0.74-9.37 1.17-19.42-3.28-28.14 0.11 4.42 1.02 8.79 0.97 13.24-0.97-2.89-2.11-5.75-4.44-7.78-0.73 4.12-1.12 8.38-2.58 12.33-0.59 0.39-1.78 1.17-2.38 1.56-0.13-0.81-0.39-2.44-0.53-3.25-0.55 0.07-1.66 0.21-2.22 0.28-3.1-0.94-3.93-4.52-5.73-6.85 0.4 2.02 0.92 4.03 1.06 6.11-0.69 1.07-1.5 2.08-2.28 3.1-0.56 2.03-1.1 4.08-1.78 6.09-1.65 1.01-3.28 2.04-4.93 3.05-0.04 0.66-0.14 1.97-0.18 2.62-1.75 1.86-3.85 3.52-4.73 6.01 0.06-3.13-1.28-6.11-1.08-9.22 0.89-0.55 1.81-1.06 2.75-1.53 2.36-3.49 5.55-6.34 7.78-9.92 0.35 0.06 1.06 0.2 1.42 0.27-0.05-0.65-0.15-1.96-0.2-2.61-3.25 3.79-6.17 8.07-10.69 10.48-0.91-1.05-1.8-2.05-2.7-3.07 2.03-1.82 4.24-3.43 6.31-5.19-2.84 0.97-5.52 2.33-8.13 3.79-0.48-0.71-1.43-2.13-1.91-2.84-2.24 1.01-1 3.94-1.39 5.87-0.24-0.05-0.73-0.16-0.97-0.21 1.06-5.58 0.98-11.3 1.15-16.94 0.68-0.06 2.02-0.18 2.7-0.24-3.91-0.22-2.89-4.11-3.33-6.8-1.65 2.12-1.93 4.77-2.02 7.38-2.64 1.1-5.24 2.27-7.91 3.28-2.6 2.8-4.75 5.96-6.98 9.05 3.06-10.43 8.04-20.61 7.38-31.75-1.22 4.89-1.48 10-3.15 14.79-2.85 7.48-4.77 15.29-8.05 22.61-0.64-4.29-0.66-8.66 0.01-12.94-0.51-0.62-1.01-1.22-1.5-1.81-0.15 1.44-0.44 4.3-0.59 5.74-1.22-3.21 0.31-6.51 0.41-9.75-1.74 1.78-1.81 4.34-2.35 6.64-0.55 2.95-2.19 5.54-3.6 8.15-1.36-4.03-0.1-8.24-1.04-12.29-0.21 1.65-0.37 3.29-0.49 4.99-0.71-0.02-2.13-0.06-2.83-0.07-0.21-0.66-0.62-1.97-0.83-2.63 0.31-0.59 0.93-1.78 1.24-2.37-0.09-0.63-0.27-1.87-0.36-2.49 2.98-3.82 8.13-7.07 7.76-12.47-2.66 3.62-5.54 7.07-8.48 10.48-0.55 0.06-1.66 0.19-2.22 0.26-0.39 1.92-1.43 3.58-2.55 5.18-0.81-0.07-2.44-0.2-3.25-0.27l-0.44 0.76c-1.23 0.6-2.33 2.06-3.82 1.6 0.51-2.03 2.36-3.67 3.62-5.35 0.6 1.05 1.2 2.18 2.35 2.78 0.1-1.08 0.3-3.26 0.39-4.35 1.31-1.46 2.62-3.71 4.59-1.49 0.06-0.87 0.17-2.63 0.22-3.51 0.26-0.63 0.77-1.88 1.03-2.51l-2.69 0.61c2.38-4.05 6.75-7.26 7.03-12.26-3.31 3.81-7.08 7.3-9.52 11.78-1.61 3.12-3.87 5.81-6.21 8.42 0.17-2.78 0.4-5.52 0.45-8.28-1.05 1.7-1.98 3.48-2.89 5.28-0.99-0.57-1.96-1.13-2.93-1.67-2.08 2.08-4.34 3.99-7 5.29 1.11-4.26 3.06-8.26 5.64-11.81 3.61-5.77 5.65-12.42 7.26-18.98-3.26 5.32-4.33 11.72-7.98 16.87-1.47 0.54-2.91 1.13-4.33 1.79-0.18-1.22-0.34-2.43-0.48-3.62 0.99-3.68 1.94-7.43 3.85-10.76 1.5-2.99 3.82-5.7 4.06-9.16-6.28 8.72-10.55 18.85-12.6 29.38-1.19 1.63-2.14 3.41-2.94 5.27-1.29-4.75-4.38-9.86-1.98-14.75l2.52-1.71c-1.49 0.51-2.95 1.07-4.39 1.67-0.7-3.88-1.42-7.78-1.23-11.73-0.24-4.83 1.5-9.45 1.92-14.22-2.25 2.12-2.15 5.35-2.87 8.14-1.17 4.86-1.53 10.08-4.14 14.46-2.09 3.53-3.98 7.17-6.13 10.68-0.4-7.36 2.08-15.56-2.58-22.06 1.1 9.28 1.97 18.74 0.66 28.05-1.77-3.97-3.37-8.24-2.49-12.64-0.34 0.1-1.03 0.31-1.37 0.41-0.14-2.47-0.86-4.82-1.89-7.04-0.81 6.69 0.53 14.2-3.57 20.03-0.62 2.86-1.66 5.6-2.62 8.37-0.68 0.41-2.04 1.24-2.72 1.65 0.01-4.17 0.28-8.48 1.95-12.34 0.67-0.06 2.01-0.19 2.68-0.25 0.38-0.47 1.14-1.41 1.52-1.87-0.85-0.2-2.56-0.58-3.41-0.78 1.05-2.91 2.37-5.79 2.46-8.93-1.39 2.63-2.14 5.53-3.46 8.19-0.68-0.38-2.03-1.15-2.71-1.54 0.88 0.91 1.77 1.82 2.68 2.74-1.54 2.33-3.78 4-6.41 4.9 0.18-3.34 1.57-7.07-0.25-10.15-0.32 2.67-0.32 5.37-0.33 8.08-0.48-0.18-1.45-0.53-1.93-0.71-0.07 1.95-0.18 3.9-0.32 5.87-0.49-0.65-1.47-1.95-1.95-2.61-0.55 1.86-1.01 3.92-2.46 5.34-0.98-0.15-1.89-0.51-2.8-0.82-0.26 0.5-0.77 1.5-1.03 2.01-0.2-1.99-0.37-3.96-0.53-5.92 0.5-0.72 1.01-1.42 1.53-2.11 0.89-0.02 2.69-0.05 3.59-0.07-1.17 1.85-2.26 3.72-3.27 5.68 0.56-0.12 1.68-0.37 2.24-0.49 1.47-3.5 3.93-6.56 4.73-10.33-1.22 1.53-2.26 3.17-3.3 4.84-1.82-0.01-3.65-0.02-5.45 0.01 1.37-3.31 3.14-6.44 4.54-9.73-1.72 2.12-3.06 4.5-4.39 6.88-0.18-0.93-0.54-2.8-0.72-3.73 0.45-1.75 0.84-3.52 1.09-5.29-2.98 3.67-1.42 8.15-1.24 12.36-3.11 3.11-5.94 6.47-7.42 10.71 0.47-7.58 2.5-14.86 4.3-22.19-0.45-4.81-1.12-9.64-0.69-14.48 0.58-2.63-1.41-4.6-2.71-6.59 2.24 7.2 1.99 14.8 1.57 22.25-1.23 5.54-2.98 10.97-4.87 16.33-0.45-3.1-0.84-6.27-0.05-9.33-0.72-3.45-1.24-6.94-1.39-10.44-0.23-0.01-0.7-0.03-0.93-0.04-0.01 2.87-0.02 5.75-0.23 8.63-1.79 4.21-2.74 8.79-5.38 12.63 0.07-5.32 0.78-10.6 1.2-15.89-0.62 0.8-1.24 1.61-1.85 2.44-1.35 0.33-2.67 0.7-3.96 1.18-0.19-1.09-0.39-2.16-0.61-3.2 1.52-1.37 3.16-2.59 4.89-3.67-0.26-1.03-1.49-2.12-0.46-3.1 2.02-3.59 3.67-7.36 4.97-11.26-3.28 5.68-7.07 11.12-11.24 16.18-0.95 0.18-1.88 0.37-2.81 0.57-1.76 2.98-3.61 5.92-5.8 8.61-0.13-1.59-0.23-3.18-0.32-4.75-0.73 1.13-1.46 2.28-2.2 3.41 1.8 2.58-0.46 5.53-1.06 8.14-0.21-0.32-0.63-0.96-0.85-1.27-0.04-0.46-0.11-1.36-0.15-1.82 0.61-1.47 1.31-2.92 2-4.34-0.87 0.64-2.63 1.91-3.5 2.54 0.71-1.48 1.47-2.92 2.27-4.33 0.23-0.2 0.68-0.59 0.9-0.79 0.39-3.67 2.43-6.79 4.35-9.81-0.42-0.49-0.92-0.94-1.35-1.34-2.37 4.25-5.88 7.69-9.26 11.13-1.49-1.49-2.98-2.94-4.44-4.42-3.85-2.57-7.91-4.77-12.05-6.81-2.82-0.26-5.65-0.49-8.46-0.78-2.72-0.37-5.44-0.74-8.11-1.33-1.55 0.69-3.12 1.35-4.66 2.07 3.43-0.4 6.89-0.61 10.33-0.06-1.44 1.33-2.9 2.65-4.36 3.96-5.72-3-13.25-5.26-19.22-1.81-1.66 1.47-2.97 3.26-3.91 5.28-0.67-1.4-1.36-2.78-2.03-4.15 3.75-3.12 7.13-9.93 2.23-13.55 2.42 4.44 0.89 9.69-2.85 12.89-0.1-4.08 1.23-8.47-0.96-12.22 0 3.44 0.27 6.88 0.17 10.35-1.16-1.12-2.29-2.23-3.39-3.36 0.18-1.15 0.38-2.28 0.6-3.39-0.7 1.43-1.43 2.92-2.97 3.64-0.01-0.83-0.03-2.5-0.04-3.33 0.8-3.39 0.08-6.92 0.99-10.27 0.55-2.18 1.17-4.34 1.75-6.5-0.25-0.08-0.76-0.24-1.01-0.32-1.6 5.34-2.73 10.83-4.84 16.01-0.12 0.72-0.36 2.16-0.47 2.88-1.25-3.85-2.71-8.04-6.58-9.98-0.15 1.28-0.28 2.58-0.39 3.9 0.47 0.89 0.95 1.81 1.38 2.76 1.04 2.55 2.06 5.11 3.05 7.69-1.36 0.55-2.71 1.12-4.05 1.7-0.28-1.45-0.56-2.88-0.86-4.29-0.25-1.25-0.47-2.46-0.7-3.66-1.2-0.98-2.38-1.94-3.56-2.89 0.61-2.79 1.37-5.53 1.97-8.3-1.57 1.83-2.68 3.98-3.74 6.15-1.18-1.1-2.43-2.11-3.66-3.12 1.97-2.89 4.02-6.3 2.51-9.89-0.74-0.26-1.47-0.48-2.2-0.67 0.05-1.48 0.11-2.93 0.21-4.38-2.69-0.57-5.79-1.03-6.83-4 0.54-0.16 1.61-0.49 2.15-0.65 1.11-2.44 2.45-4.78 3.46-7.25 0.55-3.12-0.23-6.26-0.42-9.36 1.11-1.49 2.25-2.93 3.4-4.35-1.63-3.54-4.25-6.63-7.57-8.66-1.44 0.24-2.81 0.76-4.2 1.18-0.53 0.13-1.59 0.39-2.12 0.52-1.09 2.52-2.21 5.04-3.29 7.58 0.42-0.11 1.26-0.34 1.68-0.45-0.96 1.93-1.57 3.99-2.18 6.07-2.13 3.17-2.11 6.95-2.43 10.6-0.57 2.89-3.67 2.23-5.85 2.1-1.67-0.01-3.33 0.05-4.96 0.39-0.02 1.9 0.69 3.69 1.28 5.48 0.57 0.22 1.72 0.67 2.29 0.89 1.78 0.77 3.47 1.77 5.15 2.78 0.38 1.45 0.78 2.91 1.2 4.38l-1.06 0.51c0.08 2.46 0.17 4.93 0.24 7.42-0.68 0.66-1.34 1.36-1.99 2.09-1.22 0.02-2.43 0.06-3.64 0.13-1.33 2.78-3.48 6-6.92 6.04-4.72 0.37-9.37 1.42-13.84 2.96-4.11 1.23-6.03 5.61-9.98 7.18-2.27-2.71-4.68-5.34-7.5-7.48-1.37 0.14-1.74 0.99-1.1 2.53 1.39 4.59 1.04 9.52 0.37 14.21-0.55 1.08-1.1 2.16-1.66 3.25-4.01-1.49-7.68-3.68-11.3-5.91 1.12-4.74 5.33-7.85 8.62-11.13 0.44-4.71-4.88-5.8-8.52-5.65-3.58 0.22-4.39 4.33-6.22 6.72-1.5 2.89-5.28 2.46-7.83 3.89-3.9 1.96-8.22 5.41-7.64 10.31-0.03 0.42-0.08 1.28-0.11 1.7-0.43 1.18-0.83 2.38-1.21 3.6-2.21 0.01-4.42-0.01-6.62-0.06-0.04-0.96-0.12-2.9-0.16-3.87-0.23 0.64-0.68 1.92-0.9 2.56-1.74-0.14-3.5-0.2-5.22 0.08-0.78 2.23-1.38 4.52-2.02 6.81-1.53 0.46-3.04 0.95-4.55 1.46-0.17-1.55-0.33-3.08-0.48-4.59-0.44 2.41-0.7 4.84-0.99 7.29-2.43 0.12-4.7 0.96-6.7 2.34 2.33-6.33 0.8-13.03 0.83-19.56 0.03-2.94-1.08-5.67-2.16-8.33-0.44-0.06-1.32-0.18-1.75-0.24 0.86 3.58 1.61 7.2 2.74 10.72 1.38 3.93-0.64 7.93-1.08 11.86-0.72-0.1-2.18-0.32-2.91-0.42-0.37-1.3-0.74-2.56-1.06-3.83 0.12-1.77 0.22-3.55 0.33-5.3-0.35 0.02-1.07 0.06-1.43 0.08-0.55 1.72-1.12 3.43-1.68 5.17-1.51-1.38-3.03-2.73-4.58-4.03l-0.5-1.28c-1.57 2.37-1.09 5.27-0.05 7.76 1.49 3.22-0.89 6.34-2.72 8.82-0.02 0.49-0.07 1.46-0.09 1.95-1.2 0.88-2.38 1.8-3.56 2.72 1.01-1.18 2.03-2.35 3.04-3.5-2.52-2.48 0.33-5.42 1.11-8.04-0.52 0.09-1.57 0.25-2.09 0.33-0.35 0.77-0.65 1.57-0.89 2.41-1.47 0.9-3.92 1.12-4.22 3.19l-0.45 1.39c-1.13 1.52-2.8 2.31-4.68 2.5-0.43-1.33-0.77-2.66-1.01-4.01 2.01-4.58 4.83-8.87 5.75-13.87-2.56 3.57-4.18 8.41-8.71 9.95-0.9 1.57-1.76 3.17-2.59 4.81-1.06-1-2.12-1.98-3.19-2.93-0.46-1.26-0.92-2.5-1.38-3.73-0.67 0.38-2.02 1.14-2.69 1.53-0.83-0.83-1.66-1.66-2.47-2.44 0.79-2.02 1.6-4.01 2.49-5.96-0.68 0.64-1.36 1.29-2.03 1.96-1.03 0.05-2.05 0.13-3.07 0.23-0.03 2.02-0.07 4.06-0.25 6.11-1.26 1.15-2.52 2.31-3.8 3.47-1.2-3.87-0.86-8.05-2.67-11.75-0.36 0.28-1.08 0.83-1.44 1.1-0.06 2.11-0.11 4.22-0.1 6.36-1.44 0.11-2.92 0.9-4.33 0.39-1.03-1.86-1.7-3.87-2.46-5.82-0.52 0.06-1.55 0.17-2.07 0.23-0.49 3.43-0.88 6.94-2.29 10.16-0.36-2.76-0.56-5.55-1.31-8.23-0.49-1.63-1.16-3.18-1.86-4.72-0.71 2.78-1.3 5.59-2.05 8.37l-0.92 0.72c-1.68 0.3-3.36 0.57-5.04 0.85-0.33-0.52-0.98-1.54-1.3-2.06-0.08-0.27-0.24-0.8-0.31-1.07-1.01 0.02-2.02 0.05-3.02 0.1 0.69 2.72 0.74 5.54 0.36 8.32-0.07-2.15-0.14-4.28-0.21-6.4-0.87-0.18-1.74-0.33-2.61-0.47l3.04-2.84c-2.44-0.11-4.98 0.04-6.83 1.81-1.64 1.53-3.12 3.21-4.69 4.84l-0.03-2.05c0.68-3.13 2.59-5.78 4.81-8.01-0.5-1.1-0.99-2.19-1.47-3.26-1.46 5.26-5.99 9.04-6.82 14.48-0.55-0.29-1.64-0.87-2.19-1.16-0.38-2.37-0.74-5.18-3.34-6.17-0.44 2.73 0.17 5.44 0.87 8.08 0.15 2.16-0.77 4.09-2.09 5.74-2.24-2.52-2.38-5.81-1.88-8.97-1.78-0.04-3.55-0.05-5.33-0.06 0.26-2.64 0.47-5.27 0.65-7.9 0.48-2.92 0.18-6.23 2.22-8.63 2.06-2.69 3.83-5.61 5.07-8.77-0.81 0.39-1.6 0.8-2.4 1.22-2.64 5-6.72 9.14-8.59 14.55-0.49 0.22-1.48 0.67-1.97 0.89-0.44-0.12-1.31-0.37-1.74-0.5-1.09 0.93-2.17 1.86-3.23 2.83-2.26 2.06-4.44 4.21-6.75 6.24 0.24-3.2 0.9-6.31 1.53-9.43 1.59-1.2 3.15-2.43 4.63-3.75-1.15 0.11-2.3 0.25-3.44 0.42 0.2-3 0.35-6 0.29-8.98-0.44-0.11-1.31-0.33-1.75-0.44-2.7 6.56-1.55 14.58-6.74 20.03-1.65-4.32-0.22-8.76-0.79-13.12-0.61-2.92-0.38-5.9-0.28-8.84 0.32-1.07 0.65-2.12 0.99-3.16-1.01-0.31-2.02-0.61-3.03-0.89-1.26-0.77-2.46-2.65-4.09-1.61-3.85 1.02-5.03 5.22-7.14 8.12-2.6 1.19-5.09 2.59-7.59 3.97-0.36-2.07-0.62-4.1-1.04-6.13-0.16 1.52-0.28 3.06-0.37 4.61-1.37 1.02-2.79 2.04-4.44 2.58-1.23-1.81-2.55-3.53-3.99-5.15 0.59 2.2 1.41 4.35 2.55 6.34-0.27 2.01-0.77 4.01-1.56 5.91-0.87-0.46-1.74-0.89-2.61-1.32-0.24-0.79-0.74-2.39-0.99-3.18-1.58 3.55-2.03 9.01-6.76 9.66-0.48-2.2-0.92-4.4-1.51-6.55l-0.53-0.96c-0.43-1.34-1.88-1.36-3-1.64-0.12 4.05-0.63 8.08-1.7 12.01l-0.11-0.71c-0.28-3.67-1.49-7.16-2.65-10.61 0.23 1.68 0.45 3.38 0.67 5.09-0.57-0.01-1.71-0.04-2.27-0.06-1.22-2.77-1.31-5.84-1.64-8.79-1.33 2.55-2.04 5.34-2.34 8.21-0.14 2.01-0.65 4-1.89 5.65-0.99 0.78-2 1.53-3 2.31-0.8-1-1.6-2-2.39-2.97 0.45-1.38 0.93-2.7 1.38-4.05-0.48 0.15-1.46 0.44-1.95 0.59-0.21 0.5-0.65 1.5-0.86 2-0.84-0.87-1.79-1.59-2.77-2.23-0.07 0.63-0.21 1.91-0.28 2.55-0.11 0.34-0.33 1.03-0.44 1.38-1.67 2.17-3.29 4.38-4.8 6.67-0.63-0.72-1.25-1.43-1.87-2.14-0.22-0.26-0.65-0.8-0.87-1.07-0.1-2.68-0.24-5.34-0.28-8 0.44-2.42 1.08-4.79 1.72-7.15-0.27-0.04-0.81-0.13-1.08-0.18-0.92 2.28-1.7 4.6-2.49 6.95-1.65-2.57-2.36-5.51-2.86-8.46-0.3 4.72-0.28 9.46 0 14.19-1.63 0.92-3.41 1.42-5.23 1.78-0.34-2.39-0.7-4.76-1.11-7.11-0.26 2.29-0.55 4.59-0.9 6.89-1.45-0.58-2.9-1.14-4.35-1.68-0.04-0.78-0.11-2.33-0.15-3.1-1.12 2.58-2.21 5.17-3.08 7.86 0.36 0.02 1.09 0.05 1.45 0.07-0.03-0.66-0.1-1.99-0.13-2.66 1.72 0.52 3.45 1.06 5.16 1.67l0.4 1.41c-0.63 0.02-1.9 0.05-2.54 0.06-0.74 1.52-1.48 3.06-2.24 4.59-0.97-1.76-2.9-1.5-4.55-1.65-0.38-3.65 0.1-7.27 0.6-10.86-3.24 1.53-2.95 5.17-3.2 8.19-0.54-0.03-1.63-0.07-2.17-0.1-0.92 1.61-1.68 3.79-4 2.89-3.03-4.4-4.13-9.7-5.32-14.8-0.28 2.78-0.27 5.58-0.58 8.38-0.31 0.53-0.94 1.59-1.25 2.12-1.59 2.73-1.63 5.87-1.57 8.95-0.17-0.2-0.52-0.61-0.69-0.81-0.01-2.03-0.03-4.04-0.07-6.03-1.72-1.27-3.28-2.74-4.67-4.34-0.13 2.06 0.01 4.35-1.48 6.02-0.51-1.01-1.05-2-1.59-2.95-1.81-4.1-3.44-8.27-5.51-12.23 0.22 3.13 1 6.19 1.72 9.26-1.71 0.63-3.14 2.72-1.31 4.13 0.7 0.81 1.44 1.64 2.18 2.45-0.09 0.68-0.28 2.03-0.37 2.7-1.12 1.52-2.16 3.09-3.18 4.7-0.69-1.47-1.36-2.94-2.05-4.37l-0.48-0.98c-2.61-5.78-4.44-11.9-7.6-17.43-0.47 0.3-0.94 0.63-1.4 0.98 1.91 4.31 2.75 8.99 4.29 13.44-0.92-0.06-2.78-0.17-3.71-0.22-0.46 1.47-0.92 2.96-1.41 4.46-0.23 1.49-0.44 3.02-0.8 4.52l0.2 2.04c-0.49 0.15-1.47 0.46-1.96 0.61 0.02-1.3 0.03-2.58 0.05-3.84-1.44-1.64-2.66-3.49-3.86-5.28 0.01 3.11 0.09 6.24 0.11 9.36-0.72 0.38-2.15 1.12-2.87 1.5-0.57-2.17-1.48-4.21-3.28-5.6-2.22-6.55 0.45-13.14 1.6-19.59 1.47-5.42 3.89-10.99 2.58-16.68-3.96 10.01-6.6 20.48-8.72 31.02-0.31 1.51-0.82 2.97-1.36 4.43-0.8-6.85-0.55-13.75-0.99-20.61-0.06-2.53-0.1-5.05-0.06-7.56 0.18-8.48-0.48-16.94-0.34-25.41-0.02-7.24 0.04-14.48-0.51-21.69-1.07-1.49-3.03-1.33-4.64-1.39-7.11-0.14-14.35-0.84-21.34 0.84l-0.85 0.13c0.65 13.78 0.03 27.59 0.53 41.38 0.05 7.3 0.14 14.61 0.13 21.93-0.53-0.18-1.58-0.55-2.1-0.73-2.34 3.8-4.27 7.83-6.12 11.9-1.33-3.96-0.46-8.19-1.42-12.21-0.8 2.47-1.77 4.92-3.37 7.02-0.24-1.65-0.46-3.28-0.59-4.91 0.21-0.89 0.63-2.65 0.83-3.54-0.9-0.03-1.79-0.05-2.69-0.05-1.36 2.57-2.83 5.09-4.15 7.69-1.65 0.7-3.3 1.4-4.9 2.21l-0.17 0.33c-1.26 3.42-2.68 6.91-5.64 9.23-0.49-1.33-0.97-2.62-1.5-3.88-0.83-2.98 0.27-5.69 2.61-7.59 1.79-2.63 2.41-5.72 2.43-8.86l0.06-1.44c-2.85-2.1-6.35-2.83-9.83-2.86-0.19-0.58-0.59-1.74-0.79-2.32-2.52 1.39-3.24 4.36-3.63 7.01-0.42 2.96-1.24 5.85-2.32 8.65l-0.68 0.39c-4.14-2.29-2.02-7.77-3.66-11.47-0.36-1.29-0.86-2.52-1.35-3.74-0.13 1.72-0.22 3.45-0.3 5.2-0.72 1.34-1.42 2.7-2.12 4.08-0.53 0.25-1.6 0.75-2.13 1-3.5 2.8-6.51 6.23-9.2 9.81-1.9 2.51-3.98 4.88-6.45 6.85 0.32-2.51 0.8-5 1.26-7.47-0.91-0.38-1.82-0.73-2.74-1.07-0.31 1.82-0.66 3.64-0.92 5.49-0.17 1.09-0.33 2.2-0.47 3.33-0.84 0.57-1.68 1.14-2.55 1.7-3.14-5.38-1.19-11.95-2.71-17.77-0.28-1.25-0.61-2.47-1-3.67l-0.09-0.11-0.77-1.01c-3.93-1.09-5.61 3.07-6.92 5.95-2.39 5.12-3 11.02-6.41 15.67-0.5-3.91-0.69-7.86-1.37-11.73-0.15-1.21-1.54-1.64-2.27-2.42-0.51 4.05 1.44 8.15 0.41 12.1-1.58-0.4-3.1-0.98-4.64-1.5 0.91 2.68 1.91 5.33 3.01 7.96-1 1.9-2.09 3.76-3.09 5.68-2-3.03-4.04-6.02-6.17-8.94 0.18-2.26 0.33-4.53 0.44-6.76-2.83-0.14-3.09 2.47-3.63 4.58-0.33 0.9-0.67 1.82-1.03 2.75-1 0.39-1.99 0.8-2.99 1.22 0.28 0.56 0.85 1.67 1.13 2.23-0.6 0.8-1.19 1.63-1.77 2.48v155.57h1919.7v-141.93c-0.059-3.56 0.231-7.13-0.259-10.64zm-80.3-338.32c0.84 1.63 1.7 3.29 2.2 5.09-1.84 1.9-3.97 3.48-6.07 5.06 1.53-3.29 2.79-6.7 3.87-10.15zm-36.83-37.7c3.18 1.58 6.71 2.34 9.84 4.08 0.72-0.07 2.14-0.21 2.86-0.27 0.47 1.31 0.93 2.61 1.46 3.95-1.53 2.41-4.42 2.5-6.8 3.47-2.35 1.51-4.89 2.7-7.57 3.44 0.84 0.59 1.7 1.19 2.6 1.78-0.32 2.03-0.35 4.09-0.32 6.15-3.08 0.37-4.81-3.99-1.55-5.24-0.97-0.52-1.93-1.01-2.88-1.46 1.74-5.08 2.24-10.56 2.36-15.9zm-1771.6 350.22c0.71-0.18 2.11-0.55 2.81-0.73 0.58 4.97 0.01 9.98-3.08 14.08 1.15-0.25 2.31-0.49 3.46-0.72-1.11 4.41-1.49 9.12-3.59 13.21-0.79 0.07-2.36 0.22-3.15 0.29 0.51-4.41 2.85-8.21 4.67-12.15-0.45 0.28-1.35 0.83-1.8 1.1-0.82 2.66-2.22 5.03-4.32 6.9-0.29-1.54-0.55-3.08-0.77-4.6 1.84-5.83 3.28-11.79 5.77-17.38zm68.23 19.12c0.09 0.23 0.25 0.68 0.33 0.91-0.52 1.29-0.69 2.68-0.88 4.08-0.21 0.02-0.62 0.08-0.83 0.1-0.01-1.73-0.03-3.44-0.17-5.13l-0.8-0.8c0.05-1.91 0.11-3.8 0.16-5.68-3.54-3.79 0.13-8.25 2.44-11.5 0.39 5.07 1.59 10.09 1.3 15.21-1.19 0.65-1.7 1.59-1.55 2.81zm15.77-3.95c-0.41 1.42-0.83 2.84-1.27 4.27-0.97-0.41-1.93-0.82-2.88-1.23-0.19-0.29-0.58-0.87-0.77-1.17-1.58-1.99-2.54-4.34-1.45-6.82 1.67-4.63 3.9-9 6.18-13.34 0.31 6.09 0.19 12.19 0.19 18.29zm103.61-7.47c-0.03 1.5-0.06 3-0.11 4.53-2.92-1.68-1.37-5.13-1.58-7.83 0.59 0.17 1.76 0.52 2.35 0.69 0.44-0.9 0.89-1.78 1.34-2.65 0.4 2.1-0.52 3.84-2 5.26zm76.3-11.88c-0.65-1.47-1.3-2.94-1.93-4.38 0.28-1.4 0.55-2.78 0.81-4.16 1.1-0.25 2.21-0.49 3.33-0.71 0.24 2.26 0.51 4.53 0.72 6.82-0.99 0.77-1.97 1.6-2.93 2.43zm18.78 5.85c-1.02 1.45-1.97 2.95-2.9 4.48-0.02-2.67-0.38-5.39 0.28-8 1.1-1.32 2.53-2.3 3.93-3.26-0.32 1.76-0.66 3.5-1 5.29-0.08 0.37-0.23 1.12-0.31 1.49zm35.6-5.72c2.16 1.44 1.42 3.99 0.25 5.82-0.92-0.83-1.84-1.64-2.76-2.44 0.54-1.36 0.93-2.92 2.51-3.38zm131.74-1.92c-0.83-0.84-1.65-1.67-2.47-2.49 0.27-0.76 0.79-2.28 1.06-3.04 0.13-0.33 0.4-1.01 0.53-1.34 1.07 0.62 2.15 1.28 3.26 1.9-0.83 1.63-1.57 3.31-2.38 4.97zm25.93-16.9c-0.31 0.04-0.93 0.11-1.24 0.14-0.02-0.79-0.05-2.38-0.07-3.18-0.64 0.61-1.92 1.82-2.56 2.42-1.11-3.53-2.05-7.12-2.49-10.79 0.65 0.09 1.96 0.27 2.61 0.35 2.86 3.02 4.54 6.84 3.75 11.06zm14.1 6.1c-0.07-0.78-0.21-2.34-0.29-3.12-0.24-2.42-0.21-4.84-0.05-7.23 1 0.05 2 0.13 3.01 0.21-0.01 2.04-0.06 4.01-0.06 6.11 0.48-0.71 1.44-2.13 1.92-2.84 0.67 0.66 1.35 1.33 2.03 2.02-0.02 0.77-0.07 2.32-0.1 3.1-0.93 0.26-1.85 0.53-2.77 0.8-0.02-0.81-0.05-2.44-0.07-3.26-1.41 1.22-2.53 2.7-3.62 4.21zm13.03-8.48c-0.12-0.21-0.36-0.64-0.48-0.86-0.32-0.12-0.95-0.38-1.26-0.51-0.65 1.39-1.31 2.78-1.96 4.19-1.11-1.13-2.2-2.22-3.26-3.35-0.96-1.05-1.89-2.14-2.78-3.2 1.34-1.72 2.95-3.2 4.72-4.47 4.05-0.03 8.08 0.51 12.02 1.5-0.12 2.12-0.25 4.26-0.4 6.42-0.31 0.58-0.94 1.76-1.26 2.35-2.2 0.16-4.93 1.01-5.34-2.07zm32.15-6.88c-0.82-0.05-2.47-0.14-3.3-0.19-0.13-1.23-0.27-2.44-0.41-3.64l-0.83-0.68c1.67-0.3 2.37-2.8 4.14-2.42 1.74 1.86 0.3 4.69 0.4 6.93zm4.91-0.5c1.86 1.98 3 4.64 1.92 7.34-0.7 1.66-1.57 3.23-2.4 4.84 0.05-4.07-0.26-8.16 0.48-12.18zm21.87 14.19c-0.54 0.23-1.62 0.7-2.17 0.94 0.19-2.05 0.42-4.07 1.04-6.02 0.21 0.66 0.62 1.99 0.83 2.65 1.19 1.15 1.49 2.7 1.48 4.34-0.3-0.48-0.89-1.44-1.18-1.91zm30.71-15.49c2.7 0.4 5.39 0.78 8.1 1.27-1.27 1.43-2.86 2.53-4.38 3.68 1.4-0.7 2.75-1.5 4.12-2.25-0.36 3.34-1.97 6.32-3.04 9.47-0.14-0.56-0.42-1.67-0.57-2.23-2.72 0.39-4.5-1.73-6.44-3.22-0.67-0.48-2-1.45-2.66-1.94 1.61-1.6 3.24-3.19 4.87-4.78zm-18.46 1.52c3.95-0.09 7.31 2.25 11.09 3.06-0.62 2.87-4.57 1.29-5.06-0.88l-0.71 0.16c-0.54 0.12-1.6 0.36-2.13 0.48 0.06 0.72 0.18 2.15 0.24 2.86-0.59 0.46-1.75 1.36-2.33 1.82-0.53-0.48-1.61-1.45-2.15-1.93-0.81-0.74-1.58-1.47-2.34-2.19-0.71-0.19-2.12-0.56-2.83-0.74 0.49-3.04 3.89-2.56 6.22-2.64zm3.78 10.2c-0.43 0-1.3-0.01-1.74-0.01 0.25-0.73 0.75-2.17 0.99-2.89 0.45-0.06 1.34-0.17 1.79-0.23 0.4 0.08 1.2 0.24 1.6 0.31-0.83 0.98-1.71 1.92-2.64 2.82zm-6.8 5.53c-2.93-3.05-6.99-6.36-5.63-11.11 0.65-0.35 1.94-1.05 2.59-1.4 2 0.83 3.89 1.98 5.4 3.57 0.57 1.7 1 3.39 1.44 5.17-3.39-1.01-5.02-4.48-7.7-6.19-0.47 3.5 3.72 5.18 6.01 7.05l-1.16 2-0.95 0.91zm6.19-1.8c1.22-1.65 2.62-3.18 4.02-4.67-0.03 1.25-0.07 2.53-0.12 3.83-0.74 0.09-2.22 0.28-2.96 0.38 0.89 0.78 1.84 1.53 2.81 2.27-0.38 0.46-1.14 1.39-1.52 1.86-1.18-0.87-2.17-2.18-2.23-3.67zm8.22 2.82c-0.05-0.72-0.15-2.17-0.21-2.9-1.18 0.2-2.35 0.4-3.53 0.6 2.32-1.79 4.75-3.45 7.32-4.87l-0.37-0.83c-2.03 1.26-4.08 2.48-6.15 3.67 0.04-1.62 0.09-3.23 0.15-4.82 1.4-1.16 2.8-2.3 4.22-3.42 0.51 0.36 1.53 1.07 2.04 1.43 1.78 1.3 3.51 2.67 5.24 4.08-2.44 1.27-4.37 3.24-5.84 5.54-0.17 0.2-0.52 0.59-0.69 0.79-0.54 0.18-1.63 0.55-2.18 0.73zm9.58-0.91c-1.13-0.45-3.19-0.1-2.81-1.92 1.05-1.76 2.86-2.85 4.5-3.99l-0.28 2.72c-0.46 1.05-0.93 2.12-1.41 3.19zm2.71 4.21c-1.54-0.32-1.22-3.11 0.29-3.19 1.31 0.44 1 2.87-0.29 3.19zm2.45-3.03c-0.62-0.79-1.2-1.52-1.79-2.26 1.12-0.41 1.98-1.13 2.59-2.18 0.47-0.02 1.41-0.06 1.88-0.07-0.9 1.49-1.81 2.98-2.68 4.51zm2.82-7.23c-0.94 0.16-1.87 0.34-2.79 0.55 0.44-3.17 1.02-6.33 1.65-9.46 3.01 0.62 6.19 1.43 8.39 3.77 0.27 1.97-0.34 3.92-0.92 5.8-0.83 0.8-1.7 1.57-2.6 2.3-1.54-0.52-2.52-1.98-3.73-2.96zm9.84 13.88c0.01-1.73 0.23-3.43 0.78-5.06 1.01 1.74 0.48 3.63-0.78 5.06zm3.84-8.8c0.97-0.77 1.96-1.5 3.01-2.15-0.21 1.86-0.68 3.7-1.41 5.44-0.9 1.74-1.82 3.49-2.88 5.15 0.61-2.79 1.46-5.56 1.28-8.44zm1.1 9.93c0.31-0.59 0.93-1.77 1.24-2.36 0.58 0.2 1.73 0.61 2.31 0.81-0.32 1.5-2.26 2.98-3.55 1.55zm18.84 5.6c-1.01-0.7-2.02-1.39-3.05-2.01 0.83-0.53 1.68-1.05 2.53-1.55-0.81-1.11-1.67-2.11-2.59-3.06 0.38-0.48 1.14-1.45 1.52-1.93-0.48-0.44-1.46-1.31-1.95-1.75l1.73 0.67c-0.12-0.63-0.35-1.89-0.47-2.52 0.47-0.07 1.42-0.22 1.89-0.29-0.65-0.17-1.97-0.49-2.63-0.65 0.69-1.14 2.07-3.42 2.76-4.55 0.93 2.17 1.5 4.48 2.28 6.73-1.12 1.14-2.25 2.27-3.39 3.4 0.78 0.49 1.59 1 2.37 1.56-0.65 1.9-1 3.91-1 5.95zm1.83 0.44c0.04-1.62-0.12-3.45 1.45-4.42 0.34 1.66-0.01 3.39-1.45 4.42zm2.67-4.97c-0.47-1.31-0.94-2.62-1.4-3.88 0.29-1.84 0.7-3.64 1.22-5.41 0.24-0.31 0.71-0.94 0.95-1.26-0.14 3.52-0.4 7.03-0.77 10.55zm-1.67-9.14c-2.01-1.39-1.87-3.67-1.64-5.81 1.66-1 3.35-1.95 5.09-2.8-0.83 2.98-2.02 5.85-3.45 8.61zm7.36 12.92c-1.05-3.96 0.34-8.19 1.63-11.96 0.73 3.96 1.18 8.64-1.63 11.96zm9.15 0.09c-1.78-0.21-1.15-2.65 0.11-3.09 2.26-0.47 2.25 3.64-0.11 3.09zm-1.05-3.71c0.73-3.6 2.37-7.02 5.11-9.5-0.01 2.04-0.12 4.08-0.34 6.13-0.53-1.21-1.02-2.42-1.48-3.62-0.8 2.33 0.02 6.55-3.29 6.99zm6.59 7.35c-0.51-1.09-0.36-2.93 0.91-3.4 2.02 0.19 0.84 4.36-0.91 3.4zm2.58-8.96c1.41-1.37 2.84-2.7 4.31-3.99 0.4 1.11 0.81 2.23 1.24 3.37-1.38 2.37-2.46 4.92-4.16 7.12 0.14-1.05 0.29-2.09 0.46-3.1 0.86-1.06 1.53-2.21 2.01-3.45-0.97 0.01-2.89 0.04-3.86 0.05zm8.33-2.96c-1.04-3.52 1.16-6.16 4.06-7.76-0.55 2.51-0.69 7.62-4.06 7.76zm19.06 4.26c-0.16-1.77-0.34-3.54-1.11-5.14-0.42 0.86-1.27 2.59-1.7 3.45-0.57-3.75-0.9-7.52-0.89-11.3 1.41 2.41 3.12 4.86 2.91 7.83 2.07 0.86 0.65 3.44 0.79 5.16zm3.15-3.88c-0.01-3.43-0.42-6.85-0.25-10.25 0.99-2.57 2.28-5.03 3.82-7.29-0.69 5.92-1.86 11.81-3.57 17.54zm7.17-9.97c0.13-2.16-0.63-4.67 0.89-6.46 0.18 2.08 1.58 5.2-0.89 6.46zm1.81 12.75c-1.32-2.45 0.39-5 1.27-7.28-0.1 2.47-0.48 4.92-1.27 7.28zm1.41-18.03c-0.79-1.18-1.54-2.34-2.33-3.47-0.12-0.61-0.36-1.83-0.47-2.44 0.51 1.13 1.04 2.28 1.57 3.44 0.25-1.14 0.75-3.41 1-4.55 1.67 2.04 0.62 4.71 0.23 7.02zm-1.36-7.16c-0.08-1.84-0.18-3.66-0.26-5.48 0.32-0.03 0.95-0.09 1.27-0.12 0.37 1.82 0.73 3.63 1.05 5.5l-2.06 0.1zm12.99 28.34c-0.9-1.59-0.85-3.38-0.39-5.08 0.49 0.17 1.46 0.51 1.95 0.68-0.49 1.45-0.95 2.96-1.56 4.4zm4.57-3.91c-1.06-2.07-2.34-4-3.59-5.93 1.17-0.71 2.35-1.39 3.54-2.06-0.01 2.64 0.78 5.37 0.05 7.99zm1.84-3.65c-0.37-0.96-1.1-2.89-1.47-3.85 1.35-1.52 2.75-3.01 4.31-4.31-0.36 2.87-1.27 5.71-2.84 8.16zm15.22 0.95c-0.01 0.45-0.03 1.35-0.04 1.81-1.03 1.27-2.07 2.57-3.27 3.7-0.59 0.99-1.55 1.61-2.56 2.11 0.47-3.39 2.9-6.09 5.87-7.62zm-1.21 7.39c0.62-3.14 3.88-3.81 4.35-7.02 0.78 1.65 0.57 3.68-0.17 5.34-0.5-0.02-1.49-0.06-1.98-0.08-1.74 1.65-3.34 3.47-5.35 4.83 0.95-1.13 2.05-2.11 3.15-3.07zm0.92 6.4c0.84-0.51 1.7-1 2.57-1.47 0.19-0.85 0.5-1.64 0.92-2.38 0.14 1.47 0.31 2.95 0.49 4.44-1.34-0.2-2.66-0.4-3.98-0.59zm7.7-2.55c-0.49-0.08-1.46-0.24-1.94-0.31-0.15-1.88-0.63-4.04 1.43-5.13 0.46 1.76 0.63 3.6 0.51 5.44zm0.67 5.27c0.47-1.67 1.09-3.28 1.85-4.82 0.04 1.88 0.74 4.48-1.85 4.82zm17.86-13.1c0.59 3.79-3.05 5.89-5.29 8.27 1.11-3.13 2.96-5.93 5.29-8.27zm-4.37 22.2c-0.16-0.76-0.5-2.28-0.66-3.03 0.9-0.83 1.85-1.61 2.91-2.21-0.56 1.81-1.38 3.54-2.25 5.24zm1.72-9.35c0.25 1.42-0.05 2.77-1.23 3.72 0.3-3.56-0.1-7.42 2.97-9.95 0.06 2.22-0.53 4.35-1.74 6.23zm2.85-0.78c1.51-0.87 3.06-1.68 4.59-2.51-1.5 0.36-3 0.75-4.47 1.18 0.3-3.55 0.17-8.36 4.58-9.16-0.82 0.08-2.47 0.25-3.29 0.33 0.36-1.88 0.6-3.78 1.17-5.59 1.81-1.3 3.94-2.06 5.87-3.15 0.44 5-0.51 9.97-0.65 14.98-0.38 1.97 0.14 4.71-2.07 5.76-0.6-0.46-1.79-1.37-2.39-1.82 0.45 3.27-1.97 5.6-4.4 7.28-0.11-2.53 1.62-4.8 1.06-7.3zm0.5 14.53c-1.06-2.31 2.01-2.98 3.27-4.21 1.04-1.19 2.34-2.21 4.04-1.9-1.77 2.72-4.74 4.25-7.31 6.11zm10.59-0.12c-0.09-0.79-0.27-2.38-0.35-3.17-0.48 0.06-1.42 0.18-1.9 0.24-0.02-0.25-0.06-0.77-0.08-1.02l1.81 0.65c-0.1-0.75-0.3-2.24-0.4-2.99 2.24 1.21 4.72 5.37 0.92 6.29zm1.25-14.69c0.91-1.09 1.86-2.15 2.88-3.14-0.01 0.73-0.04 2.18-0.05 2.91-0.39 0.29-1.18 0.87-1.57 1.16l-1.26-0.93zm4.39 7.19c-2.48 1.08-2.45-4.22 0.02-3.32 0.86 1.08 0.85 2.19-0.02 3.32zm23.98-13.18l-0.03 0.12-0.3 0.14c0.09-0.06 0.25-0.2 0.33-0.26zm-3.11-2.79c2.38 0.24 2.91 3.6 0.14 3.63-0.44-1.04-1.59-2.96-0.14-3.63zm-16.61 20.54c0.48 0.04 1.43 0.12 1.91 0.15 0.41 0.46 1.24 1.36 1.65 1.81-0.6-2.09-0.77-4.24-0.4-6.37 0.45-0.34 1.35-1.03 1.81-1.37 0.66-1.83 1.69-3.49 3.22-4.72 0.31 6.48-3.88 12.16-5.18 18.4-2.61-1.82-3.66-4.83-3.01-7.9zm6.79 9.81c-1.58 0.88-2.71-1.83-1.75-2.89 1.5-0.83 2.87 1.8 1.75 2.89zm3.21 2.99c-1.37-2.7-2.07-5.69-3.76-8.21 0.77-2.02 1.61-4.02 2.53-5.96 1.08 1.69 3.89 3.49 2.62 5.77-0.49 0.22-1.45 0.64-1.94 0.85 0.81 1.33 1.38 2.78 1.55 4.37-0.25 0.79-0.75 2.38-1 3.18zm2.5-12.07c-1.03-1.7-2.05-3.38-2.91-5.15 0.58-2.45 0.54-5.27 2.33-7.21 1 4.02 1.72 8.27 0.58 12.36zm-1.46-15.12c0.06-0.73 0.19-2.2 0.26-2.94 0.56-0.51 1.7-1.53 2.26-2.03 1.63 2.32 2.55 5.05 3.43 7.75-0.81 1.39-1.59 2.8-2.35 4.23-0.65-2.59-0.54-6.02-3.6-7.01zm7.49 16.95c-1.21-2.1-2.33-4.24-3.42-6.38 0.27-0.06 0.82-0.19 1.1-0.25-0.71-2.35 0.49-4.44 1.59-6.4 1.54 1.54 1.55 3.76 1.68 5.8-0.42 0.13-1.28 0.39-1.71 0.53 1.53 1.98 1.71 4.33 0.76 6.7zm6.81-28.16c1.44 2.87 1.59 6.17 2.66 9.18-0.42 1.6-0.69 3.26-1.03 4.9-0.31-0.12-0.94-0.36-1.26-0.48l-0.98 2.35c-0.07-5.33-0.08-10.66 0.61-15.95zm3.41 29.2c-1.66-2.44-2.53-5.71-1.3-8.49 0.26-0.06 0.79-0.18 1.05-0.25 0.57 2.87 0.22 5.82 0.25 8.74zm15.15 2.65c-0.43-0.68-1.3-2.03-1.74-2.71-0.59-2.26 1.33-6.2-2.38-5.88 0.98-0.32 1.93-0.71 2.92-1.05l0.92-0.48c0.34-0.18 1.02-0.56 1.36-0.75-0.53 3.63 0.97 7.5-1.08 10.87zm4.44-0.21c-0.77-3.55-1.63-7.08-2.1-10.67 1.1-0.08 3.29-0.24 4.39-0.32-0.22 1.45-0.43 2.91-0.65 4.39-0.43 2.22-0.98 4.42-1.64 6.6zm2.47 4.65c-0.73-2.26-0.52-4.67 0.06-6.9l0.55 0.24c0.25 2.18 0.86 4.74-0.61 6.66zm2.82-1.76c-0.41-3.46-0.91-6.95-0.34-10.41l-0.98-0.94c-0.14-2.26 2.02-1.84 3.09-0.5 1.38-0.08 2.77-0.15 4.18-0.2-0.18 0.99-0.53 2.98-0.7 3.97-1.45 2.87-3.06 5.69-5.25 8.08zm8.87-5.34c-0.38 1.73-0.91 3.42-1.47 5.12-1.63-1.93-0.73-4.23 1.47-5.12zm-0.4 15.82c-0.01-0.38-0.02-1.16-0.03-1.55 1.43-1.67-1.27-4.62 1.94-4.88-0.02 2.37 1.26 5.6-1.91 6.43zm14.16-9.62c1.08-1.06 2.17-2.11 3.26-3.16 0.54 1.01 0.96 2.02 1.46 3.1-1.59 0-3.16 0.02-4.72 0.06zm-2.16-6.38c1.32-0.63 2.64-1.25 3.98-1.84-0.08 0.96-0.26 1.91-0.43 2.89-1.02 1.13-2.14 2.19-3.27 3.23-0.12-1.45-0.21-2.87-0.28-4.28zm8.6 3.58c-0.34-1.73-0.78-3.46-1.06-5.16 0.43-1.25 0.9-2.44 1.36-3.65 0.34-0.06 1.02-0.17 1.36-0.23-0.07 0.34-0.19 1.03-0.25 1.37-0.52 2.54-0.98 5.09-1.41 7.67zm20.53-14.1c0.56 4.08 1.17 8.61-1.41 12.19-0.68 0.09-2.03 0.28-2.71 0.37 0.02-0.55 0.07-1.65 0.09-2.2l-1.23-0.01c-0.01-3.21 0.68-6.4 2.4-9.13 0.35-1.3 1.74-1.41 2.86-1.22zm3.56 25.57c0.38 0.76 1.14 2.29 1.52 3.05-0.42 0.52-1.26 1.58-1.69 2.1 0.62 0.28 1.84 0.85 2.45 1.13-0.81 1.57-1.62 3.17-2.78 4.54-0.68-0.39-2.04-1.18-2.72-1.58 1.11-3.07 2.13-6.17 3.22-9.24zm37.93-1.04c-0.31-0.45-0.92-1.34-1.22-1.78 0.31-0.58 0.93-1.74 1.25-2.33 1.66 0.27 1.39 3.61-0.03 4.11zm3.55-25.59c-0.88 4.32 0.55 8.79-0.78 13.06-0.02 3.22-0.63 6.43-3.46 8.44 0.57-3.09 1.59-6.06 2.47-9.06-3.53 3.33-5.38 7.98-5.52 12.79-0.27-0.87-0.53-1.73-0.78-2.56-0.71-0.59-1.41-1.16-2.08-1.74-0.64-2.44-2.37-5.02-1.27-7.56 1.46-4.37 4.26-8.14 5.68-12.53 2.09-6.12 4.55-12.1 6.43-18.28 0.25 0.32 0.74 0.95 0.98 1.26-1.77 5.23-0.78 10.81-1.67 16.18zm314.69-388.35c-0.18 2.44-1.26 4.64-2.85 6.47-0.02-2.42 0.78-5.04 2.85-6.47zm-60.54 14.05l-1.4 0.08c-0.35-0.7-1.06-2.1-1.41-2.8-1.33-2.55-2.69-5.08-4.17-7.53 6.25 0.02 12.57 0.46 18.74-0.92 3.44-0.93 6.47 1.58 9.73 2.31 0.18 0.51 0.55 1.53 0.73 2.05 4.56 1.42 8.78 3.69 12.89 6.08-1.89 1.62-4.38 2.32-6.83 2.29-4.29 0-8.58-0.13-12.86-0.35-5.22-0.14-10.2-2.88-15.42-1.21zm-3.81 90.6c3.04 0.18 5.51 2.64 8.46 3.5 0.03 0.7 0.1 2.1 0.13 2.8 0.59 0.3 1.23 0.65 1.86 1-0.12-0.46-0.37-1.38-0.5-1.84 2.68-0.87 5.65 1.15 7.8 2.67 6.13 2.06 11.92 5.06 17.82 7.72-1.29 2.82-4.41-0.38-6.42-0.63-2.06-1-4.17-1.91-6.36-2.52-0.5-0.36-1.5-1.09-2-1.46l-1.37 0.07c5.22 1.86-1.08 2.79-2.62 1.41l-0.79-0.35c0.01 0.43 0.02 1.27 0.03 1.7l1.39-0.38c0.12 0.46 0.35 1.38 0.47 1.84-1.49-0.91-3.02-1.72-4.47-2.62 0.47-0.25 1.41-0.75 1.88-1.01-8.37-4.11-17.34-7-25.31-11.88 2.42 0.32 4.8 0.77 7.22 1.18 0.24-0.55 0.7-1.64 0.94-2.19l0.32 3.32c1.5 0.65 2.99 1.33 4.51 2.01-1.04-1.2-5.15-2.75-2.99-4.34zm73.92 32.18c2.46 1.56 5.29 2.42 8.1 3.17-0.22 0.54-0.65 1.6-0.86 2.13-5.37-1.95-10.55-4.43-15.84-6.56-9.83-4.57-20.21-8.17-29.69-13.34l0.14-1.67c11.83 5.34 23.91 10.08 35.84 15.21l-0.05 0.91c0.59 0.04 1.77 0.11 2.36 0.15zm-48.82-14.83c4.76 2.03 9.47 4.19 14.12 6.48-0.51 0.02-1.51 0.06-2.02 0.08-6.34-2.37-12.47-5.33-18.44-8.47 2.27-0.13 4.29 1.06 6.34 1.91zm-2.37-4.33c1.7 1.22 3.81 1.77 5.59 2.88l-0.34 0.58-0.49 0.4c-0.47-0.17-1.41-0.49-1.89-0.66-1.3-0.64-4.08-1.28-2.87-3.2zm6.34 3.63c3.02 0.47 5.68 2.35 8.33 3.83-2.87-0.22-5.47-1.56-8.03-2.73-0.08-0.28-0.23-0.83-0.3-1.1zm-37.68 9.35c-2.83-0.54-5.62-1.2-8.38-1.95 3-0.96 6.23-0.54 8.38 1.95zm-6.24-63.3c-0.5 0.16-1.51 0.49-2.01 0.66-0.82 2.94-3.22 4.59-5.97 5.53 0.67-2.9 0.17-6.01 1.41-8.76 4.91-11.84 8.66-24.16 10.94-36.77 2.01 2.99 3.68 6.21 5.09 9.55 0.9 1.78-0.11 3.72-0.6 5.49-2.95 8.1-6.11 16.12-8.86 24.3zm24.94 110.89c1.36 1.28 2.69 2.61 4.01 3.97 0.42 3.67 4.67 4.94 5.7 8.23 0.94 0.54 1.89 1.1 2.86 1.68-0.5 0.83-0.99 1.68-1.45 2.55 0.78 0.02 2.34 0.06 3.13 0.07 3.45 2.83 5.17 7.2 8.35 10.18l0.28 1.48c3.93 2.64 6.66 6.61 9.6 10.25 11.2 11.9 21.68 24.39 32.88 36.27 6.22 7.06 13.14 13.46 19.16 20.7 1.77 2.44 5.39 4.21 4.79 7.7-1.15-0.2-2.12-0.7-2.89-1.5-4.63-4.45-9.73-8.46-13.66-13.57-2.1-2.83-4.63-5.27-6.92-7.92-3.37-4.2-8.32-6.78-11.24-11.38-2.11-2.52-4.46-4.82-6.87-7.02-2.01-1.82-3.84-3.81-5.49-5.93-1.45-1.75-3.01-3.39-4.65-4.94-2.08-1.87-3.91-3.97-5.76-6.05-1.49-1.63-3.03-3.21-4.54-4.81-1.78-1.86-3.48-3.78-5.12-5.74-2.03-2.44-4.09-4.84-6.3-7.1-2.87-3.15-5.77-6.25-8.61-9.4-1.16-1.04-1.6-2.49-1.54-3.98-0.6-0.09-1.79-0.29-2.39-0.38 0.11-0.75 0.32-2.25 0.43-2.99-3.03 1.61-3.31-1.23-3.05-3.45-2.43 0.16-4.23-1.63-4.8-3.86-2.95-3.07-6.56-5.94-7.25-10.41-0.41 0.01-1.24 0.03-1.65 0.04-1.9-1.72-3.35-3.83-4.76-5.93-1.61-1.47-3.57-3.08-2.85-5.52l-0.16-0.13-0.26 1.84c-1.01-1.37-2.55-2.47-2.93-4.17 0.57-0.87 1.18-1.7 1.83-2.51-0.91 0.82-1.85 1.61-2.75 2.43-1.22-2.4-2.52-4.78-4.24-6.85-1.34-3.16-4.46-4.93-6.24-7.76-1.37-2.16 0.32-5.37 3.08-4.88-0.08 0.5-0.26 1.51-0.35 2.01 2.16 0.77 3.56 2.68 5.14 4.25 1.93 2.06 4.31 3.83 5.32 6.59 5.09 3.92 8.35 9.53 12.42 14.4 1.55 2.72 5.24 4.66 4.35 8.22 2.69 0.65 4.63 2.67 5.39 5.32zm-74.89-12.05c0.36-1.92 1.13-3.72 1.77-5.55 2.21 1.46 4.29 3.12 6.48 4.65-0.91 2.51-1.65 5.11-2.9 7.5-0.84 0.88-2.21-0.36-3.21-0.34 0.07-2.36-1.42-4.18-2.14-6.26zm-31.57-46.59c-6.04-9.85-10.64-20.81-11.82-32.38-1.04-12.01 0.83-24.94 7.68-35.06-1.69 11.14-0.41 22.85 4.57 33.03 9.09 19.15 28.44 30.56 47.53 37.84-4.63 11.38-9.29 22.76-14.3 33.99-13.1-10.59-24.54-23.26-33.66-37.42zm26.73-10.5c-10.61-6.67-19.78-16.14-24.6-27.82-3.18-8.23-4.8-17.33-3.36-26.1 0.99-5.26 1.21-11.42 5.64-15.13 13.01-13.74 31.73-20.37 50.17-22.45 8.52-1.13 17.11-1.18 25.69-1.1 1.01 2.15 2.77 4.16 2.93 6.63-0.94 10.89-4.13 21.43-7.71 31.71-1.6 4.25-2.98 8.73-5.98 12.25-1.26 1.41-1.21 3.42-1.91 5.11-0.97 0.7-1.95 1.36-2.96 1.99 0.7 1 1.42 2.01 2.16 3.03-0.95 2.39-0.84 5.04-1.63 7.46-6.56 11.11-10.65 23.4-15.75 35.2-8.08-2.32-15.61-6.31-22.69-10.78zm36.36-109.69c1.56 2.76 2.79 5.71 2.16 8.96 1.34 0.97 2.63 2.05 4.07 2.93 2.76 0.58 4.47-2.16 6.73-3.24 0.86 1.85 1.71 3.71 2.49 5.62-19.83 0.05-40.46 1.85-58.27 11.28-5.34 2.68-10.07 6.36-14.77 10.01 4.27-9 11.67-16.19 19.4-22.29 10.72-8.78 24.75-11.74 38.19-13.27zm-1.78 94.62c1.51-3.61 3.99-6.73 5.31-10.42 1.89-0.8 4.07 0.11 3.46 2.4-4.24 12.24-9.5 24.09-13.92 36.26-2.01-0.48-3.96-1.16-5.87-1.88 3.7-8.77 7.08-17.69 11.02-26.36zm22.07 104.83c-3.34-0.82-5.95-3.16-8.86-4.83-4.69-2.99-9.71-5.44-14.34-8.51-0.37-1.99-1.13-3.94-1.05-5.97 8.57 5.73 17.83 11.07 24.25 19.31zm45.86-196.4c-0.54-0.26-1.61-0.78-2.15-1.04 0.28-0.05 0.84-0.15 1.12-0.2-0.18-0.77-0.53-2.31-0.71-3.08 5.57-2.11 10.93-4.73 16.6-6.6-0.92 2.87-0.89 7.19-4.54 8.07-3.55 0.64-7.1-0.5-10.63-0.59-0.19 1.14-0.64 2.42 0.31 3.44zm-42.7-15.94c0.22 0.69 0.64 2.07 0.85 2.76-3.63-0.36-7.49-0.1-10.73-2.03 1.8-0.27 3.63-0.48 5.48-0.63 1.46-0.05 2.91-0.04 4.4-0.1zm-17.03-5.12c-0.93 0.8-1.85 1.6-2.76 2.42 2.81-0.4 5.01 1.4 7.21 2.85-1.88 0.42-3.72 0.92-5.54 1.47 0.75-0.48 2.27-1.43 3.03-1.9l-0.82-1.31c-4.9-0.34-9.8-0.78-14.59-1.87-5.18-1.07-8.41-5.75-11.78-9.4 9.11-1.53 18.2 2.14 25.25 7.74zm-50.93-1.88c-2.03 0.86-4.06 1.71-6.11 2.48-0.29-3.51 3.97-2.15 6.11-2.48zm1.4 186.31c-9.75-4.3-19.47-8.79-28.65-14.22-15.11-9.66-28.09-24.43-31.35-42.51-3.21-22.45 2.82-45.61 14.7-64.73 7.99-13.99 21.9-22.83 33.56-33.42 3-2.85 5.79-6.43 5.9-10.76 0.95-5.1-4.87-8.01-5.44-12.68 4.98-2.35 9.9-4.83 14.8-7.35 2.8 0.83 5.78 1.21 8.44 2.51 4.03 3.66 7.59 8 12.53 10.53 2.93 1.86 6.49 2.38 9.4 4.27-9.13 2.15-18.63 4.22-26.45 9.68-12.1 8.06-22.71 19.16-27.98 32.9-1.74 4.82-5.53 8.49-7.6 13.16-9.6 17.9-8.3 40.1 0.53 58.03 9.24 18.81 23.62 34.68 39.58 48.06 1.01 1.96-1.13 4.08-1.54 6.09-3.5-0.19-7 0.29-10.43 0.44zm9.42 16.8c3.22 0.15-1.3 3.25 0 0zm-28.2 20.33c7-6.09 13.43-12.81 20.2-19.15 2.12-0.46 4.2-1.06 6.32-1.58 0.77 1.89 1.53 3.75 1.86 5.81 0.44-0.84 0.89-1.67 1.35-2.5l1.68 0.57c-0.42-1.08-1.26-3.23-1.68-4.31 1.45-0.85 2.84-0.09 3.9 1.01-0.61 1.47-1.13 3-1.64 4.51l-1.46-1.43c-0.44 1.38-1.03 2.73-1.67 4.05-1.66 0.9-3.2 2-4.5 3.38-1.76 0.77-3.36 1.85-5.11 2.65-3.47 3.7-8.28 5.8-11.76 9.54-0.73 0.57-1.44 1.16-2.13 1.77-3.72 3.48-6.45 7.79-9.62 11.72 1.02-1.51 2.02-3.06 2.5-4.83-2.69-0.45-5.37-0.92-7.97-1.71 3.31-3.1 6.52-6.3 9.73-9.5zm8.89 10.61c1.87-1.84 3-4.22 4.35-6.43 1.76-2.25 4.17-3.87 6.34-5.7 3.22-2.68 7.45-3.43 11.31-4.79 1.75-1 2.67 0.11 1.54 1.52-4.37 4.45-10.1 7.21-14.45 11.69-4.18 3.17-8.36 6.38-12.66 9.4 0.82-2.11 1.96-4.09 3.57-5.69zm-26.21 83.16c4.8-11.72 8.09-24.21 15.44-34.69-0.63-0.43-1.24-0.84-1.83-1.24 0.88-1.91 1.72-3.82 2.73-5.66-0.52 1.3-1.05 2.59-1.59 3.9 0.56 0.56 1.14 1.15 1.73 1.74 0.82-1.59 1.85-3.03 2.86-4.5 3.42 2.57 6.74 5.35 9.57 8.59 3.27 6.95-0.7 14.16-1.91 21.12-0.43 3.34-2.72 7-0.56 10.19 1.06-7.63 3.14-15.09 5.12-22.53 2.72 1.86 5.92 3.15 8.27 5.53-0.15 3.19-2.61 5.5-4.3 7.99-3.36 4.29-6.28 8.93-9.86 13.06 0.13-0.89 0.38-2.68 0.51-3.57-0.71-0.18-1.72-0.41-1.79 0.63-0.77 2.76-0.59 5.96-2.44 8.33-8.24 10.84-16.39 21.75-24.43 32.74-2.06 0.02-2.88 1.13-2.32 3.26l-1.38 0.06c0.38-1.62 1.34-2.92 2.23-4.27-0.46-2.35-1.23-4.72-0.81-7.11 1.39-11.22 2.94-22.43 4.76-33.57zm33.38 88.39c-1.1-0.17-2.19-0.33-3.27-0.47-0.05-1.67-0.09-3.33-0.13-4.98 0.78 0.02 2.34 0.07 3.11 0.09l-3.12-2c1.58-0.13 3.24-0.06 4.86 0.07 0.19 1.68 0.41 3.36 0.65 5.06-0.63-0.08-1.88-0.26-2.51-0.35 0.11 0.65 0.31 1.94 0.41 2.58zm3.37-8.62c-1.41-2.4-2.61-4.9-3.64-7.47 2.31-0.77 4.64-1.49 7.02-2.04-0.73 3.29-1.41 6.68-3.38 9.51zm-2.07-0.87c-0.83 0-2.48 0.02-3.31 0.03h-0.54c0.28-1.57 0.6-3.14 1.06-4.65 1.28 1.3 2.21 2.84 2.79 4.62zm-6.24-47.12c1.04-1.66 2.12-3.4 3.89-4.38-0.63 1.96-1.28 4.53-3.89 4.38zm6.79 57.96c-0.08 1.28-0.15 2.58-0.22 3.9-0.34 0.63-1.02 1.9-1.36 2.53-1.5-1.6-3.25-3.11-3.92-5.26 1.6-1.2 3.56-1.29 5.5-1.17zm2.21 16.34l-1.59 0.13c0.07-2.02 0.23-4.03 0.44-6.02 0.54-0.04 1.63-0.12 2.17-0.17v0.24c-0.14 1.93 0.3 4.17-1.02 5.82zm8.75-25.1c-1.14-0.15-3.4-0.45-4.53-0.6 0.29-3.77 0.91-7.49 1.47-11.2 1.24-0.32 2.51-0.59 3.79-0.82-0.12 4.21-0.44 8.42-0.73 12.62zm0.9-7.99c0.71 0.67 2.13 2 2.84 2.67 0.58 1.99 1.26 3.95 1.99 5.92-1.06 0.02-3.2 0.05-4.26 0.07 0.33 0.61 0.99 1.81 1.32 2.42-0.22 0.11-0.68 0.33-0.91 0.44-0.82-3.79-1.48-7.64-0.98-11.52zm5.01 4.03c-0.65-1.11-1.28-2.22-1.88-3.31-0.71-2.15-1.52-4.24-2.38-6.31 1.83-0.31 3.66-0.65 5.49-0.99-0.07 2.02 0.01 4.09-0.26 6.13-0.35 1.47-0.67 2.97-0.97 4.48zm-4.98-10.86c-0.68-0.79-1.34-1.57-1.98-2.33-0.34-0.88-0.68-1.74-1.02-2.58 0.05 1.09 0.11 2.2 0.2 3.33 0.45 0.49 1.35 1.47 1.8 1.97-1.09 0.23-3.26 0.7-4.35 0.94 0.07-0.81 0.19-2.41 0.26-3.21-0.99 0.89-0.9 2.21-1.04 3.45-2.14 1.35-4.61 1.97-7.05 2.46 0.63-1.38 1.12-2.91 2.34-3.9 8.02-6.59 15.22-14.1 23.21-20.75 0.45 5.58 0.89 11.16 0.73 16.77-2.06 0.64-4.13 1.26-6.19 1.89-0.11-0.4-0.35-1.2-0.47-1.6-0.64 2.96-4.17 2.71-6.44 3.56zm-9.56-3.47c4.75-10.32 9.94-20.47 14.24-31 1.27-3.08 2.27-6.28 3.89-9.2 1.72 6.94 2.9 14.02 3.54 21.14-7.45 6.09-14.01 13.24-21.67 19.06zm-1.64-44.15c-1.79 5.13-6.34 8.48-9.25 12.91-1.72 2.98-5.22 3.8-8.15 5.08 1.26-7.31 2.97-14.52 4.51-21.76-0.48-0.74-0.95-1.46-1.41-2.16-1.4 8.48-2.76 17.09-5.59 25.24-6.38 3.08-12.72 6.26-19.13 9.26-0.31-2.9 1.97-4.78 3.47-6.93 7.09-9.41 14.23-18.79 21.08-28.39 0.72 0.3 1.46 0.61 2.21 0.93-0.57-4.45 2.94-7.54 5.26-10.81 4.02-5.12 7.48-10.72 11.81-15.57 2.57 0.17 3.22 3.98 4.26 6.03-2.59 8.86-5.81 17.54-9.07 26.17zm-13.89 18.23c-1.14 1.94-2.51 3.82-4.42 5.07-0.32-2.92 1.9-4.44 4.42-5.07zm-24.58-29.18c-1.09 6.84-2.17 13.69-2.86 20.59l-1.24-0.06c-0.37-2.59-0.91-5.14-1.53-7.66 1.85-4.31 3.24-8.83 5.63-12.87zm-4.13 30.97c-0.33 3.27-0.66 6.55-0.79 9.85-3.02 3.3-7.43 4.53-11.14 6.8-1.53-1.47-3.02-2.95-4.57-4.36 4.54-9.42 9.52-18.76 14.12-28.2 0.87 5.27 3.35 10.48 2.38 15.91zm-31.58-2.8c-2.44-2.58-5.14-4.87-7.79-7.22 0.45-8.81 1.62-17.57 2.29-26.37l1.26 0.88c2.9 8.44 5.54 16.97 8.34 25.45-1.34 2.43-2.72 4.84-4.1 7.26zm-11.4 74.43c-0.84-0.05-2.5-0.14-3.33-0.19 0.09-2.77 0.15-5.54 0.13-8.29 1.21-0.38 2.44-0.72 3.68-1.03 0.74 1.66 2.86 3.68 1.47 5.56-1.4 0.46-2.18-0.86-2.96-1.71 0.86 1.73 0.65 3.75 1.01 5.66zm2.48-57.69c-0.17-3.13-0.1-6.27 0.25-9.37 0.75 1.72 1.56 3.46 1.88 5.35-0.61 1.38-1.37 2.7-2.13 4.02zm2.89-5.95c-1.65-5.29-3.71-10.81-1.67-16.33 2.38 2.04 4.59 4.29 7.02 6.3-1.4 3.52-3.13 6.94-5.35 10.03zm13.4 29.63l-0.38 0.06c0.56-1.47 1.06-2.96 1.56-4.43-2.35-0.65-4.04-3.97-2.11-5.89 2.25-3.05 6.08-4.32 9.32-6.05 0.47 1.58 1.05 3.14 1.55 4.75-2.89 4.21-6.45 7.88-9.94 11.56zm1.54-14.51c1.55-2.2 1.89-5.84 4.48-7.08 0.54 1.25 0.96 2.57 1.27 3.94-1.91 1.05-3.82 2.13-5.75 3.14zm19.99 4.94c-1.27-2.58-2.76-5.03-4.67-7.15 1.89-3.02 3.95-5.96 6.47-8.49-0.99 5.16 0.68 10.85-1.8 15.64zm-11.38-3.99c0-1.37 0.03-2.73 0.08-4.08 3.14-1.03 5.53-3.4 8.43-4.9-2.85 2.95-4.45 7.54-8.51 8.98zm-2.34 12.1l-0.07-0.04c-0.62-0.31-1.87-0.95-2.5-1.27 1.96-2.42 3.38-5.63 6.44-6.83 0.18 2.78 1.35 5.36 2.02 8.05-1.97 0.07-3.95 0.27-5.89 0.09zm2.47-17.82c-1.17 0.83-3.02-1-1.95-2.08 1.2-0.99 3.23 0.95 1.95 2.08zm4.24 15.98c0.19-0.52 0.56-1.56 0.75-2.08l-1.79 0.16c0.19-0.43 0.58-1.29 0.77-1.72-2.2 0-1.23-2.53-1.49-3.82-0.16-2.03 1.7-3.35 2.73-4.86 1.01 1.47 2.1 2.95 2.84 4.62 1.06 2.82 1.68 5.8 1.69 8.83-1.87-0.3-3.68-0.74-5.5-1.13zm5.65-100.98c-1.11 3.6-2.27 7.27-4.32 10.48 0.31-2.1 0.71-4.2 1.12-6.26-1.73 0.42-2.39 1.66-1.99 3.71l-1.29-0.77c-1.02-4.3-1.69-8.67-2.96-12.9 0.85-0.35 1.74-0.67 2.64-0.95-1.63 2.3 1.66 3.45 2.99 4.63-0.07 2.09-0.39 4.13-0.58 6.25 1.42-1.14 2.1-2.72 2.03-4.73 0.59 0.13 1.77 0.4 2.36 0.54zm-2.51-21.36c-0.87 2.61-2.48 4.83-4.4 6.77-2.32 2.21-0.91 5.81-2.64 8.35-0.82-4.21-1.56-8.42-1.47-12.71 2.7-1.22 5.59-1.92 8.51-2.41zm-11.17 3.26c2.85 9.46 4.25 19.27 6.72 28.83 1.91 5.71-1.55 11.15-3.41 16.37-3.95 9.22-7.35 18.77-12.39 27.48-2.99-8.69-5.71-17.46-8.76-26.12-1.46-3.85-0.44-8.01-0.09-11.95 0.63-8.6 1.29-17.2 2.17-25.77 4.16-4.41 10.28-6.48 15.76-8.84zm-17.22 9.35c-0.53 9.84-1.43 19.66-2.34 29.48-2.09-0.54-1.65-2.78-2.29-4.27-1.49-6.04-4.45-11.73-4.88-17.99 3.07-2.53 5.96-5.34 9.51-7.22zm-24.96 24.35c3.26 9.26 6.91 18.38 10.13 27.66 0.3 1.1 0.89 3.31 1.19 4.41-3.01-2.83-5.86-5.81-8.93-8.56-3.85-3.57-7.7-7.18-11.07-11.21 2.71-4.22 5.1-8.73 8.68-12.3zm-27.04 53.26c6.75 4.65 13.83 8.88 20.14 14.13 0.52-0.46 1.05-0.91 1.59-1.34-6.21-3-11.35-7.75-17.23-11.3-1.4-1.31-4.97-2.2-3.59-4.71 1.66-4.4 2.7-9.21 5.29-13.14 2.77 2.76 4 6.78 6.22 10.02 3.62 6.59 7.41 13.08 10.92 19.74 0.11-0.55 0.32-1.63 0.42-2.17-5.44-9.5-10.72-19.09-16.19-28.56-1.08-3.35 1.76-6.33 2.83-9.33 2.3 1.14 4.02 5.08 6.96 3.53 1.09-3.03-1.88-6.66-4.28-8.51 1.33-2.67 2.8-5.26 4.22-7.88 3.96 2.84 7.07 6.68 10.68 9.94 3.2 3.27 6.47 6.46 9.87 9.54 3.36 2.94 3.65 7.72 5.47 11.57 0.19-0.01 0.57-0.05 0.76-0.06 0.24-1.84-0.66-3.55-1.1-5.25 0.6-0.51 1.21-0.99 1.83-1.46-3.37-2.27-4.81-6.05-6.14-9.68-3.5-9.91-7.21-19.74-10.9-29.58 4-5 7.93-10.4 13.32-13.98 2.5 8.43 5.72 16.66 7.97 25.15-0.38 7.99-1.71 15.92-2.27 23.92-0.31 1.69 0.09 3.89-1.46 5.11 0.7 2.07 0.69 4.26 0.47 6.44-0.34 0.16-1.03 0.5-1.38 0.67-0.3 1.56 0.67 3.18 1.08 4.71-0.61 5.42-0.46 10.87-0.53 16.32 0.17 1.66-1.51 2.57-2.37 3.74 0.22 0.78 0.66 2.34 0.88 3.12-1.16 1.38-2.31 2.78-3.42 4.21-3.21-0.69-5.55-3.13-8.26-4.77-2.66-1.89-6.04-3.45-6.65-7.04-0.91 0.84-1.8 1.69-2.69 2.54 3.53 0.96 4.96 4.47 6.38 7.47-2.15-0.44-4.27-0.94-6.4-1.37-0.07-0.45-0.22-1.34-0.3-1.79-0.03 0.53-0.09 1.59-0.13 2.12-8.96-1.14-17.91-2.3-26.83-3.74 1.08-6.24 2.75-12.36 4.82-18.33zm39.19 58.05c-1.67 0.24-3.39 0.21-4.96 0.85-2.73 0.3-5.39 0.95-8 1.76 1.75-5.96 8.91-4.27 13.57-5.68-0.15 0.77-0.46 2.3-0.61 3.07zm-9.28-3.08c2.19-3.22 3.74-7.18 6.96-9.49 1.17 2.34 3.13 4.51 2.95 7.31-2.82 1.8-6.66 1.47-9.91 2.18zm2.92-25.36c0.57 0.16 1.7 0.47 2.27 0.63-0.97-1.7-1.94-3.39-2.91-5.05 2.09 0.07 4.18 0.4 6.25 0.85-1.18 1.93-2.38 3.87-2.99 6.08l-2.01-0.24c1.16 1.19 2.25 2.63 2.45 4.38l-1.72 0.12c-0.31-2-0.76-3.94-1.86-5.63-0.85 0.12-2.54 0.35-3.38 0.47-0.28-2.85-3.28-4.19-3.86-6.93 1.08 0.07 3.24 0.21 4.32 0.28 1.83 1.02 2.66 3.18 3.44 5.04zm-3.22-8.63c1.42-0.48 3.08 0.84 3.85 2.01-0.93 1.8-4.55-0.16-3.85-2.01zm-34.84-1.1c9.89 1.46 19.89 2.23 29.68 4.32 0.67 1.79 1.69 3.46 3.1 4.81 1.94 2.62 0.18 5.53-0.49 8.29-2.63 0.29-5.27 0.56-7.9 0.71-3.33 0.14-6.64 0.36-9.94 0.76-5.83 0.53-11.68 0.81-17.5 1.37 0.49-6.82 1.51-13.6 3.05-20.26zm-4.2 35.53c0.65-0.26 1.96-0.76 2.62-1.02 1.86-0.72 3.76-1.37 5.67-1.99l-2.29-0.26c2.72-2.39 5.8-4.29 8.85-6.22-5.6 1.1-9.66 5.26-14.58 7.78-0.2-4.06 0.07-8.13 0.73-12.13 5.54-0.45 11.1-0.68 16.64-1.18 3.36-0.15 6.73-0.38 10.09-0.77 2.94-0.33 5.9-0.48 8.86-0.76 1.26 3.35 4.74 4.15 7.89 4.75-2.25 4.22-4.97 8.2-7.78 12.06-5.41 0.81-10.76 1.95-16.21 2.37-6.82 1.64-13.75 3.04-20.75 3.59-0.02-2.08 0.06-4.17 0.26-6.22zm30.85 20.55c-2.64 0.77-5.34 1.27-8.03 1.78 2.22-2.98 4.33-6.04 6.53-9.02 1.13 0.67 1.99 1.67 2.91 2.64-0.38 1.45 1.07 4.5-1.41 4.6zm-4.17-13.96c-0.79-0.26-2.37-0.79-3.16-1.06 0.39-2.03 2.66-1.78 4.16-2.29 2.58-0.54 5.24-0.95 7.9-0.68-1.51 1.43-3.05 2.85-4.54 4.31-1.46-0.11-2.92-0.2-4.36-0.28zm-26.86 1.62c7.79-1.31 15.54-3.45 23.47-3.55-0.14 0.87-0.42 2.61-0.56 3.47-5.79 1.92-10.22 6.52-16.12 8.11l-0.14-2.15c-0.14-1.37 0.16-2.91-1.02-3.86-0.65 3.28-1.29 6.73-4.01 8.99-0.86-3.63-1.48-7.3-1.62-11.01zm6.53 28.35c1.35-1.09 2.77-2.1 4.19-3.11-0.66 0.04-1.97 0.12-2.63 0.16l-1.6 0.09c-0.09-1.55-0.17-3.07-0.25-4.59 3.61-1 7.2-2.15 10.92-2.74-2.17 3.78-4.7 7.4-7.71 10.57-0.73-0.1-2.19-0.28-2.92-0.38zm12.05-14.46l-1.32-2.12c-0.11 1.46-0.19 2.93-0.24 4.42-4.46 1.33-8.99 2.39-13.52 3.41-1.26-0.89-1.55-2.01-0.87-3.35 0.88-2.2 2.03-4.28 3.07-6.39 3.39-2.54 7.44-3.95 11.23-5.76 3.03-1.45 6.2-2.71 9.61-2.84l2.05 0.22c-0.76 4.66-4.81 7.7-6.87 11.78-0.79 0.15-2.36 0.47-3.14 0.63zm14.01 8.16c-0.84 2.01-1.13 4.87-3.93 4.86-0.53-2.95-1.4-5.82-2.66-8.52-0.76-0.01-2.29-0.02-3.06-0.03-0.27-0.53-0.53-1.04-0.78-1.53 3.55-1.03 6.9-2.77 10.64-3.09-0.02 1.93-0.02 3.89 0.07 5.85l0.09 1.44-0.37 1.02zm4.72 9.13c-1.14-2.35-2.08-4.82-2.08-7.45 0.55-0.08 1.64-0.26 2.19-0.35 0.23 2.59 0.22 5.2-0.11 7.8zm9.78-14.05c-2.73-1.74-5.59-3.29-8.34-4.98 3.13-1.24 6.37-2.15 9.63-2.98-0.21 2.66 0.17 5.55-1.29 7.96zm-10.43-7.3c-0.84-0.93-1.7-1.82-2.57-2.68 0.11-0.39 0.34-1.18 0.45-1.58l-1.17 0.36c-0.41-1.35-0.81-2.68-1.2-4 1.08-3.37 4.07-4.94 7.42-5.26 2.95-0.18 6.22 0.46 8.79-1.44 1.05 3.99 0.25 8.14 0 12.2-3.83 1.14-7.67 2.6-11.72 2.4zm14.58 0.75c-1.5 1.44-2.42-1.52-1.05-2.24 1.51-1.4 2.18 1.44 1.05 2.24zm3.94-2.96c0.44 1.37 0.89 2.77 1.28 4.2-1.01 1.56-2.57 2.66-4.3 3.3-0.51-2.86 0.52-5.9 3.02-7.5zm6.89-4.2h-1.66c-0.08-1.65-0.13-3.29-0.14-4.9 0.41 0.06 1.22 0.19 1.63 0.26 1.19 1.57 2.89 2.55 4.5 3.67-1.54-0.12-3.07-0.06-4.33 0.97zm22.9-8.59c-1.12-1.63-2.28-3.21-3.42-4.78-0.07-0.35-0.2-1.07-0.26-1.42 1.81-0.23 3.64-0.4 5.48-0.51-0.13 1.01-0.4 3.03-0.53 4.04 0.57-0.24 1.7-0.71 2.27-0.94 1.23 1.4 1.74 3.26 2.86 4.79-0.19 0.21-0.58 0.64-0.78 0.85l-0.64 0.15c-0.68-0.07-2.05-0.22-2.74-0.29 0.23-1.53 0.21-3.02-0.08-4.47l-0.92 0.33c-0.31 0.56-0.93 1.69-1.24 2.25zm12.8-29.03c-0.39-0.41-1.16-1.22-1.54-1.63-0.02-6.17 0.81-12.3 0.78-18.46 0.69-0.1 2.06-0.31 2.74-0.41 0.35 2.58 0.56 5.2 1.17 7.76 0.19 4.12 1.45 8.15 1.36 12.3-1.51 0.22-3.03 0.28-4.51 0.44zm5.91 0.14c3.13-5.55 7.08-10.59 10.64-15.87-0.48-0.54-0.95-1.05-1.4-1.56-2.73 4.92-5.83 9.75-9.53 13.98-0.82-6.16-2.24-12.25-2.45-18.47 6.23-2.86 12.23-6.23 18.6-8.78-0.9 4.47-2.13 9.08-5.78 12.17 1.32 0.07 2.64 0.21 3.98 0.42 0.89-2.27 0.86-7.25 4.51-6.2-0.68-2.61 1.58-4.35 2.91-6.23 2.14-2.61 4.04-5.93 7.69-6.52-2.54 6.74-5.87 13.21-9.55 19.41-0.35-1.94-0.71-3.87-1.1-5.77-1.81 2.55-0.23 6.01-0.58 8.93-1.76 0.03-3.51 0.11-5.24 0.23 0.46-1.23 0.92-2.44 1.38-3.64-0.56 0.06-1.67 0.2-2.22 0.26-0.02 2.43-1.06 4.69-1.55 7.05-0.5 0.21-1.5 0.62-2 0.82-0.01 4.9-3.4 8.69-6.66 11.96-0.41-0.55-1.24-1.64-1.65-2.19zm9.3 35.08c-1.66 0.49-2.24-0.05-1.74-1.63 1.66-0.52 2.24 0.03 1.74 1.63zm0.2-2.5c-1.87-0.08-3.76 0.12-5.56-0.3-0.38-1.29-0.34-2.65-0.43-3.93 0.86-0.22 1.74-0.43 2.63-0.62 0.72-0.85 1.52-1.62 2.28-2.43 1.1 2.27 1.11 4.79 1.08 7.28zm8-9.41c1.04 0.49 2.07 1 3.14 1.54-0.13 1.68-0.25 3.38-0.34 5.1-0.18-0.21-0.56-0.64-0.75-0.85-2.03-1.29-2.1-3.65-2.05-5.79zm30.45-3.64c-0.9-1.2-2.3-1.63-3.57-2.17 0.74-0.51 1.57-0.82 2.41-1.17l0.99-0.79c0.87-0.15 1.77-0.27 2.69-0.35 0.01 0.62 0.04 1.86 0.05 2.48-0.85 0.46-1.61 3.11-2.57 2zm10.37-11.27c-0.64 0.15-1.93 0.45-2.58 0.6-0.8-2.66-1.46-5.35-2.08-8.03-0.31-1.67-0.3-3.36-0.37-5.01 2.15-0.8 4.34-1.53 6.55-2.23 0.01 4.92 0.08 9.93-1.52 14.67zm1.24-131.41c-0.75-0.49-1.49-0.97-2.2-1.43 0.84-0.86 1.71-1.7 2.59-2.53 0.84 1.29-0.16 2.64-0.39 3.96zm-9.47-8.98c-1.75-2.36-3.91-4.76-6.97-5.23-1.63-2.89-4.62-4.71-7.83-5.27-0.42-0.94-0.83-1.89-1.19-2.8 3.68-3.21 6.88-7.82 11.99-8.69 3.26 0.97 6.43 2.29 9.77 3.08 0.25 3.22 1.22 6.32 2.49 9.29 0.49 0.23 1.47 0.7 1.96 0.94-3.28 3.05-7.06 5.49-10.22 8.68zm7.03-18.57c0.6 0.07 1.8 0.23 2.39 0.31 0.66 2.61 1.43 5.22 1.47 7.94-1.8-2.48-2.65-5.48-3.86-8.25zm-0.92-53.6c-1.94-1.73-3.93-3.35-5.76-5.15 4.67-11.46 9.37-22.91 14.37-34.23 1.78 0.64 3.6 1.27 5.43 1.82-0.63 3.86-2.49 7.34-3.73 11.02-3.43 8.84-6.28 17.94-10.31 26.54zm38.32 227.13c-0.04-0.77-0.12-2.3-0.16-3.07 1.15 1.47 2.15 3.06 3.24 4.61-0.74 0.74-1.47 1.5-2.18 2.27-0.32-1.28-0.64-2.55-0.9-3.81zm0.19 7.43c0.4 0.15 1.2 0.44 1.61 0.59 0.49-0.91 0.99-1.8 1.49-2.68 0.01 2.11 0.05 4.24 0.12 6.38-1.03 0.79-2.01 1.63-3.05 2.4-2.66 0.19-0.72-3.72-0.67-5.13 0.12-0.39 0.37-1.17 0.5-1.56zm20.05 2.64c-0.79-0.06-2.37-0.17-3.17-0.23-1.19-2.63-1.37-5.48-0.84-8.28l1.08-0.03c1.44 2.63 3.02 5.42 2.93 8.54zm13.28 15.48c0.02-0.47 0.06-1.4 0.08-1.86-0.58 0.37-1.73 1.11-2.3 1.48-0.05-0.58-0.15-1.75-0.2-2.33-0.01-1.19 0-2.36 0.03-3.51-0.73 0.13-2.2 0.4-2.93 0.53-0.27-0.46-0.82-1.39-1.09-1.86-0.1-0.47-0.3-1.42-0.4-1.9 1.15 0.46 2.34 0.95 3.5 1.49l-0.59 1.22c1.48 0.06 3.11 0.2 4.61 0.54l0.98 0.22c-0.31 2.05-0.92 4.05-1.69 5.98zm25.52-17.13c-0.62 0.37-1.86 1.12-2.48 1.49-0.38-0.16-1.14-0.49-1.52-0.65l-2-1.48c-0.09-1.26-0.15-2.49-0.18-3.71 0.05-1.57 0.22-3.12 0.41-4.65 1.29 2.21 2.84 4.26 4.35 6.34 0.48 0.86 0.95 1.75 1.42 2.66zm7.84 5.33c-0.41 0.02-1.23 0.05-1.64 0.06-0.91-1.11-2.22-1.51-3.58-1.48 0.2 1.17 0.45 2.39 0.71 3.59-0.45-0.03-1.35-0.08-1.79-0.11 0.23 1.23 0.5 2.48 0.8 3.73-0.83 0.06-1.65 0.13-2.46 0.21-0.03-1.49 0.1-2.97 1.07-4.17 0-1.25 0.01-2.48 0.04-3.7 0.77 0.08 2.3 0.25 3.07 0.34-0.18-2.49 0.65-4.79 1.85-6.9 0.59 1.02 1.21 2.07 1.76 3.16 0.3 1.73 0.14 3.5 0.17 5.27zm7-17.9c0 2.05-0.04 4.12-0.07 6.2-0.2 0.3-0.59 0.88-0.79 1.17-0.72 0.54-2.16 1.6-2.87 2.13-2.26-2.34-0.1-5.15 0.87-7.48 0.27-0.64 0.54-1.25 0.83-1.85l2.03-0.17zm17.4 15.7l-0.4 1.96c-0.71-1.14-0.7-2.51-0.88-3.75l-0.84 0.02c-0.02-0.65-0.05-1.96-0.07-2.61-0.76-1.39-1.17-3.17-2.85-3.67-0.12-0.34-0.37-1.03-0.5-1.37-0.86-2.43-1.96-4.76-2.99-7.1 0.05-0.84 0.16-2.52 0.22-3.36 2.86 0.24 3.3 3.76 4.58 5.81 1.4 3.27 3.17 6.37 5.14 9.35 1.11 1.47 1.46 3.29 1.57 5.12-0.74-0.1-2.24-0.3-2.98-0.4zm6.07-6.35l-0.44-0.68c-0.27-0.41-0.8-1.23-1.06-1.64-0.91-1.33-1.82-2.6-2.77-3.85-3.21-4.6-7.67-9.1-7.45-15.11-0.53-0.06-1.6-0.18-2.13-0.24-0.63-0.06-1.9-0.2-2.53-0.27 0.43 1.35 0.87 2.7 1.34 4.08-0.6 1.18-1.2 2.36-1.82 3.54-2.34-0.35-2.57-2.74-3.28-4.51-0.92 0.13-1.82 0.29-2.71 0.45-2.04-7.85-4-15.72-5.26-23.73-1.88-11.76-4.84-23.29-7.23-34.94 0.45 8.1 2.84 15.91 4.1 23.89 2.02 11.75 4.66 23.38 7.1 35.05 0.72 2.42-0.6 4.64-1.47 6.82l-0.58 1.93c-0.98-0.38-1.93-0.78-2.85-1.19-0.16-0.29-0.49-0.86-0.65-1.14-0.08-0.83-0.24-2.49-0.32-3.31-1.1 1.09-2.27 2.13-3.19 3.4-0.66 3.05-0.75 6.33-2.51 9.05-0.42 0.02-1.27 0.07-1.69 0.09l-0.54-1.02-1-2c-0.29 0.56-0.89 1.69-1.18 2.26-0.81-0.85-1.6-1.69-2.37-2.5-0.92-1.2-1.76-2.42-2.6-3.62-0.14-0.37-0.41-1.1-0.55-1.47-4.73-3.73-3.45-10.13-4.05-15.38-0.48 2.45-0.74 5.22-3.08 6.68-0.31-2.7-0.64-5.38-1.43-7.97 0 2.72-0.38 5.65 0.93 8.18 1.14 2.29 1.58 4.84 1.29 7.4-2.87 4.05-2.68 9.44-6.09 13.2-0.35 0.48-1.05 1.43-1.4 1.9-1.21-1.05-2.36-2.16-3.49-3.26-1 2.28-2.09 4.54-3.07 6.84-0.36 0.95-0.7 1.91-1 2.89l-2.64-0.16c-1.39-3.45-1.39-7.18-1.52-10.82-0.64-0.45-1.94-1.36-2.59-1.81 0.44-0.46 1.32-1.37 1.76-1.83-2.48-3.35-3.21-7.9-1.11-11.62 1.59-1.66 3.27-3.22 4.89-4.84-1.34-0.94-2.69-1.89-4.01-2.8 0.21-0.35 0.64-1.05 0.85-1.4l0.54-0.88c2.5-3.6 3.92-7.79 6.07-11.59 1.47-2.67 3.07-5.3 3.94-8.24-2.99 2.81-5.01 6.4-7.19 9.82-2.29 3.65-5.72 6.34-8.66 9.44-0.57-0.53-1.72-1.59-2.3-2.12-1.07-3.9-2.82-7.55-4.58-11.17-0.46-0.08-1.38-0.23-1.84-0.31 1.8 5.52 4.37 10.75 6.3 16.23 0.44 2.38 0.08 4.88-1.85 6.54-0.04 0.78-0.1 2.33-0.13 3.11-0.6 0.79-1.28 1.51-1.93 2.26-0.32 0.34-0.95 1.02-1.27 1.37-0.08-1.49-0.13-2.96-0.18-4.4 0.43-1.17 0.87-2.32 1.31-3.46l-1.19-0.73c-0.8-4.57 1.2-9.82-1.82-13.79-0.42 3.86-0.38 7.76-0.9 11.63-0.15 0.75-0.46 2.24-0.61 2.99-1.3-2.67-2-5.56-2.62-8.44-0.02 2.72 0.17 5.43 0.28 8.16 0 0.42-0.02 1.26-0.02 1.68-0.9-0.01-2.69-0.04-3.59-0.05 0.73 3.17 1.57 6.32 2.49 9.46-0.75-0.53-1.48-1.05-2.19-1.55l-2.52-0.2c-0.13-4.41-1.93-8.96 0.01-13.2 0.7-3.99-1.2-7.98-0.07-11.93 1.15-2.99-0.03-6.02-0.48-8.99-0.47-2.99 1.1-6.01 0.08-8.94-2.67-5.12 1.22-11.45-2.93-16.09-0.18-3.62 0.79-7.5-1.08-10.83-1.33-2.56-1.25-5.49-1.09-8.27-1.07-2.41-2.02-4.97-3.94-6.84 3.1-3.66-0.84-7.87-3.13-10.77 0.24-1.24 0.72-2.34 1.13-3.49-2.33-2.16-2.5-6.16-6.23-6.69 0.5-0.76 1.01-1.49 1.55-2.21-1.36-2.93-2.18-6.51-5.16-8.25 0.3-1.69 0.49-3.36-0.88-4.62 3.4-10.06 5.92-20.49 6.52-31.12 0.53-12.2-2.76-24.52-9.44-34.75-1.84-2.32-3.24-5.21-1.35-7.97 1.86-0.7 3.77-1.34 5.74-1.69 6.44 3.6 13.12 6.93 18.87 11.63 3.91 2.35 5.81 6.85 9.69 9.27 1.15-0.39 2.32-0.74 3.51-1.07 0.12-0.49 0.37-1.47 0.5-1.96 27.73 25.87 53.93 53.32 80.5 80.37 14.68 15 29.3 30.04 44.11 44.9 0.89 0.88 1.54 1.98 2.19 3.09-1.9 3.84-3.39 7.86-4.77 11.92-17.86-20.61-36.12-40.91-53.31-62.12-8.23-8.57-15.7-17.84-24.01-26.33-10.96-13.2-22.47-25.92-33.89-38.71-3.95-3.45-7-8.04-11.53-10.73 21.56 21.07 39.94 45.05 60.61 66.94 3.31 4.53 7.75 8.05 11.03 12.62 3.07 3.35 5.63 7.12 8.75 10.44 13.71 16.6 28.23 32.48 42.14 48.9 0.01 0.57 0.04 1.7 0.06 2.26-0.39 2.89 3.32 4.63 2.79 7.46-0.88 3.21-0.58 6.55-0.42 9.84-0.44 0.18-1.32 0.54-1.76 0.73-0.94-2.76-1.68-5.56-2.13-8.42-0.48-0.08-1.45-0.25-1.93-0.34 0.3 2.23 0.62 4.46 0.96 6.71 2.13 2.74 3.75 5.86 4.72 9.22 0.38 1.36 0.81 2.72 1.23 4.11 0.83 3.11 1.61 6.26 1.85 9.49-0.17 1.27-0.11 2.72-0.71 3.92-0.71 0.96-1.42 1.92-2.12 2.89-1.39-0.05-2.75-0.08-4.11-0.12-1.92-3.12-3.08-6.59-2.37-10.27-0.32 0.01-0.95 0.02-1.27 0.02 0.18 3.13 0.29 6.31-0.44 9.4-1.01 2.37-1.98 4.77-2.79 7.23-1.41-0.15-2.8-0.34-4.15-0.56-2.76-4.88-0.42-10.42-0.74-15.61-0.73-0.06-2.2-0.18-2.93-0.24-0.13-0.4-0.37-1.2-0.49-1.6-0.45 2.4-0.8 4.83-0.89 7.29-0.73-1.72-1.57-3.37-2.55-4.92 0.16 2.33 0.24 4.73-0.36 7.02-1.16-0.3-2.29-0.59-3.41-0.86-0.78-1.87-1.82-3.59-2.91-5.25-0.24-3.14-0.52-6.26-0.58-9.39-0.99 4.03-1.39 8.18-0.99 12.33l0.03 0.85c-1.53 0.29-3.03 0.61-4.52 0.93-0.06-0.62-0.18-1.88-0.24-2.51-0.19-1.46-0.34-2.85-0.56-4.28-0.05 0.9-0.15 2.69-0.2 3.59-0.02 2.42 0.08 4.85 0.04 7.3l-0.09 1.42c-0.42 0.23-1.26 0.68-1.68 0.9-0.67-1.71-1.46-3.42-1.36-5.27-0.19 0.48-0.57 1.44-0.76 1.92zm19.8-111.87c0.03-0.64 0.07-1.92 0.09-2.56 2.67 1.02 4.23 3.52 6.12 5.52 2.79 3.32 5.8 6.49 8.44 9.95 0.02 0.67 0.04 2.01 0.05 2.68-1.56-0.93-2.83-2.2-3.77-3.71-2.87-4.66-8.07-7.21-10.93-11.88zm8.11-29.69c-0.73-2.78-0.48-5.7-0.2-8.51 0.99-2.23 1.91-4.48 2.76-6.76 0.85-1.98 1.79-3.92 2.82-5.81 6.03 0.5 12.07-1.9 18.04-0.12-0.94 0.99-1.86 1.99-2.77 3 3.84-0.43 7.75-0.96 11.61-0.27-0.3 0.72-0.89 2.16-1.18 2.88-0.15 2.88 0.33 5.87-0.51 8.68-1.33 2.47-3.25 4.67-3.97 7.43-1.25 5.21-1.28 10.6-1.71 15.93-2.89-0.12-5.77-0.36-8.65-0.44l-1.06-0.05c-0.51-3.07-3.68-4.79-6.58-4.55-0.1-2.49-2.58-3.85-4.01-5.56-1.75-1.76-3.96-3.33-4.59-5.85zm22.95 35.63c-0.07 0.72-0.2 2.16-0.27 2.88-3.27-2.42-6.13-5.42-8.42-8.77 3.43 1 6.67 2.85 8.69 5.89zm-7.73 83.36c0.04-2.38-0.27-4.73-0.59-7.06 1.29-0.57 2.59-1.13 3.93-1.65 0.06 5.45 0.77 10.94 0.07 16.38-0.92 0.88-1.9 1.71-2.86 2.54-0.61-3.37-0.69-6.8-0.55-10.21zm6.42-92.87c1.02 0.11 2.04 0.23 3.09 0.37 0.14 1.11 0.28 2.24 0.42 3.39-1.39-1.04-2.51-2.38-3.51-3.76zm-6.51 28.48c-2.51-1.81-4.13-4.45-5.39-7.2-0.02-0.35-0.06-1.06-0.08-1.41 1.59 3.01 5.42 4.92 5.47 8.61zm15.33 84.15c-0.56 1.46-1.15 2.91-1.7 4.39l-0.55 0.49c-0.2 1.91-0.64 3.79-1.33 5.6l-1.09 0.12 0.16 2.08c-0.52-0.02-1.57-0.05-2.09-0.07 0.02-1.49 0.05-2.96 0.09-4.4 0-1.78-0.04-3.53-0.14-5.27 0.51 0.62 1.05 1.26 1.6 1.9-0.65-1.3-1.31-2.57-1.97-3.83 0.33-1.88 0.72-3.73 1.38-5.5l0.27-0.77 0.43-0.85c0.12-0.42 0.36-1.28 0.48-1.7-0.75 0.14-2.26 0.43-3.02 0.57-0.14-5.58 0.15-11.15 0.9-16.67 0.63 0.17 1.9 0.51 2.53 0.68 2 0.44 3.86 1.35 5.66 2.35l-0.29 0.48c4.14 0.69 2.81 5.44 2.91 8.4-1.39 1.65-0.43 3.92-0.45 5.85l-1.21-0.6c-0.41 1.29-0.87 2.57-1.31 3.86-0.52 0.91-0.94 1.87-1.26 2.89zm7.48-179.95c0.45 2.6-0.57 5.14-0.46 7.74 0.28 4.54-2.64 8.4-4.31 12.42l-0.41-0.17c-1.63-0.69-3.26-1.29-4.89-1.88-0.26-0.41-0.8-1.24-1.07-1.66-3.9-0.96-7.87-1.85-11.9-1.46-2.88 0.06-5.72 0.5-8.59 0.51-0.88-0.96-1.7-1.97-2.51-2.96-2.64-1.24-4.65-5.22-7.94-4.06-3.45 2.6-5.92 6.23-8.31 9.77-1.41 2.2-2.99 4.48-3.03 7.21 1.62 1.51 3.48 2.74 5.42 3.85 0.43 3.47-0.89 7.19 0.49 10.61 2.02 6.36 7.3 10.79 11.95 15.26 0.6 0.02 1.81 0.07 2.41 0.09 1.79 2.41 4.62 4.26 5.32 7.34-1.09-0.52-2.08-1.22-2.98-1.95-0.69 0.17-2.07 0.52-2.76 0.69-7.6-8.26-15.4-16.34-23.45-24.15-4.82-4.57-8.99-9.76-13.77-14.36-12.68-13.22-25.06-26.7-37.65-40-17.96-19.82-35.43-40.08-53.29-59.99-1-0.97-1.5-2.13-1.5-3.47 12.61 3.27 25.38 5.99 37.82 9.9 43.2 17.4 86.02 35.71 129.02 53.6-1.74 5.55-4.3 11.16-3.61 17.12zm-27.73-49.11c0.04-0.39 0.13-1.18 0.17-1.57 3.03 1.27 6.09 2.55 8.91 4.31-3.28 0.17-6.23-1.39-9.08-2.74zm21.2 3.69c-2.6-1.44-6.14-1.67-7.87-4.29 2.61-0.13 4.92 1.31 7.28 2.25 4.23 2 8.75 3.47 12.69 6.07-4.34 0.06-8.08-2.7-12.1-4.03zm18.32-57.69c-0.49 3.66-2.02 7.2-1.64 10.98 0.41 10.02-1.05 20-3.12 29.78-1.04 5.98-1.24 12.06-2.18 18.06-4.81-1.84-9.54-3.89-14.24-5.97-2.55-1.56-5.16-2.98-7.98-3.95-12.23-4.76-24.17-10.17-36.3-15.16-5.59-3.1-12.08-3.8-17.64-6.94-3.12-1.19-6.12-2.64-9.31-3.61-22.26-10.06-44.48-20.26-66.9-29.98-1.59-1.25-4.55-1.75-4.08-4.35 0.38-1.44 1-2.79 1.59-4.14 3.07-0.64 4.58-3.44 6.12-5.86-2.8-4.84-0.24-10.62-2.24-15.72 6.06-18.33 13.57-36.22 19.34-54.62 6.03 0.22 12.03 0.84 18.08 0.86 1.84-0.15 3.38 1.05 5.15 1.44 3.33-0.31 6.62-2.34 9.98-1.27 7.31 2.12 14.71-2.48 22.05-1.18 6.2 3.34 11.74 7.79 17.71 11.52-0.2 1.78-1.02 3.71-0.1 5.43 0.82 1.25 2.35 1.65 3.59 2.43 4.16-3.41 1.96-9.56-0.77-13.18-5.87-5.15-11.99-10.02-18.25-14.68 0.99-1.79 2.3-4.59 4.85-3.45 4.31 1.29 8.35-1.81 10.74-5.14 2.99 0.6 5.98 1.29 8.99 1.89-1.28 2.33-2.29 5.1-0.55 7.55 1.08 3.32 5.03 2.9 7.82 3.06 2.29-0.45 4.04-2.29 6.35-2.81 2.01 1.57 4.43 0.93 6.7 0.42 0.95 3.94 4.97 2.38 7.82 2.49 4.7 1.56 9.66 1.21 14.52 1.78 2.07 6.74 5.51 13.1 6.28 20.19 0.8 6.19 3.09 12.06 4.4 18.16 0.45 5.28-2.3 10.54-0.78 15.77 1.1 4.33 2.83 8.54 5.34 12.26-0.23 9.31-2.41 18.59-1.34 27.94zm41.2 297.75c-0.26-0.32-0.77-0.98-1.03-1.3-0.04-1.24-0.02-2.49 0.04-3.69-0.92 1.22-1.84 2.44-2.73 3.69-0.71-0.06-2.14-0.18-2.86-0.24-0.83-0.74-1.38-1.62-1.97-2.49 3.03-1.19 6.27-1.38 9.5-1.25-0.25 1.76-0.57 3.52-0.95 5.28zm81.67-94.72c1.26 4.84 0.58 9.96 1.36 14.91 1.19 8.64 0.15 17.37 0.98 26.03-2.36-1.53-4.98-0.49-7.52-0.52-2.28-1.8-4.98-2.45-7.79-1.67-5.27-7.7-11.72-14.48-17.72-21.59 6.06-7.02 10.54-16.07 19.33-20.14 2.43 0.59 5.98 0.29 7.23 3 0.82 1.64 2.81-0.05 4.13-0.02zm-11.26 46.8c-1.66 0.47-2.24-0.1-1.73-1.71 1.62-0.48 2.2 0.09 1.73 1.71zm3.18 45.83c-0.24 0.4-0.74 1.2-0.98 1.6-1.06 0.63-2.13 1.2-3.2 1.76 0.19-1.67 0.42-3.32 0.68-4.96 1.38 0.11 2.78 0.26 4.21 0.45l-0.71 1.15zm-10.8-44.37c2.64-1.12 3.54 1.74 1.09 2.72-0.39-0.92-0.75-1.82-1.09-2.72zm-1.38-3.78c1.19-0.46 2.43-0.86 3.67-1.27 0.38 1.14 0.8 2.3 1.21 3.48-1.67-0.71-3.3-1.41-4.88-2.21zm-0.01-62.26c2.64-1.02 5.82-1.7 8.13 0.49 0.65 0.71 1.33 1.44 2.03 2.18 0.15 0.95 0.32 1.9 0.5 2.88-2.06-1.34-3.53-3.2-4.21-5.55-2.17-0.04-4.31-0.03-6.45 0zm-16.9-13.35c5.25-15.9 11.64-31.41 17.29-47.17 2.3 2.2 4.53 4.53 6.37 7.15 0.32 4.98 0.36 10.03 1.57 14.92 1.18 4 3.95 7.3 5.43 11.19 0.92 3.63 1.44 7.36 2.16 11.06-2.45-2.51-5.97-2.72-9.02-3.97-2.7-1.35-5.8-0.94-8.69-0.82-1.53 1.17-2.89 2.82-5.04 2.41-2.77 2.43-5.43 6.74-9.68 5.58 0.28 0.47 0.85 1.4 1.14 1.87-3.38 0.82-3.23 5.15-4.83 7.68 0.23-3.53 1.76-6.78 3.3-9.9zm-8.29 85.55c-0.87-0.67-1.61-1.42-2.24-2.27 0.55-1.91 1.4-3.69 2.15-5.51-2.14 0.15-4.31 0.16-6.36-0.48 0.8-2.13 2.22-3.9 3.71-5.58 1.91 2.58 4.25 5.07 5.08 8.27 0.52 2.2-0.81 4.15-2.34 5.57zm4.81-48.21c0.88-2.14 1.1-4.49 0.22-6.65 0.89-0.54 1.81-1.07 2.74-1.59-0.25-1.61-0.11-3.35-1.24-4.64 0.13-0.83 0.29-1.66 0.47-2.46 1.87-1.55 3.63-3.23 5.3-5.01 0.79 0.44 1.6 0.9 2.43 1.37 0.11 0.68 0.34 2.04 0.45 2.72 1.3 1 2.59-0.43 3.87-0.77 0.56 2.93-1.43 5.35-2.89 7.67-2.59 3.69-5.52 7.14-8.42 10.59-1.01 1.41-2.24-0.58-2.93-1.23zm16.96 30.19c-2.12-2.63-3.87-5.54-5.61-8.41 3.38 2.66 6.43 5.81 8.79 9.44-1.11-0.24-2.47-0.01-3.18-1.03zm21.99 30.82c-4.66-0.05-9.31-0.19-13.95 0.02 0-4.57-0.95-9.04-1.3-13.56 2.03-0.96 3.06-2.94 3.04-5.13 2.58 0.99 4.66-0.52 5.08-3.08 0.67-0.26 2.01-0.76 2.68-1.02 1.62 0.86 3.02 2.34 4.92 2.6 1.29-0.27 2.54-0.68 3.85-1-1.64 7.02-2.42 14.2-4.32 21.17zm35.15 28.06c1.91 0.24 4.88-0.42 5.37 2.16-1.81 0.11-3.61 0.19-5.38 0.28 0-0.61 0.01-1.83 0.01-2.44zm3.26 11.49c-1.65-1.34-1.26-3.55-1.45-5.4 1.25-0.89 2.7-1.35 4.23-1.58-0.66 2.34-0.52 5.51-2.78 6.98zm122.32-117.88c0.87-9.43-0.26-18.98 1.61-28.32 3.38 0.02 6.76 0.05 10.16 0.14 0.01 2.27-1.05 4.28-2.29 6.12-1 1.94-3.43 3.65-2.17 6.09-4.23 4.94-4.95 11.75-5.59 17.97 0.4 4.54-0.16 9.63 2.4 13.66 0.7-0.05 2.09-0.16 2.79-0.21 0.78 2.2 1.92 4.28 2.62 6.53 0.07 2.43-0.88 4.74-1.48 7.07-3.16 1.3-4.47 4.79-4.62 7.98 0.94 5.39 0.58 11.53-2.58 16.18-0.4-1.39-0.82-2.76-1.25-4.1-2.1-7.19-0.31-14.73-0.32-22.06-0.1-9.03 0.82-18.02 0.72-27.05zm-58.06 11.92c1.34 3.02 2.6 6.09 4 9.1 0.08 1.13 0.17 2.28 0.28 3.45l1.1 0.05c-0.01 0.65-0.02 1.96-0.02 2.62 0.94 0.96 1.93 1.93 3.02 2.8 0.02 0.56 0.07 1.68 0.09 2.24-3.59-3-6.61-6.58-10.11-9.67 0.3 0.05 0.91 0.16 1.22 0.21 1.46 0.78 2.77 1.63 4.24 2.53-0.22-2.97-1.99-5.22-4.22-6.96-0.92-0.8-1.83-1.57-2.73-2.32 0.3-1.91 0.91-3.75 3.13-4.05zm16.03 34.84c1.34 7.4 6.19 13.55 8.08 20.8-2.41-1.5-4.5-3.39-6.17-5.65-3.65-4.83-7.27-9.67-11.07-14.36-4.01-4.24-6.47-9.68-7.21-15.45 4.54 3.96 9.01 8 13.43 12.12 0.95 0.86 1.92 1.68 2.94 2.54zm-9.42 7.46c-0.05-1.16-0.14-3.47-0.19-4.62 3.25 3.65 6.37 7.46 8.74 11.78-2.37-1.19-4.68-2.45-6.52-4.35-0.77-0.89-1.46-1.84-2.03-2.81zm-16.54-57.5c0.65-0.1 1.96-0.31 2.61-0.41-0.44 1.15-0.86 2.32-1.29 3.48-0.46-1.03-0.91-2.06-1.32-3.07zm8.35 90.46l-2.02-0.65c-0.35-3.26-1.03-6.52-0.83-9.8l1.75-0.81c0.7 3.71 1.24 7.46 1.1 11.26zm12.9 0.37c-0.22-1.4 0.07-3.24-1.86-3.17-0.23-1.12-0.87-1.83-1.91-2.15-0.93-1.73-1.92-3.52-3.77-4.35 1.08 3.52 4.17 6.06 4.82 9.78-2.45-0.1-4.88-0.23-7.3-0.39-0.96-4.02-1.67-8.1-2.82-12.06 2 0.51 4.09 0.8 6.14 0.21 2.3-0.88 4.07 1.2 6.11 1.88 1.88-0.05 4.44-1.9 6-0.18 1.6 1.2 0.51 3.11-0.02 4.56-0.86 2.14-1.84 4.24-2.82 6.33-0.64-0.11-1.92-0.35-2.57-0.46zm12.44 0.92c-1.51-0.18-3-0.34-4.48-0.48 0.4-0.51 1.18-1.52 1.58-2.03-0.51-0.29-1.54-0.88-2.05-1.18l-0.36-2c0.01-0.64 0.02-1.91 0.03-2.55 2.54 0.73 4.12 2.96 5.96 4.71-0.17 0.88-0.51 2.65-0.68 3.53zm10.28 0.26c-6.27-7.03-13.35-13.26-19.65-20.25-1.73-1.98-4.51-3.39-4.72-6.29l-0.24-2.28c2.29 1.49 4.4 3.25 6.7 4.76 0.24 0.69 0.71 2.08 0.95 2.77 1.24 2.15 3.52 3.44 5.37 5.05 0.88 0.87 1.79 1.75 2.69 2.66 0.96 0.92 1.83 2.02 2.38 3.3 0.17 0.33 0.51 1 0.68 1.34 1.51 1.13 3.12 2.15 4.62 3.34 1.92 1.53 3.39 3.53 4.46 5.75-0.81-0.04-2.43-0.11-3.24-0.15zm0.55-18.14c-0.67 0.82-1.32 1.65-1.94 2.5-1.44-0.56-2.84-1.21-4.09-2.06-2.86-2.04-3.83-5.54-5.33-8.52-1.99-4.35-4.84-8.47-5.25-13.36 4.92 3.21 8.37 8.13 12.99 11.74 3.34 3.24 7.26 5.96 10.12 9.68-2.18 0.02-4.35 0.01-6.5 0.02zm19.84-5.9c-0.91 0.5-1.8 1.03-2.67 1.59-0.53 0.11-1.59 0.34-2.12 0.46-0.66 0.8-1.3 1.61-1.93 2.44-3.21-3.31-6.44-6.59-9.58-9.94-2.73-3.08-5.31-6.41-8.82-8.6-4.52-2.53-8.14-6.3-11.95-9.72l-0.67-2.12c2.39 1.08 4.83 2.18 7.19 3.38-3.54-3.43-6.43-7.67-10.86-10.04 1.19 2.22 2.44 4.42 3.64 6.66l-1.82-0.75c-1.8-0.95-3.38-2.25-4.5-3.94 1.22-1.88 1.72-5.2-1.21-5.73-0.3-0.33-0.89-1-1.19-1.34-2.76-4.5-4.29-9.62-6.82-14.24 2.94-2.47 6.18-4.88 8.13-8.26 1.38-4.19 2.37-10.23-2.05-12.94-3.03 0.21-6.1 0.42-9.05-0.32 0.63-1.19 0.65-2.95 2.06-3.54 3.83-2.09 7.73-4.08 11.47-6.37 8.6 13.17 16.21 26.99 24.4 40.44 6.16 10.44 12.44 20.82 18.47 31.33 1.09 3.69 0.39 7.76-0.12 11.55zm0.52-14.51c-4.67-6.32-8.17-13.44-12.39-20.06-5.38-9.3-11.02-18.43-16.45-27.69-4.19-7.22-8.77-14.25-11.88-22.02 6.14-2.75 12.68-4.74 19.33-5.81 7.38 21.96 13.74 44.29 20.8 66.37 1.19 2.93 0.78 6.13 0.59 9.21zm-0.18-10.99c-3.53-11.37-6.89-22.79-10.53-34.12-2.76-10.4-6.86-20.5-7.94-31.27 6.71-1.17 13.5-1.92 20.32-2.12 1.55 8.73-0.04 17.51 0.2 26.29-0.52 13.04-0.9 26.09-1.26 39.13-0.2 0.52-0.59 1.56-0.79 2.09zm1.58 25.18c-0.14-2.12-0.14-4.21-0.12-6.3 0.48 0.1 1.46 0.3 1.95 0.4-0.45 1.99-0.28 4.35-1.83 5.9zm5.4-0.47c-0.79-0.07-2.37-0.21-3.15-0.29 0.1-0.22 0.31-0.65 0.42-0.87 0.45-0.16 1.35-0.47 1.8-0.63-0.82-3.93 0.06-7.8 0.94-11.68 1.63 0.1 2.72 1.36 4.09 2.14 2.8 0.14 5.63 0.35 8.39 1.04-0.55 2.27-1.09 4.58-1.75 6.84-1.53 0.03-3.04 0.09-4.52 0.17-1.8 1-3.7 1.78-5.63 2.43 2.35 10.02 5.63 19.81 7.96 29.85-3.91-9.3-5.53-19.59-8.55-29zm204.38 26.86c-3.46-0.65-1.54-5.22-1.94-7.66 3.24 0.72 1.46 5.29 1.94 7.66zm42.02 24.05c-0.69-1.46-1.59-2.81-2.79-3.84-0.03-0.52-0.08-1.58-0.11-2.11 1.06-0.21 2.11-0.43 3.21-0.6-0.03 0.68-0.1 2.06-0.14 2.75-0.1 1.25-0.15 2.51-0.17 3.8z"/>
	<path d="m1209.3 1043c0.22 3.31 2.96-1.61 0 0z"/>
	<path d="m588.61 1219.4c0.57-1.46 0.14-1.88-1.28-1.27-0.58 1.44-0.15 1.86 1.28 1.27z"/>
	<path d="m1620.6 1225.4c1.33 1.04 2.68 2.09 4.05 3.15 0.44-0.04 1.34-0.12 1.78-0.16-1.95-1.45-3.81-2.99-5.55-4.65-0.07 0.42-0.21 1.25-0.28 1.66z"/>
	<path d="m785.87 1237.7c-0.77 3.39-1.11 6.86-1.39 10.34 0.48-0.04 1.46-0.11 1.94-0.15-0.18-3.4 0.05-6.83-0.55-10.19z"/>
	<path d="m1023.5 1258.9c-3.15 0.39-5.8 2.23-8.38 3.92 3.05-0.49 6.44-1.28 8.38-3.92z"/>
</svg>
