<?xml version="1.0" encoding="UTF-8"?>
<!DOCTYPE svg  PUBLIC '-//W3C//DTD SVG 1.1//EN'  'http://www.w3.org/Graphics/SVG/1.1/DTD/svg11.dtd'>
<svg enable-background="new 685.194 -31.868 1210.365 1667.791" version="1.1" viewBox="685.194 -31.868 1210.365 1667.791" xml:space="preserve" xmlns="http://www.w3.org/2000/svg">
	<path d="m960.55 1195.6c8.871-5e-3 17.78-0.405 26.623 0.362 8.663 1.216 17.325 2.674 25.768 5.002 2.701 0.674 5.507 0.756 8.246 1.244 2.904 0.646 5.643 1.857 8.421 2.909 4.044 1.551 7.348 4.909 8.723 9.03 0.795 2.203-0.066 4.701-1.534 6.427-1.863 1.72-4.312 2.592-6.569 3.677 1.249 3.036 3.052 6.811 0.97 9.906-2.203 2.641-5.874 3.178-8.958 4.263-0.583 0.205-0.122 9.348-0.123 10.367-4e-3 3.606 2e-3 7.214 0.058 10.82 0.107 6.894 0.347 13.774 0.993 20.642 1.79 18.999 5.04 40.036 15.035 56.62 2.784 4.62 5.585 9.273 8.808 13.621 3.424 4.411 6.476 9.128 10.421 13.117 1.15 1.163 2.109 2.518 3.286 3.673 1.108 1.089 2.289 2.002 3.378 3.138 2.426 2.53 4.91 5.005 7.449 7.422 5.078 4.834 10.374 9.438 15.869 13.792 8.682 6.879 17.579 13.571 26.525 20.105 4.641 3.781 9.43 7.38 14.164 11.052 3.693 3.068 7.38 6.142 11.232 9.013 9.557 7.124 18.648 14.907 26.865 23.554 18.355 19.314 30.524 42.968 30.011 70.15-0.44 23.29-10.019 49.489-28.6 64.476-1.369 1.105-2.797 2.169-4.151 3.308-3.89 3.233-8.679 5.266-13.649 6.115-14.186 2.425-28.962 1.44-43.291 1.458-29.833 0-59.621 0.023-89.456 0.22-29.883 0.2-59.771 0.297-89.646 0.634-30.42 0.344-60.843 0.421-91.265 0.231-10.14-0.063-20.612 0.409-30.697-0.763-4.981-0.241-9.72-1.94-14.355-3.627-21.282-7.748-35.752-29.305-41.446-50.445-3.627-13.465-4.372-27.738-1.365-41.398 2.5-11.358 8.569-21.822 14.734-31.592 6.887-10.914 14.973-21.094 23.912-30.394 18.922-19.687 42.931-33.208 64.573-49.486 17.118-12.874 32.849-27.515 46.157-44.321 2.715-4.138 5.92-7.638 8.407-11.974 2.521-4.395 4.756-8.955 6.69-13.639 10.37-25.126 13.358-54.355 10.274-81.229-0.033-0.289-0.067-0.577-0.101-0.866-3.634-1.244-7.931-2.312-10.012-5.875-2.416-3.238-1.348-7.452-0.674-11.079-3.392-1.309-7.331-2.4-9.441-5.616-1.737-2.531-1.518-5.863-0.488-8.619 1.107-3.622 4.559-5.748 7.649-7.545 4.372-2.088 9.052-3.627 13.879-4.203 12.084-1.441 24.367-3.851 36.701-3.677m28.776 5.068c-1.523 0.411-0.931 2.394-1.238 3.572 5.167 0.477 10.262 1.688 15.462 1.781-0.033-1.238-0.055-2.471-0.077-3.693-4.641-0.959-9.369-2.345-14.147-1.66m-80.467 13.747c0.236 2.153 2.164 3.282 3.983 4.027 0.263-0.323 0.789-0.959 1.057-1.282-0.789-3.249-0.756-6.597-0.789-9.912-2.278 1.682-4.366 4.17-4.251 7.167m122.42 4.465c0.619-1.156 1.66-2.307 1.359-3.704-0.373-2.564-2.438-4.389-4.515-5.682 0.378 3.321 1.874 6.34 3.156 9.386m-86.806 1.754c-4.602 0.668-9.271 0.74-13.851 1.6-4.356 0.657-8.882 1.83-12.213 4.876-1.6 1.342-1.83 3.66-1.359 5.583 0.679 1.414 2.088 2.411 3.578 2.833 1.101 0.121 2.082-0.581 3.085-0.937-0.844-2.175-2.153-4.964-0.564-7.095 2.663-1.94 6.137-2.126 9.287-2.635 5.178-0.471 10.317-1.392 15.528-1.43 5.627-0.701 11.309-0.411 16.964-0.416 4.745 0.077 9.517-0.268 14.24 0.395 10.624 0.329 21.292 1.386 31.615 4.027 2.148 0.646 4.553 1.2 6.137 2.898 0.46 1.781 0.537 3.644 0.756 5.479 2.164-0.789 4.394-1.457 6.4-2.608 0.948-0.625 2.099-1.551 1.956-2.805-0.783-2.219-3.194-3.134-5.189-3.934-5.172-1.797-10.498-3.227-15.928-3.939-9.753-1.014-19.506-2.427-29.335-2.356-5.731-0.625-11.517-0.619-17.265-0.301-4.593 0.677-9.262-8e-3 -13.842 0.765m53.23 27.867c-0.411 6.208-1.923 12.328-1.814 18.585 0.038 5.375-0.279 10.777 0.433 16.136 0.093 3.939 0.192 7.89 0.767 11.807 1.326 9.2 1.781 18.52 3.655 27.642 2.318 15.621 7.567 30.601 13.413 45.203 2.285 5.868 5.66 11.216 8.312 16.914 4.422 9.024 9.884 17.467 14.975 26.119 5.693 9.211 9.632 19.363 15.106 28.694 1.26 2.219 1.956 4.696 2.964 7.035 0.795 2.066 3.315 2.252 5.123 2.931-0.016-2.181-0.055-4.383-1.101-6.345-3.32-8.86-8.175-17.013-12.487-25.396-2.488-4.526-5.961-8.427-8.301-13.046-5.265-8.734-10.306-17.594-14.931-26.683-2.657-5.441-5.786-10.673-7.731-16.432-4.635-11.468-8.246-23.369-10.394-35.56-1.463-8.147-2.942-16.306-3.874-24.53-0.712-4.772-0.236-9.616-0.931-14.383-0.055-8.706-0.416-17.451 0.466-26.125-0.082-4.35 0.526-8.663 0.636-13.002 0.247-3.364 0.91-6.767 0.384-10.131-0.657-0.493-1.326-0.937-2.016-1.331-2.408 3.504-2.062 7.876-2.654 11.898m7.572-9.282c0.12 5.655-0.658 11.265-0.625 16.92-0.044 2.75-0.701 5.49-0.373 8.257 0.805 6.531-0.148 13.15 0.827 19.67 0.016 5.731 1.386 11.32 2.181 16.969 0.833 7.019 2.712 13.846 3.945 20.799 2.099 7.802 3.748 15.731 6.098 23.473 1.649 4.948 3.567 9.813 5.6 14.618 3.342 6.542 6.191 13.325 9.747 19.763 6.975 14.323 16.361 27.275 23.878 41.302 2.109 3.66 3.545 7.66 5.665 11.32 1.923 3.32 3.112 6.997 4.92 10.388 1.331 2.482 1.989 5.26 3.227 7.797 0.466 1.145 1.72 1.529 2.827 1.808 4.088 0.932 8.274 1.326 12.443 1.764 3.731 0.208 7.463 0.981 11.205 0.411-2.323-7.72-3.934-15.747-7.759-22.914-2.871-5.37-4.964-11.156-8.4-16.207-5.035-7.249-10.876-13.884-16.826-20.382-2.953-3.605-6.783-6.372-9.583-10.115-11.928-13.577-22.119-28.733-29.708-45.154-1.403-3.907-2.657-7.868-4.274-11.693-2.225-6.613-3.802-13.44-4.931-20.322-1.518-7.101-1.819-14.377-2.444-21.582-0.055-9.232-0.093-18.465 5e-3 -27.692 0.356-4.986 0.888-10.032 0.345-15.002-1.853-2.514-4.916-3.938-7.99-4.196m-65.964 48.863c-1.003-0.071-2.055 0.384-2.416 1.392-0.789 1.951-0.948 4.087-1.183 6.17-0.8 11.851-2.548 23.675-5.923 35.083-1.983 7.134-4.948 13.928-7.687 20.793-2.586 6.087-5.901 11.824-9.282 17.495-1.26 2.225-2.712 4.487-3.035 7.09 0.992 2.805 4.575 2.329 6.296 0.548 2.975-3.134 4.707-7.178 6.69-10.958 4.285-8.054 7.342-16.673 10.465-25.215 2.619-8.591 5.479-17.139 6.942-26.021 1.118-7.758 3.025-15.632 1.545-23.478-0.297-1.271-0.642-3.414-2.412-2.899m-54.451 102.77c-2.953 2.909-5.885 5.89-8.317 9.265-3.046 4.23-6.465 8.191-9.304 12.58-2.92 4.553-6.591 8.597-9.128 13.402-1.315 2.526-3.287 4.739-4.104 7.512-0.099 1.337-0.619 3.14 0.504 4.186 2.323 0.153 4.586-0.526 6.904-0.537 2.767-0.137 5.813 0.334 8.257-1.277 2.909-1.978 4.444-5.304 6.027-8.323 3.545-7.589 8.038-14.701 13.117-21.336 3.863-5.983 9.671-10.257 14.262-15.605-3.857-1.573-8.065-1.627-12.131-2.186-2.296-0.388-4.498 0.741-6.087 2.319m23.719 2.876c-3.063 2.625-5.485 5.906-7.813 9.177-5.627 8.224-11.199 16.531-15.774 25.396-1.101 2.022-2.679 3.786-3.534 5.95-0.208 1.101-0.586 2.663 0.482 3.474 0.789 0.712 1.874 0.395 2.827 0.318 4.52-0.767 9.419 0.438 13.627-1.847 4.016-2.438 6.482-6.646 8.58-10.717 3.003-5.622 6.033-11.249 9.868-16.355 2.745-4.334 6.131-8.191 9.189-12.295-4.016-1.704-8.241-2.811-12.492-3.704-1.651-0.29-3.634-0.723-4.96 0.603m52.397 4.142c-3.123 0.931-5.337 3.485-7.243 5.989 3.304 0.893 6.728 0.433 10.104 0.466 5.841-0.022 11.687 0.066 17.533 0.071 7.145 0.077 13.928 2.57 20.903 3.737 2.74 0.614 4.729-1.72 6.411-3.474-4.586-2.668-9.906-3.331-14.859-5.008-4.948-1.638-10.164-2.225-15.336-2.559-5.81-0.662-11.859-0.969-17.513 0.778m-161.77 47.56c-5.841 6.57-12.492 12.427-17.72 19.533-5.298 7.178-10.257 14.706-13.577 23.034-3.457 7.501-4.526 15.758-5.605 23.862-0.712 4.52-1.063 9.095-0.904 13.676 0.121 11.172 3.868 22.032 9.32 31.697 2.63 4.356 5.885 8.301 9.063 12.273 2.405 2.668 4.926 5.611 8.465 6.756 1.348 0.427 2.471-0.729 3.594-1.271-1.14-1.085-2.296-2.137-3.49-3.145-3.983-3.238-6.871-7.589-9.419-11.988-2.082-4.159-4.268-8.285-5.879-12.651-2.219-6.432-3.77-13.144-4.055-19.949 0.038-6.531-0.285-13.117 0.992-19.555 1.129-5.868 2.044-11.862 4.509-17.353 2.301-6.268 4.438-12.662 7.95-18.377 1.666-2.542 3.211-5.156 4.849-7.704 4.044-5.906 8.887-11.199 13.468-16.673 2.909-3.359 7.37-5.967 7.961-10.761-4.015 1.802-6.618 5.456-9.522 8.596m328.94 3.901c3.03 6.246 9.205 10 13.172 15.561 3.348 4.493 7.041 8.717 10.191 13.358 6.339 8.405 11.479 17.714 15.013 27.642 1.452 4.739 2.449 9.627 2.97 14.558 0.192 6.214 0.307 12.454-0.373 18.646 0.17 6.279-2.246 12.197-4.712 17.851-1.331 2.909-2.603 5.956-4.822 8.328-4.57 4.772-10.29 8.542-16.651 10.41-5.282 1.14-10.788 1.189-15.928 3.014 2.849 0.411 5.759 0.592 8.619 0.153 3.945-0.614 8.049-0.701 11.78-2.268 8.838-3.518 15.922-10.739 20.087-19.204 2.197-4.405 4.082-8.997 5.342-13.758 1.353-6.816 2.361-13.72 2.69-20.662-0.504-10.279-3.035-20.486-7.797-29.626-4.082-8.18-9.736-15.396-15.216-22.656-3.961-4.981-9.145-8.745-13.643-13.188-3.423-2.91-6.552-6.307-10.722-8.159m-278.46 4.279c-1.759 0.389-3.824 0.816-4.783 2.537-1.425 2.356-2.033 5.079-2.827 7.698-0.915 3.463-2.504 6.756-2.871 10.361-0.274 2.882-1.068 5.677-1.742 8.493-1.348 7.117-1.134 14.405-0.964 21.615 0.449 2.838 0.378 6.038 2.093 8.476 2.888 0.362 5.781-0.197 8.646-0.499 3.161-0.258 6.296-0.718 9.424-1.211 0.137-14.465-0.701-29.072 2.208-43.335 0.69-5.074 3.238-9.61 4.268-14.591-1.748-0.406-3.545-0.756-5.337-0.427-2.691 0.445-5.452 0.22-8.115 0.883m17.407 36.464c0.049 2.937-0.548 5.83-0.51 8.772-0.055 3.118 0.537 6.203 0.526 9.331 0.115 1.047-0.099 2.855 1.414 2.926 3.298 0.444 6.575-0.455 9.873-0.427 2.148-0.082 4.318 0.109 6.454-0.208 1.134-0.23 2.526-1.003 2.444-2.323-0.258-3.49-1.359-6.937-0.877-10.46 0.51-3.353 0.345-6.739 0.592-10.098 0.811-6.564 1.068-13.221 2.745-19.643 0.542-2.592 1.573-5.134 1.523-7.802-0.932-1.277-2.581-1.677-4.005-2.109-4.235-1.085-8.558-1.803-12.892-2.383-5.955 10.43-6.564 22.726-7.287 34.424m194.14-17.999c2.022 2.438 4.915 4.279 8.219 3.868-0.115-2.181-0.192-4.444-1.178-6.427-0.466-0.948-1.304-2.077-2.499-1.622-2.274 0.263-3.375 2.499-4.542 4.181m19.27-2.022l-0.471 0.016c-0.91 1.49 0.285 3.222 0.959 4.597 0.899 1.929 3.189 2.148 5.035 2.521 4.192 0.625 8.186 2.088 12.301 3.052 0.981 0.159 2.23 0.701 2.8-0.471-0.411-2.323-1.019-5.353-3.644-6.087-5.463-1.919-11.216-3.179-16.98-3.628m-11.813 20.322c-0.323 0.29-0.652 0.586-0.997 0.882 1.452 5.731 3.671 11.249 4.729 17.084 2.871 12.509 2.488 25.423 2.433 38.179 0.011 2.789-0.625 5.567-0.296 8.372 1.857-4.066 2.619-8.493 3.452-12.843 1.008-6.69 1.923-13.424 1.649-20.202-0.312-6.235-1.014-12.46-2.115-18.602-0.57-3.249-0.953-6.597-2.372-9.599-1.185-2.433-4.247-2.471-6.483-3.271m14.284 3.14c-0.219 4.323 1.151 8.498 1.31 12.805 0.515 3.874 1.057 7.742 1.008 11.665 0.657 5.287 0.449 10.624 0.482 15.944 0.022 3.649-0.718 7.243-1.348 10.832-0.805 4.526-2.783 8.728-3.874 13.188 5.167-5.068 9.484-11.062 12.071-17.851 4.679-11.397 7.2-23.588 8.361-35.817 0-2.055 0.449-4.296-0.531-6.18-1.529-0.992-3.353-1.331-5.085-1.753-4.142-0.916-8.306-1.727-12.394-2.833m45.516 38.354c-0.696 4.137-2.559 8.142-2.109 12.421 2.153-3.802 3.008-8.12 4.17-12.273 1.896-6.586 1.266-13.517 1.008-20.262-1.239 6.668-1.442 13.5-3.069 20.114z"/>
	<path d="m989.33 1200.6c4.778-0.685 9.506 0.701 14.147 1.66 0.022 1.222 0.044 2.455 0.077 3.693-5.2-0.093-10.295-1.304-15.462-1.781 0.307-1.178-0.285-3.161 1.238-3.572z" fill="#fff"/>
	<path d="m908.86 1214.4c-0.115-2.997 1.972-5.485 4.252-7.167 0.033 3.315 0 6.663 0.789 9.912-0.268 0.323-0.794 0.959-1.057 1.282-1.819-0.745-3.748-1.874-3.984-4.027z" fill="#fff"/>
	<path d="m1031.3 1218.8c-1.282-3.046-2.778-6.065-3.156-9.386 2.077 1.293 4.142 3.118 4.515 5.682 0.301 1.398-0.74 2.548-1.359 3.704z" fill="#fff"/>
	<path d="m944.47 1220.6c4.581-0.773 9.249-0.088 13.84-0.767 5.748-0.318 11.534-0.323 17.265 0.301 9.83-0.071 19.582 1.342 29.335 2.356 5.43 0.712 10.756 2.142 15.928 3.939 1.994 0.8 4.405 1.715 5.189 3.934 0.142 1.255-1.008 2.181-1.956 2.805-2.005 1.151-4.235 1.819-6.4 2.608-0.219-1.836-0.296-3.698-0.756-5.479-1.583-1.699-3.989-2.252-6.137-2.898-10.323-2.641-20.991-3.698-31.615-4.027-4.723-0.663-9.495-0.318-14.24-0.395-5.654 5e-3 -11.336-0.285-16.963 0.416-5.211 0.038-10.35 0.959-15.528 1.43-3.151 0.51-6.624 0.696-9.287 2.635-1.589 2.131-0.279 4.92 0.564 7.095-1.003 0.356-1.983 1.057-3.085 0.937-1.49-0.422-2.898-1.419-3.578-2.833-0.471-1.923-0.241-4.241 1.359-5.583 3.331-3.046 7.857-4.219 12.213-4.876 4.581-0.859 9.249-0.93 13.852-1.598z" fill="#fff"/>
	<path d="m997.7 1248.5c0.592-4.022 0.247-8.394 2.652-11.895 0.69 0.394 1.359 0.838 2.016 1.331 0.526 3.364-0.137 6.767-0.384 10.131-0.11 4.339-0.718 8.652-0.636 13.002-0.882 8.673-0.521 17.418-0.466 26.125 0.696 4.767 0.219 9.61 0.931 14.383 0.931 8.224 2.411 16.383 3.874 24.53 2.148 12.191 5.759 24.092 10.394 35.56 1.945 5.759 5.074 10.991 7.731 16.432 4.624 9.09 9.665 17.95 14.931 26.683 2.34 4.619 5.813 8.52 8.301 13.046 4.312 8.383 9.167 16.536 12.487 25.396 1.047 1.962 1.085 4.164 1.101 6.345-1.808-0.679-4.328-0.866-5.123-2.931-1.008-2.34-1.704-4.816-2.964-7.035-5.474-9.331-9.413-19.484-15.106-28.694-5.09-8.652-10.553-17.095-14.974-26.119-2.652-5.698-6.027-11.046-8.312-16.914-5.846-14.602-11.095-29.582-13.413-45.203-1.874-9.123-2.329-18.443-3.655-27.642-0.575-3.917-0.674-7.868-0.767-11.808-0.712-5.359-0.395-10.761-0.433-16.136-0.108-6.259 1.404-12.379 1.815-18.587z" fill="#fff"/>
	<path d="m1005.3 1239.2c3.074 0.257 6.137 1.682 7.994 4.197 0.542 4.97 0.011 10.016-0.345 15.002-0.099 9.227-0.06 18.459-5e-3 27.692 0.625 7.205 0.926 14.481 2.444 21.582 1.129 6.882 2.707 13.709 4.931 20.322 1.616 3.824 2.871 7.786 4.274 11.693 7.589 16.421 17.78 31.576 29.708 45.154 2.8 3.742 6.63 6.509 9.583 10.115 5.95 6.498 11.791 13.133 16.827 20.382 3.435 5.052 5.528 10.838 8.4 16.207 3.824 7.167 5.435 15.194 7.758 22.914-3.742 0.57-7.474-0.203-11.205-0.411-4.17-0.438-8.356-0.833-12.443-1.764-1.107-0.279-2.361-0.663-2.827-1.808-1.238-2.537-1.896-5.315-3.227-7.797-1.808-3.391-2.997-7.068-4.92-10.388-2.12-3.66-3.556-7.66-5.665-11.32-7.517-14.027-16.903-26.979-23.878-41.302-3.556-6.438-6.405-13.221-9.747-19.763-2.033-4.805-3.95-9.671-5.6-14.618-2.351-7.742-4-15.67-6.098-23.473-1.233-6.953-3.112-13.78-3.945-20.799-0.794-5.649-2.164-11.238-2.181-16.969-0.975-6.52-0.022-13.139-0.827-19.67-0.329-2.767 0.329-5.506 0.373-8.257-0.037-5.656 0.741-11.266 0.621-16.921z" fill="#fff"/>
	<path d="m939.31 1288c1.77-0.515 2.115 1.627 2.411 2.899 1.479 7.846-0.427 15.72-1.545 23.478-1.463 8.882-4.323 17.429-6.942 26.021-3.123 8.542-6.18 17.161-10.465 25.215-1.983 3.781-3.715 7.824-6.69 10.958-1.72 1.781-5.304 2.257-6.296-0.548 0.323-2.603 1.775-4.865 3.035-7.09 3.381-5.671 6.695-11.408 9.282-17.495 2.74-6.865 5.704-13.66 7.687-20.793 3.375-11.408 5.123-23.231 5.923-35.083 0.236-2.082 0.394-4.219 1.183-6.17 0.363-1.008 1.415-1.463 2.417-1.392z" fill="#fff"/>
	<path d="m884.86 1390.8c1.589-1.578 3.792-2.707 6.087-2.318 4.065 0.559 8.273 0.614 12.131 2.186-4.592 5.348-10.399 9.621-14.262 15.605-5.079 6.635-9.572 13.747-13.117 21.336-1.583 3.019-3.118 6.345-6.027 8.323-2.444 1.611-5.49 1.14-8.257 1.277-2.318 0.011-4.581 0.69-6.904 0.537-1.123-1.046-0.603-2.849-0.504-4.186 0.816-2.772 2.789-4.986 4.104-7.512 2.537-4.805 6.208-8.849 9.128-13.402 2.838-4.389 6.257-8.35 9.304-12.58 2.432-3.376 5.363-6.357 8.317-9.266z" fill="#fff"/>
	<path d="m908.58 1393.7c1.326-1.326 3.309-0.893 4.959-0.603 4.252 0.893 8.476 2 12.492 3.704-3.057 4.104-6.443 7.961-9.189 12.295-3.835 5.107-6.865 10.734-9.868 16.355-2.099 4.071-4.564 8.279-8.58 10.717-4.208 2.285-9.106 1.079-13.627 1.847-0.953 0.077-2.038 0.395-2.827-0.318-1.068-0.811-0.69-2.372-0.482-3.474 0.855-2.164 2.433-3.929 3.534-5.95 4.575-8.865 10.147-17.172 15.774-25.396 2.329-3.27 4.751-6.552 7.814-9.177z" fill="#fff"/>
	<path d="m960.98 1397.8c5.654-1.748 11.703-1.441 17.511-0.778 5.172 0.334 10.388 0.92 15.336 2.559 4.953 1.677 10.273 2.34 14.859 5.008-1.682 1.753-3.671 4.088-6.411 3.474-6.975-1.167-13.758-3.66-20.903-3.737-5.846-5e-3 -11.693-0.093-17.533-0.071-3.375-0.033-6.8 0.427-10.104-0.466 1.908-2.504 4.122-5.057 7.245-5.989z" fill="#fff"/>
	<path d="m799.21 1445.4c2.904-3.14 5.507-6.794 9.523-8.597-0.592 4.794-5.052 7.402-7.961 10.761-4.581 5.474-9.424 10.766-13.468 16.673-1.638 2.548-3.183 5.161-4.849 7.704-3.512 5.715-5.649 12.109-7.95 18.377-2.466 5.49-3.381 11.484-4.509 17.352-1.277 6.438-0.953 13.024-0.992 19.555 0.285 6.805 1.836 13.517 4.055 19.949 1.611 4.367 3.797 8.493 5.879 12.651 2.548 4.4 5.435 8.75 9.419 11.988 1.194 1.008 2.351 2.06 3.49 3.145-1.123 0.542-2.246 1.699-3.594 1.271-3.54-1.145-6.06-4.087-8.465-6.756-3.178-3.972-6.433-7.917-9.063-12.273-5.452-9.665-9.2-20.525-9.32-31.697-0.159-4.581 0.192-9.156 0.904-13.676 1.079-8.104 2.148-16.361 5.605-23.862 3.32-8.328 8.279-15.857 13.577-23.034 5.227-7.105 11.879-12.962 17.719-19.531z" fill="#fff"/>
	<path d="m1128.2 1449.3c4.17 1.852 7.298 5.249 10.723 8.158 4.498 4.444 9.682 8.208 13.643 13.188 5.479 7.26 11.134 14.476 15.216 22.656 4.761 9.139 7.293 19.347 7.797 29.626-0.329 6.942-1.337 13.846-2.69 20.662-1.26 4.761-3.145 9.353-5.342 13.758-4.164 8.465-11.249 15.687-20.087 19.204-3.731 1.567-7.835 1.655-11.78 2.268-2.86 0.438-5.77 0.257-8.619-0.153 5.139-1.825 10.646-1.874 15.928-3.014 6.361-1.868 12.082-5.638 16.651-10.41 2.219-2.373 3.49-5.419 4.822-8.328 2.466-5.655 4.882-11.572 4.712-17.851 0.679-6.191 0.564-12.432 0.373-18.646-0.521-4.931-1.518-9.819-2.97-14.558-3.534-9.928-8.674-19.237-15.013-27.642-3.151-4.641-6.843-8.865-10.191-13.358-3.968-5.561-10.142-9.314-13.173-15.56z" fill="#fff"/>
	<path d="m849.69 1453.6c2.663-0.663 5.424-0.438 8.115-0.882 1.792-0.329 3.589 0.022 5.337 0.427-1.03 4.981-3.578 9.517-4.268 14.591-2.909 14.262-2.071 28.87-2.208 43.335-3.129 0.493-6.263 0.953-9.424 1.211-2.866 0.301-5.759 0.86-8.646 0.499-1.715-2.438-1.644-5.638-2.093-8.476-0.17-7.211-0.384-14.498 0.964-21.615 0.674-2.816 1.468-5.611 1.742-8.493 0.367-3.605 1.956-6.898 2.871-10.361 0.794-2.619 1.403-5.342 2.827-7.698 0.958-1.722 3.024-2.149 4.783-2.538z" fill="#fff"/>
	<path d="m867.1 1490c0.723-11.698 1.331-23.993 7.287-34.426 4.334 0.581 8.657 1.299 12.892 2.383 1.425 0.433 3.074 0.833 4.005 2.109 0.049 2.668-0.981 5.211-1.523 7.802-1.677 6.422-1.934 13.079-2.745 19.643-0.247 3.359-0.082 6.745-0.592 10.098-0.482 3.523 0.619 6.969 0.877 10.46 0.082 1.32-1.31 2.093-2.444 2.323-2.137 0.318-4.307 0.126-6.454 0.208-3.298-0.027-6.575 0.871-9.873 0.427-1.512-0.071-1.299-1.879-1.414-2.926 0.011-3.129-0.581-6.213-0.526-9.331-0.038-2.94 0.559-5.833 0.51-8.77z" fill="#fff"/>
	<path d="m1061.2 1472c1.167-1.682 2.268-3.918 4.542-4.181 1.194-0.455 2.033 0.674 2.499 1.622 0.986 1.984 1.063 4.246 1.178 6.427-3.304 0.411-6.197-1.43-8.219-3.868z" fill="#fff"/>
	<path d="m1080.5 1470c5.764 0.449 11.517 1.71 16.98 3.627 2.625 0.734 3.233 3.764 3.644 6.087-0.57 1.172-1.819 0.63-2.8 0.471-4.115-0.964-8.109-2.427-12.301-3.052-1.846-0.373-4.137-0.592-5.035-2.521-0.674-1.375-1.868-3.107-0.959-4.597l0.471-0.015z" fill="#fff"/>
	<path d="m1068.7 1490.3c2.236 0.8 5.298 0.838 6.482 3.271 1.419 3.003 1.803 6.35 2.372 9.599 1.101 6.142 1.803 12.367 2.115 18.602 0.274 6.778-0.641 13.512-1.649 20.202-0.833 4.35-1.594 8.778-3.452 12.843-0.329-2.805 0.307-5.583 0.296-8.372 0.055-12.755 0.438-25.67-2.433-38.179-1.057-5.835-3.276-11.353-4.729-17.084 0.346-0.296 0.675-0.591 0.998-0.882z" fill="#fff"/>
	<path d="m1083 1493.5c4.088 1.107 8.252 1.918 12.394 2.833 1.731 0.422 3.556 0.762 5.085 1.753 0.981 1.885 0.531 4.126 0.531 6.181-1.162 12.229-3.682 24.421-8.361 35.817-2.586 6.789-6.904 12.783-12.071 17.851 1.09-4.46 3.068-8.663 3.874-13.188 0.63-3.589 1.37-7.183 1.348-10.832-0.033-5.32 0.175-10.657-0.482-15.944 0.049-3.923-0.493-7.791-1.008-11.665-0.159-4.308-1.529-8.483-1.31-12.806z" fill="#fff"/>
	<path d="m1128.5 1531.8c1.627-6.613 1.83-13.446 3.068-20.114 0.257 6.745 0.888 13.676-1.008 20.262-1.162 4.153-2.016 8.471-4.17 12.273-0.449-4.279 1.414-8.284 2.11-12.421z" fill="#fff"/>
	<path d="m1797.2 47.825c6.487 0.844 13.09-0.099 19.363-1.792 3.578-0.888 6.559-3.282 8.696-6.23 3.101-3.682 4.772-8.279 5.715-12.947 1.644-5.742 0.685-11.819 2.12-17.599 0.592-2.383 1.068-4.8 1.288-7.254-1.973 0.132-4.115-0.033-5.83 1.112-2.433 1.529-4.279 3.764-6.274 5.781-2.504 2.641-5.457 4.772-8.241 7.096-4.548 3.929-10.279 6.054-15.139 9.534-4.033 2.937-8.396 4.955-12.568 7.695-4.511 2.963-8.63 6.485-12.563 10.169-3.091 2.896-6.078 5.9-9.114 8.855-1.618 1.574-3.246 3.138-4.913 4.661-1.303 1.192-3.197 3.518-4.853 3.915-1.057-2.631 5.524-8.345 7.076-10.334 4.486-5.749 9.773-10.866 15.619-15.221 5.807-4.325 12.253-7.415 18.505-10.926 3.025-1.699 6.942-3.107 7.841-6.882-8.467 0.802-16.559 3.991-24.506 6.881-8.282 3.011-16.457 6.307-24.63 9.601-9.184 3.702-18.418 7.423-26.979 12.444-8.037 4.714-13.057 13.378-17.786 21.214-3.211 5.2-5.364 10.958-8.454 16.218-1.961 3.304-3.841 6.685-6.257 9.687 0.526-4.789 3.101-8.947 4.953-13.292 2.438-4.712 3.885-9.841 6.043-14.673 1.731-4.153 4.137-8.224 3.961-12.881-1.989 0.362-4.115 0.521-5.819 1.699-2.055 1.381-3.824 3.129-5.781 4.63-4.887 3.775-9.978 7.287-15.265 10.471-2.499 1.452-4.74 3.277-7.03 5.019-4.668 3.315-9.556 6.312-14.564 9.079-3.824 2.882-8.416 5.002-11.062 9.172-3.293 4-4.75 9.024-6.63 13.753-1.874 4.816-3.293 9.83-5.802 14.372-2.351 4.246-4.849 8.602-8.75 11.627 0.838-7.276 7.539-11.725 9.676-18.465 1.594-5.068 4.148-9.906 4.553-15.281-5.89 1.145-10.186 5.589-15.194 8.515-7.726 5.419-15.659 10.542-23.073 16.383-4.268 3.397-9.128 6.131-12.701 10.328-3.775 4.12-5.512 9.561-7.238 14.755-3.266 9.49-3.994 19.615-7.123 29.144-3.255 9.906-5.622 20.459-12.01 28.952-2.822 3.54-4.876 7.786-8.608 10.515 0.268-1.83 0.647-3.737 1.918-5.156 3.326-3.863 5.145-8.684 7.085-13.325 2.022-5.474 4.438-10.816 5.939-16.47 1.578-5.671 2.63-11.473 3.589-17.276 0.74-4.997 2.581-9.725 3.863-14.596 1.282-4.756 3.435-9.21 4.827-13.933-2.827 0.931-5.49 2.383-7.583 4.52-3.578 3.572-7.638 6.597-11.249 10.125-3.644 3.172-7.139 6.652-11.495 8.854-3.178 1.594-6.202 3.611-9.693 4.471-2.038 0.559-4.263 0.877-5.912 2.307-2.181 1.83-4.049 4.005-6.274 5.786-3.972 3.408-9.326 4.63-13.21 8.158-5.227 4.668-8.323 11.15-11.019 17.495-2.367 5.123-2.718 10.827-3.95 16.262-1.414 7.452-3.09 14.865-3.896 22.421-0.537 4.75-0.69 9.621-2.362 14.158-1.825 4.964-3.704 9.917-5.238 14.986-1.973 6.624-4.553 13.04-6.772 19.582-2.926 8.394-6.893 16.585-13.029 23.117 0.937-5.315 4.329-9.649 6.427-14.509 4.455-10.761 8.186-21.807 11.309-33.023 1.534-5.742 4.219-11.183 4.827-17.144 0.46-4.471 1.047-8.931 1.425-13.407 0.805-8.043 2.778-15.983 2.685-24.103-0.904 0.362-1.863 0.592-2.652 1.167-4.09 2.982-7.244 7.239-10.765 10.832-4.016 4.098-8.107 8.123-12.27 12.072-5.493 5.21-11.111 10.288-16.848 15.227-2.646 2.278-5.874 4.387-8.092 7.077-1.981 2.404-4.667 4.07-6.635 6.504-2.75 3.403-5.446 6.937-7.106 11.03-2.274 4.608-3.808 9.665-7.085 13.72 0.044-4.422 1.49-8.652 1.89-13.029-1.359 0.636-2.783 1.2-3.923 2.203-3.764 3.359-6.898 7.359-10.728 10.646-2.75 2.362-5.38 4.86-7.758 7.589-3.408 3.912-7.879 6.712-11.265 10.641-2.663 3.068-5.167 6.301-7.205 9.813-1.885 3.151-1.879 6.915-2.214 10.46-0.8 7.66 0.4 15.396-0.586 23.051-1.709-0.729-4.498-1.041-4.487-3.446 0.022-5.139 0.663-10.268 0.937-15.402 0.126-4.246 1.458-8.356 1.403-12.608-2.126 0.625-4.307 1.364-5.945 2.92-1.826 1.734-2.473 3.84-3.812 5.823-1.793 2.654-4.589 4.994-6.759 7.357-4.51 4.909-9.021 9.818-13.531 14.727-8.405 9.148-16.809 18.297-25.216 27.445-7.309 7.954-14.946 15.893-19.725 25.708-2.301 4.718-5.293 9.063-7.643 13.758-1.2 2.394-1.375 5.123-2.323 7.605-0.981 2.52-3.03 4.537-3.644 7.211-0.438 1.901 0.636 3.655 1.441 5.298 1.698 3.107 1.89 6.717 2.975 10.043-7.238 0.992-13.829 4.553-19.341 9.227-2.016 1.666-2.504 4.383-3.983 6.433-1.359 1.529-3.233 2.444-4.915 3.561 0.586 1.09 1.134 2.203 1.66 3.337-0.262-0.565-7.708 1.936-8.48 2.175-2.582 0.799-4.647 2.119-6.869 3.691-4.596 3.252-8.799 7.034-12.684 11.104-7.968 8.349-14.594 17.853-21.149 27.317-3.134 4.525-6.29 9.09-8.45 14.153-3.984 9.336-2.029 17.714 0.178 27.177 1.616 6.816 3.868 13.468 6.471 19.966 1.425 3.32-0.636 6.575-2.751 9.024-0.74-1.403-1.49-2.794-2.077-4.263-2.29-6.328-4.898-12.553-6.668-19.057-1.189-4.487-1.408-9.139-1.748-13.742-0.252-3.666 0.4-7.287 0.871-10.904 0.219-1.463-0.312-2.871-0.718-4.246-3.09 2.657-4.652 6.493-6.997 9.731-2.652 4.268-6.306 7.868-8.454 12.449-2.34 4.904-5.89 9.057-8.761 13.638-3.052 4.805-6.334 9.463-9.199 14.383-1.594 2.751-3.331 5.408-5.052 8.076-3.331 5.161-5.983 10.728-8.241 16.432-1.463 3.929-2.8 8.005-2.904 12.24-0.186 1.967 0.055 4.323-1.518 5.819-2.411 2.356-5.43 4.022-7.638 6.608-3.003 3.517-6.275 6.869-8.76 10.805-2.58 4.085-4.53 8.534-6.326 13.008-2.037 5.074-3.915 10.231-6.425 15.098-1.134 2.199-2.419 5.169-4.274 6.854-1.816 1.65-4.414 2.748-6.41 4.222-4.257 2.986-7.961 6.652-11.928 9.994-3.572 3.019-6.69 6.569-9.167 10.542-1.983 3.244-4.882 5.775-6.964 8.947-4.438 6.843-8.635 13.873-12.076 21.276-1.989 4.307-1.151 9.375-3.43 13.577-1.49 2.849-3.287 5.528-4.778 8.383-4.164 8.536-10.098 16.016-14.58 24.371-2.422 4.23-3.408 9.079-4.318 13.818-0.838 5.205-1.589 10.438-1.94 15.703-0.225 3.287 0.526 6.531 0.499 9.813-5e-3 3.222-0.225 6.482 0.449 9.665 0.203 1.649 0.931 3.605-0.301 5.046-1.227 1.89-3.457 2.559-5.512 3.112 0.066-4.641 0.953-9.194 1.962-13.703 1.052-4.498 0.783-9.15 0.586-13.72-0.318-0.022-0.953-0.066-1.271-0.082-0.97 1.742-1.923 3.496-2.866 5.26-1.726 3.326-4.142 6.268-5.496 9.791-1.923 4.937-4.022 9.808-6.307 14.596-2.274 4.663-4.115 9.539-6.789 14.005-2.509 4.153-4.12 8.756-5.742 13.303-1.249 3.474-1.194 7.2-1.222 10.843-0.148 4.268 1.72 8.257 1.885 12.503 1.66 9.506 4.931 18.635 8.268 27.664-3.605-2.153-5.255-6.137-7.731-9.326-3.616-4.575-4.487-10.504-5.879-15.988-0.986-3.578-0.027-7.726-2.444-10.816-2.942 3.967-4.394 8.739-6.854 12.98-2.805 4.811-3.709 10.383-5.211 15.67-1.112 5.583-4.301 10.75-3.835 16.607-0.055 6.312 3.435 11.791 5.046 17.72-0.499-0.301-0.986-0.592-1.468-0.882-3.72-2.011-4.213-6.652-6.169-10.021-1.688 2.542-3.353 5.183-4.06 8.191-0.773 2.898-0.137 5.923-0.537 8.865-0.384 2.362-1.699 4.416-2.657 6.581-1.211 2.586-1.715 5.435-2.937 8.021-1.907 4-3.54 8.126-5.419 12.142-2.214 4.778-2.674 10.268-1.457 15.38 1.627 6.811 5.183 12.909 8.131 19.199 1.447 3.178 3.726 5.901 5.156 9.095 0.597 1.112-0.049 2.323-0.34 3.435-1.836-1.578-3.507-3.37-4.696-5.479-3.008-5.178-6.186-10.246-9.232-15.396-1.507-2.471-2.641-5.315-4.959-7.161-2.904-1.956-6.657-1.731-9.884-0.833 1.512 3.381 3.994 6.23 5.337 9.698 1.501 3.742 3.008 7.528 3.688 11.528 0.992 5.715 0.849 11.544 0.723 17.32-0.112 5.13-0.699 10.048-0.22 15.215 0.507 5.47 1.58 10.88 3.016 16.179 1.907 7.04 4.445 13.887 7.152 20.653 2.467 6.167 4.389 12.428 7.922 18.109 2.342 3.766 5.138 7.216 7.744 10.797 2.574 3.536 4.279 7.724 6.877 11.146 1.868 2.378 2.953 5.255 3.315 8.252-2.142-1.496-4.005-3.32-5.791-5.211-2.849-3.003-6.816-4.476-10.082-6.92-2.537-1.899-5.247-4.003-7.617-6.26-2.518-2.399-4.483-5.37-7.27-7.476-0.734 1.156-2.066 2.274-1.748 3.808 0.619 3.348 2.603 6.23 4.35 9.095 2.153 3.496 6.601 6.094 9.732 8.703 4.982 4.151 10.42 7.979 14.075 13.4 0.652 2.109 0.219 4.509 1.337 6.509 0.882 1.594 1.627 3.271 2.159 5.03-6.082-3.079-12.005-6.526-17.44-10.641-3.824-2.981-4.597-8-6.958-11.939-1.627-0.389-1.885 1.742-1.901 2.915 0.022 4.52 0.268 9.457 2.97 13.276 2.8 3.189 6.641 5.183 10.197 7.402 2.575 1.583 4.372 4.175 5.534 6.926 1.096 2.641 0.762 5.616-0.033 8.301-3.123 10.438-5.753 21.084-10.301 31.028 8.663 1.216 17.325 2.674 25.768 5.002 2.701 0.674 5.507 0.756 8.246 1.244-1.14-0.614-2.279-1.216-3.413-1.819 1.052-5.687 2.937-11.156 4.816-16.602 3.156-9.923 5.961-19.971 9.747-29.681 0.822-2.137 1.079-4.493 2.219-6.487 2.027-2.466 5.594-2.159 8.339-1.304 3.07 0.702 5.591 3.969 8.088 5.77 2.848 2.055 5.641 4.271 8.169 6.715 2.229 2.154 4.119 4.625 6.717 6.385 7.778 5.262 19.17 6.302 28.009 3.326 2.213-0.745 4.003-2.864 4.919-4.945-5.576 1.119-11.289 2.244-16.914 1.399-5.172-0.777-9.987-3.196-14.219-6.269-3.318-2.409-6.313-5.222-9.226-8.098-1.24-1.225-2.061-1.919-3.605-2.589-0.84-0.364-4.759-1.341-5.056-2.182-0.63-1.786 0.915-3.912 2.783-3.956 1.556-0.11 3.123 0.17 4.597 0.685 3.079 1.052 5.013 4.192 8.323 4.761 7.824 1.501 15.676 3.726 23.719 3.249 4.876-0.526 9.698-1.507 14.547-2.274 5.846-0.866 11.95-0.592 17.55-2.734 3.507-1.353 5.452-4.75 7.632-7.578 2.909-3.764 4.931-8.12 7.923-11.819 2.033-2.723 4.389-5.26 5.934-8.306 0.882-1.534 0.466-3.556-0.811-4.712-1.962-0.794-4.131-0.674-6.191-0.833 1.112-2.942 2.038-6.274 4.811-8.115 2.197-1.49 4.005-3.54 6.35-4.783 6.959-1.288 14.136-0.099 21.073-1.583 9.435-1.315 18.898-4.46 26.24-10.712 4.159-3.408 5.786-8.723 7.896-13.457 1.66-4.635 3.945-9.024 5.413-13.725 1.255-4.082 3.424-7.791 5.413-11.545 2.104-4.066 5.468-7.452 6.712-11.95-2.17 0.263-4.438 0.625-6.213 2.011-2.915 2.159-5.633 4.581-8.558 6.739-3.638 2.964-7.917 5.112-11.117 8.602-1.463 1.633-3.337 2.816-5.397 3.545 1.266-5.282 6.383-7.939 9.556-11.934 2.734-3.463 6.235-6.23 8.794-9.84 2.772-3.956 7.737-5.101 11.55-7.72 5.792-3.72 10.635-8.701 15.062-13.923 5.55-6.345 6.959-14.985 11.347-22.015 2.855-5.063 6.186-9.972 7.797-15.616 1.189-4.022 1.731-8.224 3.326-12.125 1.545-3.671 2.422-7.583 4.126-11.188 1.857-4.044 3.315-8.263 5.38-12.208 1.37-2.833 4.723-3.868 7.638-4.071 2.718 0.252 5.052 1.972 7.764 2.318 2.345 0.29 4.767 0.345 7.095-0.137 2.992-0.877 5.079-3.561 8.142-4.329 2.761-0.745 5.567-1.731 7.589-3.868 5.912-5.835 10.723-12.651 16.12-18.941 3.83-4.449 6.685-9.654 10.728-13.928 2.762-2.893 5.479-5.83 8.372-8.597 2.685-2.449 6.181-3.83 8.652-6.542-1.562-0.137-3.189-0.17-4.619 0.575-4.531 2.055-9.358 3.507-13.566 6.224-4.915 3.134-10.24 5.66-15.895 7.134 3.337-3.074 7.578-4.794 11.386-7.161 4.953-2.992 10.049-5.759 15.254-8.284 3.572-1.699 6.789-4.115 9.342-7.139 3.151-3.304 5.26-7.386 7.868-11.095 5.38 2.142 10.668 4.515 16.016 6.75 7.408 2.975 15.303 5.353 23.374 4.838 4.887-0.236 9.348-2.46 14.092-3.392 4.942-0.926 8.712-4.575 11.972-8.158 2.685-3.298 5.649-6.553 6.969-10.684-2.63 1.096-4.959 2.745-7.243 4.416-2.011 1.444-4.331 2.36-6.693 3.058-2.346 0.693-4.818 1.638-7.23 1.972-2.421 0.335-4.873 0.482-7.315 0.474-4.892-0.015-9.781-0.689-14.498-1.985-2.943-0.809-5.819-1.86-8.588-3.146-1.408-0.654-2.787-1.368-4.132-2.141-1.315-0.756-1.805-1.692-2.665-2.928 5.227 0.153 10.35 1.468 15.594 1.485 2.654-0.066 5.305-0.208 7.953-0.391 1.724-0.12 3.431-0.094 5.127-0.393 1.96-0.346 3.921-0.693 5.881-1.039 3.079-0.557 6.162-1.089 9.243-1.633 1.513-0.267 2.634-0.547 3.99-1.242 1.394-0.713 2.763-1.478 4.186-2.134 4.246-1.961 7.978-4.8 11.786-7.484 4.137-3.134 7.205-7.397 10.958-10.925 2.761-2.416 6.608-0.767 9.857-0.86 6.58 0.027 13.172 0.148 19.752-0.071 5.49-0.674 11.04-0.236 16.536-0.844 7.096-0.625 14.262-0.526 21.265-1.967 11.605-1.348 22.563-5.627 33.291-10.043 4.066-1.764 7.786-4.197 11.594-6.443 3.507-2.077 6.734-4.586 9.747-7.32 3.063-2.789 6.422-5.359 8.756-8.838 2.646-4 5.517-7.879 7.6-12.219 2.405-5.123 8.076-7.15 11.813-11.057 5.117-5.315 10.164-10.728 14.717-16.542 3.704-4.564 7.638-8.98 10.712-14.01 2.466-3.896 4.339-8.12 6.427-12.219 1.496-2.964 2.635-6.098 3.403-9.326 4.799-20.187 6.149-44.181-7.697-61.259-4.806-5.927-11.083-10.646-18.097-13.646-8.422-3.602-16.894-2.42-25.677-0.844-0.241 1.014-0.477 2.033-0.767 3.041 4.811 1.134 9.764 1.32 14.624 2.12 12.196 1.898 23.112 10.668 28.997 21.341 4.384 7.951 6.171 17.288 5.13 26.3-1.063 9.207-1.89 18.207-5.411 26.99-1.644 3.912-3.49 7.737-5.364 11.545-4.252 8.739-10.816 16.059-17.418 23.078-3.298 3.052-6.082 7.008-10.531 8.449 0.447-0.145-1.657-16.352-1.921-18.192-0.77-5.358-2.388-10.587-4.718-15.471-6.062-12.705-17.134-23.79-31.101-27.117-3.222-0.768-6.589-1.127-9.854-0.564-3.265 0.562-6.43 2.108-8.542 4.661 8.331 0.17 16.566 0.412 24.389 3.459 7.091 2.762 12.439 8.529 15.618 15.361 5.26 11.305 6.326 24.839 2.645 36.698-1.189 3.83-2.378 7.775-4.794 11.035-1.77 2.444-4.734 3.457-7.353 4.696-12.789 6.047-25.557 10.673-39.533 12.997-14.667 2.439-29.498 3.896-44.359 4.36-5.38 0.168-10.765 0.207-16.148 0.114-1.602-0.027-5.375 0.596-6.367-0.742-1.091-1.473-0.712-5.37-1.402-7.234-0.86-2.301-3.118-3.578-4.969-4.986 3.961-1.331 8.136-2.148 11.835-4.186 2.192-1.211 4.312-2.564 6.389-3.967 3.808-2.564 6.69-6.328 8.668-10.427 1.414-2.959 1.315-6.29 1.425-9.484-0.022-2.186 1.622-3.808 3.003-5.298 4.038-4.104 6.833-9.249 9.052-14.52 1.375-3.238 2.772-6.58 2.838-10.147 0.208-4.044-0.822-8.191-3.09-11.561-0.756-1.31-2.4-1.331-3.687-1.682-1.271 5.83-2.4 11.709-4.246 17.396-1.211 3.271-3.501 5.978-5.266 8.953-2.131 3.616-5.408 6.301-8.427 9.145-3.709 3.397-8.438 5.539-13.336 6.548-4.57 0.921-9.134 2.4-13.846 2.038-6.312-0.241-12.854-1.655-17.994-5.501 1.912-1.742 3.989-3.331 5.671-5.309 2.055-2.581 2.866-5.857 4.4-8.734 2.005-4.263 5.627-8.295 4.975-13.325-0.121-2.197-2.855-1.392-4.268-1.238-6.443 1.353-13.084-0.586-18.766-3.611-8.602-5.222-15.325-12.876-23.44-18.75-3.589-3.129-7.375-6.082-10.471-9.715 3.759 0.526 6.871 2.762 10.158 4.46 11.364 6.033 22.503 12.619 34.563 17.183 3.611 1.764 7.37 3.178 11.298 4.044 6.449 1.868 13.007 3.655 19.758 3.956 5.194 0.279 10.399-0.559 15.347-2.115 2.679-0.882 4.959-2.586 7.342-4.038 7.183-4.12 11.643-11.435 15.555-18.476 2.296-3.731 2.734-8.471 1.518-12.635-0.762-2.603-2.915-4.35-5.107-5.731-0.296 0.29-0.882 0.871-1.173 1.162 1.2 7.238-0.038 14.827-3.249 21.402-1.709 3.698-4.959 6.334-7.928 8.991-2.493 2.214-6.011 2.263-9.156 2.208-4.734-0.066-9.123-2.06-13.331-4.016-4.887-2.301-9.09-5.808-12.734-9.747-2.663-3.063-5.156-6.416-6.257-10.383 3.698-1.057 7.589-1.737 10.964-3.682 3.244-1.929 6.137-4.575 7.917-7.939 5.233-9.715 9.391-19.977 14.838-29.582 1.425-2.981 3.676-6.345 2.098-9.709-4.186 2.668-8.235 5.753-13.183 6.86-6.772 2.553-14.103 1.085-20.821-0.844-5.665-1.6-10.706-4.767-15.583-7.978-3.863-2.964-8.076-5.479-11.594-8.882 0.455-0.312 0.904-0.636 1.353-0.97 6.854 2.663 13.835 5.019 20.952 6.876 5.205 1.233 10.405 2.855 15.818 2.74 6.202 0.323 12.52-0.438 18.295-2.811 3.287-1.375 5.846-4.022 7.901-6.871 1.353-1.846 2.011-4.104 3.364-5.945 1.929-0.959 4.23-0.652 6.328-0.981 3.255-0.263 5.934-2.285 8.838-3.551 2.477-1.129 5.2-1.6 7.627-2.855 2.509-1.381 4.531-3.468 6.46-5.556 2.597-2.942 5.134-6.345 5.38-10.41 0.247-4.438-0.504-8.876-1.507-13.183-1.863 0.718-4.049 1.26-5.129 3.118-1.008 1.901-1.096 4.12-1.501 6.202-0.57 3.923-1.627 7.972-4.422 10.947-2.345 3.074-6.082 4.822-9.923 4.876-6.175 0.06-12.432-1.797-17.358-5.572-3.359-2.625-6.958-5.266-8.838-9.221 3.266-0.137 6.537-5e-3 9.808 0.033 4.827 0.022 9.764-1.025 13.851-3.682 4.378-2.707 7.112-7.205 9.967-11.336 2.449-4.093 5.15-8.137 6.493-12.761 0.493-1.43 0.921-2.964 1.978-4.093 3.112-0.115 6.093 0.97 9.134 1.496 3.77 0.658 7.463 1.731 11.26 2.257 12 1.023 24.004 1.559 35.886-0.817 14.687-2.937 29.273-9.439 40.335-19.681 3.244-2.871 5.638-6.509 8.032-10.071 3.32-4.707 5.704-9.972 8.608-14.931 1.885-3.594 4.323-6.915 5.742-10.739 0.718-1.605 0.126-3.337-0.181-4.959-1.808 1.008-3.567 2.241-4.531 4.137-2.488 4.482-5.896 8.339-8.778 12.558-6.906 10.184-19.271 16.795-30.748 20.255-12.319 3.714-25.564 4.41-38.18 1.833-2.472-0.505-4.884-0.725-7.369-1.245-6.487-1.359-12.887-3.129-19.089-5.479-3.611-1.545-7.495-2.614-10.635-5.074 1.874-0.077 3.764-0.049 5.644-0.192 3.282-0.29 6.394-1.868 8.667-4.24 2.081-2.171 3.347-2.988 6.368-2.782 3.189 0.218 6.383 0.365 9.579 0.435 6.532 0.141 13.074-0.043 19.583-0.632 12.942-1.171 25.786-3.963 37.817-8.938 4.242-1.754 8.445-3.821 11.792-6.962s5.771-7.514 5.685-12.103c-0.022-1.174-0.328-2.523-1.378-3.048-1.268-0.633-2.822 0.403-3.4 1.697s-0.523 2.769-0.764 4.165c-0.625 3.629-3.276 6.654-6.404 8.597-9.609 5.971-21.41 7.315-32.501 6.955-5.669-0.184-11.318-0.839-16.908-1.786-2.046-0.346-18.129-3.397-18.346-2.803 0.926-2.526 2.115-4.942 3.216-7.391 1.633-4.608 3.792-9.013 5.813-13.451 3.057-0.86 6.323-0.258 9.452-0.805 7.112-0.608 13.621-3.693 20.262-6.038 5.14-1.923 9.808-4.975 13.818-8.701 2.493-2.329 5.118-4.789 6.301-8.076-0.148-0.121-0.444-0.362-0.592-0.482-1.753 0.712-3.397 1.666-5.014 2.635-0.477-0.91-0.948-1.808-1.408-2.696-5.128 2.422-7.463 8.164-12.438 10.805-5.32 2.849-11.38 4.466-17.429 4.268-6.104-0.175-12.29 1.452-18.317-0.115 3.036-2.351 6.909-3.041 10.164-4.986 4.498-2.482 7.863-6.454 11.523-9.961 1.112-1.173 2.734-1.529 4.29-1.655 8.021-0.756 16.076-1.123 24.125-1.529 3.512-0.296 6.953-1.118 10.41-1.781 10.438-2.099 20.487-6.619 28.629-13.528 2.97-2.52 6.15-4.846 8.289-8.173 1.735-2.698 0.378-3.157-1.778-5.109-3.672-3.672-7.673-6.417-12.04-9.167-1.805-1.137-2.803-1.804-0.398-2.59 1.883-0.615 3.937-0.884 5.859-1.378 7.391-1.899 14.832-4.575 20.619-9.724 8.152-7.253 12.375-19.115 12.442-29.846 6e-3 -0.976-0.027-1.983-0.43-2.873-0.402-0.889-1.261-1.64-2.237-1.628-1.019 0.012-1.878 0.843-2.265 1.786s-0.405 1.989-0.46 3.006c-0.353 6.556-2.472 13.009-6.075 18.497-2.752 4.192-6.457 7.887-11.055 9.887-4.508 1.96-9.609 2.183-14.483 1.553-18.502-2.392-29.957-16.319-40.117-30.609-0.696-1.271-1.972-2.745-1.282-4.257 5.008 0.049 9.676 2.383 14.668 2.635 4.394-0.066 8.356-2.635 11.227-5.802 2.866-3.2 5.501-6.597 8.038-10.06 2.504-3.375 4.301-7.249 7.15-10.367 2.948-3.288 6.4-6.296 8.213-10.421 1.036-2.153 0.619-4.603 0.51-6.893 0.037 0.773-5.554 3.703-6.336 4.183-2.395 1.471-4.846 2.854-7.355 4.121-4.572 2.309-8.922 3.529-14.099 3.884-6.368 0.437-12.823-0.407-18.863-2.47-6.116-2.09-11.635-5.544-17.677-7.866-4.12-1.638-8.427-3.052-11.972-5.813 0.414 0.322 2.882 0.042 3.532 0.127 1.051 0.138 2.177 0.264 3.206 0.459 2.642 0.5 5.239 1.338 7.875 1.897 5.35 1.135 10.77 1.94 16.218 2.412 12.248 1.062 23.868 1e-3 35.834-2.134 4.931-1.244 10.087-2.416 14.366-5.293 9.385-7.49 11.111-20.327 19.111-28.796 2.132-2.257 4.12-5.221 3.424-8.247-7.742 5.679-17.038 9.139-26.573 10.265-9.796 1.158-19.858-0.173-29.053-3.727-2.329-0.901-4.604-1.944-6.804-3.126-1.049-0.563-5.121-2.33-2.729-3.264 1.643-0.641 6.081 1.21 7.799 1.604 2.654 0.61 5.311 1.216 8.013 1.573 11.291 1.492 24.494 2.157 35.441-1.492 2.499-0.844 4.789-2.345 7.446-2.707 2.778-0.373 5.66-0.192 8.367-1.068 3.123-1.025 5.622-3.293 8.613-4.613 3.238-1.496 6.865-1.742 10.219-2.915 3.32-1.145 6.553-2.772 9.117-5.216 4.279-4.142 8.323-8.558 11.758-13.429 1.775-3.068 3.194-6.449 3.726-9.967 0.4-2.126-1.83-3.205-3.14-4.405-2.931 3.468-4.329 7.983-7.578 11.199-2.871 2.942-6.443 5.139-10.191 6.772-3.518 1.551-7.446 1.194-11.177 1.036-9.013-0.8-17.895-3.025-26.24-6.509-4.186-1.671-8.35-3.452-12.114-5.95-4.893-3.227-10.115-5.896-15.029-9.079-9.55-6.071-20.234-10.284-31.28-12.646-5.655-1.282-11.457-0.542-17.177-1.014 1.2-0.63 2.378-1.408 3.759-1.611 5.276-1.041 10.58 0.384 15.829 0.948 6.915 0.805 13.303 3.666 19.845 5.852 4.263 1.545 8.63 2.844 12.766 4.745 3.983 1.819 8.186 3.068 12.235 4.734 10.268 4.076 21.161 7.205 32.3 6.975 8.947-0.247 18.103-4.164 23.473-11.506 2.778-3.583 6.202-6.624 8.827-10.339 2.077-2.674 3.315-5.846 4.915-8.8 1.594-2.964 5.189-3.6 7.824-5.298 4.186-2.603 8.361-5.49 11.342-9.49 2.833-3.687 5.123-7.863 6.257-12.394 0.246-1.386 0.636-3.172-0.619-4.197-2.455 2.707-3.737 6.23-6.131 8.986-3.057 3.956-7.271 6.761-11.506 9.293-2.915 1.699-6.279 2.235-9.484 3.101-2.559 0.685-5.161 1.178-7.753 1.682-0.696-1.03-1.353-2.088-2.027-3.123-1.611 1.622-3.123 3.786-5.55 4.109-2.898 0.279-5.83 0.17-8.706-0.175-4.756-0.849-9.638-1.622-13.972-3.868 4.098-1.463 8.389-2.482 12.18-4.696 4.86-2.745 10.142-5.485 13.134-10.416 2.181-3.622 5.709-6.093 9.183-8.356 1.731-1.194 3.907-1.041 5.907-1.123 3.161-0.066 6.323-0.4 9.397-1.178 4.148-1.057 8.515-1.43 12.427-3.309 5.255-2.444 10.136-5.89 13.786-10.427 3.036-3.781 6.515-7.397 8.159-12.06 1.041-2.4 1.359-5.244 3.156-7.249 2.526-1.578 5.594-1.945 8.246-3.282 3.797-1.633 6.137-5.2 9.117-7.89 4.865-4.476 8.411-10.208 13.61-14.35 3.682-3.698 7.402-7.961 8.367-13.254-5.545 1.534-10.471 4.761-16.114 6-9.335 1.924-18.935 2.284-28.429 1.64-4.531-0.307-9.054-0.851-13.545-1.508-2.211-0.323-4.43-0.67-6.628-1.073-1.196-0.22-5.543-2.046-6.476-1.667 4.865-1.978 10.038-0.126 15.068-0.477 14.592-0.967 29.517 0.025 43.884-3.212 6.521-1.469 13.478-4.108 18.448-8.738 4.554-4.241 10.098-9.012 11.685-15.304-2.488 0.553-4.865 1.457-7.238 2.345-2.427 0.937-5.052 0.345-7.452-0.34 5.95-3.824 12.942-6.383 17.599-11.945 1.567-1.973 0.482-4.613-0.685-6.493-3.298 2.526-6.476 5.315-10.284 7.063-4.482 2.219-9.545 2.608-14.361 3.693-3.271 0.74-6.63 0.893-9.967 0.827-6.071 0.033-12.251-0.729-17.851-3.178 6.252-2.274 13.008-1.397 19.506-2.038 4.164-0.51 8.295-1.255 12.449-1.89 4.811-0.729 9.468-2.175 14.175-3.364 3.77-0.937 7.156-2.909 10.443-4.909 4.454-2.745 8.093-6.701 10.673-11.232 2.471-4.279 6.394-8.109 6.487-13.353-3.945 1.83-7.408 4.548-11.451 6.175-4.57 2.296-9.747 3.227-14.832 2.838-5.216-0.466-10.547-0.258-15.61-1.775 0.915-0.712 1.737-1.841 3.014-1.885 1.45-0.111 2.908 0.037 4.365 0.163zm-329.84 758.82c6.929-0.784 13.858-1.569 20.787-2.353 11.581-1.311 23.398-1.918 34.902-3.67 8.099-1.233 16.109-3.586 24.065-5.51-9.723 7.239-21.49 11.352-33.424 13.473-9.756 1.734-19.681 2.197-29.572 2.364-10.627 0.18-21.786 1.894-31.792-2.603 5.012-0.567 10.023-1.134 15.034-1.701zm58.511-593.39c1.216-7.276 2.038-14.64 3.967-21.78 1.534-6.049 4-12.224 8.832-16.399-1.036 3.923-2.882 7.561-4 11.451-2.729 9.654-4.4 19.561-6.778 29.297-0.959 4.23-1.063 8.821-3.594 12.525-0.109-5.078 0.861-10.086 1.573-15.094zm-17.884 31.992c0.833-6.12 1.803-12.219 2.877-18.3 0.696-6.334 2.016-12.575 3.249-18.821 1.079-4.548 1.759-9.594 5.304-13.002-0.51 6.367-2.104 12.575-3.112 18.87-1.161 7.287-2.252 14.596-3.435 21.884-0.899 4.981-2.52 9.791-4.033 14.607-0.696 2.301-1.808 4.444-3.178 6.411 0.12-4.011 1.884-7.693 2.328-11.649zm-57.06 36.048c1.523-4.772 1.901-9.83 3.551-14.569 1.841-5.326 2.964-10.997 6.06-15.796 0.937-1.638 2.52-2.707 4.071-3.698-0.696 3.89-2.668 7.364-3.846 11.101-1.211 3.83-2.652 7.572-4.022 11.347-2.745 7.189-3.835 14.87-6.372 22.125-1.408 3.918-2.674 7.912-4.685 11.577 1.035-7.502 2.838-14.909 5.243-22.087zm-21.1 31.045c1.003-5.161 1.71-10.388 3.227-15.435 1.824-7.775 4.126-15.418 6.482-23.045 1.222-4.641 3.03-9.402 6.964-12.427-0.219 3.496-0.762 7.002-2.044 10.279-0.942 2.345-1.688 4.767-2.06 7.276-0.778 5.293-3.534 9.999-4.86 15.144-1.731 6.8-3.77 13.512-5.556 20.3-0.597 2.696-1.255 5.408-2.537 7.879-1.271-3.259-0.197-6.695 0.384-9.971zm-33.708 146.3c6.027-0.038 12.065-0.016 18.092-0.197 6.224-0.214 12.383 0.794 18.547 1.474 6.438 0.904 12.668 2.855 18.887 4.701 2.646 0.767 5.282 1.605 7.841 2.646 3.737 1.567 7.77 2.685 10.904 5.386-6.06-0.071-12.147-0.46-18.076-1.786-7.419-1.09-14.651-3.134-22.054-4.318-9.38-1.474-18.766-3.068-28.261-3.54-4.789-0.121-9.638-0.362-14.361 0.603-2.4 0.515-4.86 0.608-7.298 0.46 4.432-3.555 10.218-4.958 15.779-5.429zm-12.454-107.37c1.09 0.34 2.367 0.422 3.282 1.189 1.107 1.611 1.118 3.682 1.249 5.567 0.016 2.729 0.148 5.753-1.496 8.098-0.789 1.2-2.268 1.529-3.556 1.896-0.542-5.567-0.575-11.249 0.521-16.75zm-7.622 54.551c2.115-7.304 4.619-14.531 5.879-22.048 0.395-2.372 0.499-4.794 1.085-7.128 0.263-1.556 1.764-2.362 2.838-3.326 2.219 3.178 1.216 7.271 0.219 10.706-1.786 5.128-2.866 10.465-4.74 15.566-1.803 4.833-3.381 9.758-5.452 14.492-1.699 3.797-2.8 7.917-5.441 11.221-0.559-0.225-1.101-0.46-1.633-0.707 1.575-6.574 5.388-12.3 7.245-18.776zm-8.361 22.886c3.107-1.014 6.433-0.937 9.534 0.077-0.378 0.948-0.723 1.912-1.2 2.816-2.827 0.981-5.89 0.767-8.821 1.156-4.235 0.252-8.224 1.83-12.41 2.367 3.32-3.687 8.322-5.002 12.897-6.416zm-32.809 133.59c9.764 1.364 18.87 5.578 27.204 10.695 3.085 1.951 5.791 4.438 8.86 6.422 2.203 1.436 4.301 3.057 6.098 4.997-4.296-0.794-7.479-3.929-11.194-5.945-4.822-2.767-9.868-5.096-14.843-7.55-5.561-2.241-11.375-3.813-17.166-5.304-4.937-1.326-10.071-0.723-15.106-0.74 4.63-3.49 10.695-3.15 16.147-2.575zm-35.077-48.403c0.351-5.046 0.921-10.098 0.575-15.155-0.285-3.085 0.044-6.17-0.12-9.254-0.466-6.794 0.696-13.539 1.414-20.267 0.471-3.693 0.641-7.758 3.003-10.832 1.726 0.904 2.394 2.981 2.537 4.811 0.06 1.348-1.32 2.181-1.567 3.419 0.208 1.348 0.773 2.603 1.09 3.934 0.674 2.46-0.131 4.981-0.164 7.474-0.263 3.994 0.63 7.967 0.263 11.961-0.389 4 0.055 8.043-0.597 12.027-0.899 6.723-2.537 13.303-3.874 19.944-0.384 1.907-1.233 3.671-2.159 5.364-1.568-4.325-0.763-8.971-0.401-13.426zm-22.076 119.64c1.523-0.931 3.183-2.022 5.063-1.644 4.005 0.636 8.054 0.159 12.082 0.378 7.797 0.504 15.616 1.14 23.297 2.652 7.079 1.753 14.832 2.509 20.804 7.101-4 0.493-7.715-1.299-11.556-2.027-7.857-1.589-15.851-2.411-23.845-2.86-5.496-0.066-10.997-0.077-16.487 0.049-4.066 0.23-8.065 1.107-12.032 1.967-3.737 0.707-6.942 3.397-10.882 3.035 3.551-4.246 9.03-5.78 13.556-8.651zm2.235 23.555c2.372-0.285 4.74 0.214 7.052 0.718-3.255 1.518-6.882 1.945-10.125 3.485-2.942 1.403-6.339 0.937-9.358 2.088-5.145 1.868-10.191 4.444-15.764 4.696 1.808-3.929 6.487-4.531 10.071-6.005 5.813-2.374 11.856-4.291 18.124-4.982zm-30.754-159.45c0.86-3.479 0.767-7.424 3.381-10.197 1.244 3.572 0.367 7.287 0.175 10.936-0.208 1.726 0.921 3.112 1.846 4.438-0.668 1.573-1.54 3.112-1.682 4.855-0.493 11.484 1.288 22.914 1.161 34.404 0.548 7.035 0.46 14.109 1.326 21.128 0.345 5.468 0.312 10.969 0.011 16.443-0.022 2.082-0.723 4.038-1.364 5.994-0.542-2.559-1.233-5.101-1.463-7.709-0.175-1.331 0.657-2.493 1.14-3.655-0.794-0.12-1.589-0.236-2.372-0.334-0.137-3.879 0.767-7.704 0.553-11.577-0.279-5.978 0.236-11.983-0.564-17.933-0.455-4.575-1.682-9.063-1.77-13.676-0.236-3.879-0.586-7.748-0.641-11.632-0.685-7.119-1.688-14.472 0.263-21.485zm-21.862 86.631c2.181 5.994 3.381 12.339 3.994 18.684 0.12 4.942 0.723 10.016-0.658 14.848-1.808-4.624-1.819-9.676-3.282-14.394-0.86-3.633-2.625-6.969-3.545-10.569-0.322-3.227 1.71-6.071 3.491-8.569zm-62.616 56.019c2.093 3.687 2.904 7.879 4.235 11.862 2.071 6.717 3.414 13.643 5.501 20.355 1.414 4.383 1.655 9.024 2.882 13.451 1.622 5.687 2.592 11.534 3.435 17.38 0.614 4.805 1.512 9.709 0.537 14.536-2.285-4.181-3.052-8.937-4.575-13.402-1.474-6.005-3.622-11.802-5.222-17.763-1.967-6.378-3.222-12.936-4.668-19.435-0.805-6.109-2.093-12.147-2.559-18.295-0.316-2.898-0.448-5.873 0.434-8.689zm-48.989 48.353c1.299-3.808 3.222-7.928 7.112-9.66 0.575 1.003-0.137 2.066-0.482 3.024-1.792 3.759-3.205 7.715-3.89 11.835-0.301 1.929-0.948 3.775-1.77 5.545-1.874-3.254-2.164-7.204-0.97-10.744zm-14.267 133.96c1.068 2.038 1.77 4.246 2.246 6.504 1.452 6.871 3.852 13.523 4.876 20.487 0.548 4.186 2.97 7.896 3.14 12.164-1.359-1.019-2.888-1.961-3.737-3.485-0.992-1.83-1.342-3.907-1.83-5.901-3.101-12.251-7.079-24.251-10.843-36.299-1.288-5.512-3.567-10.75-4.498-16.344-0.608-3.435-1.578-6.953-0.57-10.416 2.789 6.712 4.57 13.791 6.69 20.739 1.364 4.228 2.422 8.6 4.526 12.551zm-9.556-40.415c-0.044 1.085-0.093 2.181-0.131 3.287-2.219-1.14-4.394-2.362-6.416-3.819 2.12-1.468 4.547-0.783 6.547 0.532zm-14.531-33.855c0.323 0.027 0.975 0.077 1.304 0.104 1.49 6.482 3.057 12.964 5.293 19.237 0.838 2.383 2.992 3.863 4.411 5.852-0.433 0.981-1.211 1.742-1.874 2.575-2.29 2.559-3.841 5.644-5.605 8.564-0.29-5e-3 -0.877-0.022-1.173-0.027-2.537-6.016-3.167-12.591-3.792-19.024-0.158-5.786 0.346-11.605 1.436-17.281zm-33.198 100.12c0.181-2.674 1.304-5.227 3.731-6.564 1.057 4.334 0.74 8.832 1.342 13.238 0.778 6.783 2.312 13.512 4.789 19.884 1.956 5.293 3.841 10.619 6.175 15.763 2.055 4.526 3.594 9.265 5.266 13.944 1.194 3.578 3.792 6.624 4.109 10.493-1.578-0.729-2.822-1.962-3.551-3.534-2.082-4.224-5.205-7.846-7.068-12.191-1.945-4.383-4.263-8.586-6.104-13.008-1.956-5.068-4.077-10.082-5.501-15.331-2.048-7.353-4.733-14.969-3.188-22.694zm-25.982 96.811c1.54 1.392 3.09 2.871 3.951 4.805 1.003 1.934 1.43 4.159 2.657 5.989 1.304 1.151 3.129 1.441 4.685 2.148 3.879 1.419 6.405 4.865 9.221 7.693 3.425 3.463 5.342 8.027 7.211 12.443 0.871 1.961 0.953 4.126 0.899 6.246-2.192-3.704-3.534-7.863-6.148-11.325-2.986-4.066-5.649-8.734-10.219-11.227-2.35-1.386-4.937-2.323-7.265-3.742-1.068-0.526-1.299-1.764-1.633-2.773-0.833-3.545-3.655-6.427-3.359-10.257zm-4.427 54.441c2.4 3.802 3.835 8.087 5.868 12.082 1.956 4.224 4.224 8.41 5.068 13.04 0.866 4.734 1.14 9.545 1.463 14.339 0.351 4.263 1.123 8.701-0.394 12.843-2.986-3.112-4.416-7.227-6.444-10.936-3.107-5.748-5.802-11.698-8.674-17.561-1.408-3.605-3.907-7.189-3.222-11.243 0.779-4.691 2.669-9.386 6.335-12.564zm-10.389 1.753c-0.636 0.871-1.923 2.049-2.931 0.975-2.055-2.488-3.134-5.605-4.476-8.504-2.241-5.041-3.918-10.443-3.857-16.01 0.099-4.361-1.83-8.438-1.885-12.783 4.318 4.016 7.106 9.287 10.569 13.994 3.474 5.057 7.994 9.517 10.115 15.396-2.806 1.968-5.442 4.198-7.535 6.932zm25.423 119.48c-1.501 5.578-3.353 11.051-4.827 16.64-2.066 5.917-4.06 11.868-5.523 17.977-1.189 4.668-2.614 9.276-4.23 13.818-1.792 5.928-3.567 11.862-5.233 17.829-1.03 2.877-1.6 5.929-2.893 8.717-1.611 2.521-5.846 0.926-6.191-1.781 0.301-2.504 1.397-4.811 2.082-7.205 1.468-4.86 2.559-9.841 4.553-14.52 2.241-5.32 2.86-11.128 4.827-16.531 3.479-10.975 8.432-21.44 11.435-32.568 3.649-10.405 6.646-21.051 10.871-31.248 2.581-5.978 4.652-12.158 7.046-18.213 3.655-8.635 7.841-17.078 10.608-26.059 1.644-5.435 4.438-10.416 6.213-15.796 3.72-9.145 7.276-18.366 11.517-27.281 1.567-3.594 2.723-7.364 4.635-10.799 2.257-4.4 3.978-9.052 6.241-13.451 2.992-6.942 5.753-13.988 8.553-21.013 1.731-4.981 4.504-9.501 6.416-14.405 1.485-3.792 3.178-7.49 4.608-11.298 2.049-6.038 3.797-12.246 6.964-17.824 1.26-2.23 2.373-4.537 3.474-6.843 1.562 5.233-1.885 10.016-3.282 14.87-1.419 5.068-4.181 9.61-5.671 14.651-0.608 1.863-1.332 3.698-2.148 5.49-1.715 3.616-2.74 7.55-4.893 10.964-2.635 4.224-3.622 9.167-5.534 13.714-1.945 4.652-3.885 9.304-5.737 13.994-1.562 3.978-3.786 7.654-5.271 11.665-2.394 6.476-5.808 12.514-8.35 18.936-1.863 4.701-3.753 9.391-5.55 14.12-1.293 3.874-2.29 7.841-3.797 11.643-3.956 11.709-9.78 22.678-13.786 34.365-1.896 5.37-4.022 10.657-5.791 16.07-3.993 10.376-7.823 20.819-11.336 31.372zm28.322 0.564c-3.386 0.931-7.002 1.277-10.087 3.074-1.545 0.855-3.211 1.468-4.876 2.055 0.301-1.89 0.586-4.071 2.356-5.183 3.961-2.783 8.969-3.271 13.632-3.956 9.101-0.751 18.229 0.077 27.325 0.488 3.742 0.236 7.49 0.723 11.041 1.994-12.948 3.402-26.433-1.83-39.391 1.528zm55.033-19.171c-5.704-0.733-11.558-0.875-17.3-1.305-5.075-0.38-10.15-0.759-15.225-1.139-4.758-0.356-9.68-0.108-14.454 0.225-5.008-0.192-9.627 1.967-14.481 2.772 0.329-1.589 0.099-3.813 1.912-4.548 4.164-1.731 8.772-1.825 13.199-2.263 7.267-0.436 14.752 0.502 21.997 0.944 7.555 0.46 15.1 1.065 22.631 1.817 3.191 0.318 6.531 0.78 9.742 0.692 2.077-0.055 4.175 0.071 6.175 0.712-4.153 2.931-9.407 2.465-14.196 2.093zm20.662-56.962c-6.076 2.822-12.887 2.57-19.407 3.189-8.054-0.038-16.092-0.811-24.125-1.386-3.682-0.329-7.353 0.23-11.019 0.46 0.46-2.855 2.455-5.013 4.74-6.613 3.863-2.882 8.29-5.063 13.024-6.076 7.117-1.764 14.498-0.981 21.747-0.915 6.394 0.608 12.832 0.11 19.232 0.608 1.819 0.082 3.561 0.657 5.189 1.463-2.335 3.747-5.047 7.692-9.381 9.27zm24.639-0.569c-3.381 1.288-6.734 3.172-10.476 2.871 2.537-3.605 5.183-7.227 6.4-11.528 5.956-0.186 11.873 0.647 17.829 0.696-3.556 4.169-8.903 5.824-13.753 7.961zm59.631-106.01c-3.161 0.728-6.327 1.529-9.562 1.882-10.853 1.182-21.811 0.326-32.701 0.32-6.838-4e-3 -13.676 0.1-20.511 0.312-3.494 0.108-6.986 0.244-10.477 0.409-2.968 0.14-5.973-0.38-8.906 0.214-1.989 0.384-4.011 0.444-6.016 0.564 0.794-1.994 1.282-4.586 3.485-5.512 2.712-1.145 5.737-0.679 8.597-0.657 4.411 0.258 8.728-0.899 13.112-1.129 13.593-1.19 27.094 0.192 40.667 0.16 9.792-0.023 19.584-0.047 29.376-0.07 1.841-4e-3 12.296-1.114 12.868 0.725 0.643 2.068-10.179 1.307-11.529 1.387-2.825 0.168-5.612 0.753-8.403 1.395zm33.29 26.872c-4.526 2.208-9.391 3.633-13.933 5.813-4.438 2.12-9.895 3.309-14.476 0.915 4.586-2.329 9.616-3.512 14.388-5.37 3.282-1.118 6.224-2.986 9.413-4.318 2.142-0.931 4.487-1.156 6.8-1.31 0.241 1.744-0.488 3.569-2.192 4.27zm9.912-61.059c-4.301 0-8.63 0.203-12.892-0.488-5.079-0.844-10.284-0.51-15.325-1.644-12.492-2.581-25.111-4.46-37.751-6.131-7.145-1.123-14.361-1.715-21.577-2.011-6.197 0.373-12.421 0.723-18.531 1.863-4.592 0.811-9.326 1.458-13.49 3.704-3.435 1.841-6.915 3.6-10.597 4.904-0.203-0.263-0.603-0.8-0.805-1.063 2.104-1.912 4.312-3.792 6.986-4.854 3.392-1.397 6.745-2.877 10.104-4.334 6.213-2.581 12.958-3.364 19.588-4.093 7.654-0.301 15.358-0.268 22.974 0.679 11.484 1.474 22.58 5.085 34.086 6.493 5.282 0.647 10.493 1.912 15.824 2.175 6.876 0.471 13.649 2.131 20.569 1.983 1.896-0.137 3.693 0.515 5.32 1.452-1.398 0.713-2.877 1.419-4.483 1.365zm36.479-34.515c-7.892-0.019-15.783-0.762-23.541-2.211-10.886-2.033-21.089-5.956-31.643-9.08-20.645-6.105-41.366-12.434-63.151-11.372-2.718 0.133-5.655 0.145-8.279 0.838-1.296 0.342-2.549 0.719-3.911 0.853-0.725 0.07-3.143 0.262-3.69-0.161-1.37-1.061 1.305-3.112 2.301-3.456 2.322-0.803 4.986-0.858 7.394-1.513 2.593-0.705 5.25-1.174 7.921-1.451 5.372-0.559 10.809-0.332 16.154 0.395 12.545 1.706 25.881 5.258 37.245 10.867 5.507 2.718 11.753 3.293 17.38 5.682 6.432 2.86 13.479 3.813 20.245 5.589 6.624 1.836 13.544 1.501 20.344 1.852 7.577 0.826 15.137-0.11 22.721-0.625-1.64 2.677-5.216 3.276-8.349 3.492-3.042 0.208-6.091 0.308-9.141 0.301zm62.53-48.675c-6.586 1.397-13.172 3.035-19.944 3.151-3.939 5e-3 -8.197 0.778-11.808-1.233-4.006-2.249-8.048-4.44-12.088-6.627-3.61-1.954-7.024-4.38-10.642-6.384-4.186-2.319-8.498-4.41-12.911-6.262-4.255-1.786-8.675-2.894-12.949-4.419-2.822-0.921-5.66-2.296-8.706-1.978-2.351 0.323-4.257 1.863-6.312 2.926-6.591 3.381-13.325 6.893-20.771 7.857-3.967-0.197-7.758-1.633-11.599-2.542-7.978-2.241-16.344-2.455-24.568-2.071-11.583 0.619-22.602 4.838-32.82 10.093-2.668 1.452-5.167 3.54-8.35 3.605 2.992-3.978 7.583-6.142 11.884-8.383 4.926-2.663 10.388-4.066 15.747-5.578 11.287-3.167 23.243-3.118 34.782-1.458 4.192 0.625 8.285 1.77 12.339 3.008 4.142 1.26 8.383-0.367 12.202-1.923 5.068-2.345 10.087-4.794 14.958-7.528 2.579-1.457 5.452-0.993 8.344-0.876 3.2 0.13 6.395 0.375 9.578 0.734 5.374 0.604 10.712 1.535 15.974 2.783 5.098 1.21 10.2 2.891 15.367 3.764 3.266 0.526 6.383 1.666 9.583 2.482 5.638 1.249 11.194 2.838 16.832 4.115 5.534 1.688 11.309 2.307 16.876 3.874 4.049 1.189 8.432 1.32 12.158 3.49-3.875 2.854-8.576 4.147-13.156 5.38zm53.316 13.356c-2.841 1.286-5.752 2.404-8.854 3.164-6.616 1.621-14.194 2.285-20.88 0.668-3.093-0.748-6.229-0.749-9.277-1.766-0.502-0.168 4.801-8.712 5.262-9.429 2.043-3.179 2.944-6.839 4.979-9.927 0.237-0.359 4.579 0.544 5.14 0.633 1.523 0.242 2.899 0.717 4.364 1.079 3.729 0.919 7.717 1.209 11.503 1.906 3.603 0.663 7.194 1.385 10.772 2.168 1.735 0.379 3.467 0.773 5.195 1.18 1.651 0.389 4.014 0.54 5.502 1.345 1.667 0.902 0.174 1.5-1.119 2.392-1.351 0.932-2.791 1.727-4.252 2.469-2.79 1.413-5.528 2.847-8.335 4.118zm21.419-68.285c6.581 0.384 13.139-0.499 19.583-1.77 3.764-1.057 7.441-2.433 11.112-3.775 4.449-1.644 7.747-5.517 12.454-6.564-2.57 7.632-9.309 12.892-16.366 16.196-4.608 2.131-9.72 3.309-14.81 3.079-7.841-0.263-15.807-1.129-23.116-4.159-2.575-0.937-4.696-2.712-6.559-4.668 5.977-0.257 11.719 2.023 17.702 1.661zm-41.587-5.15c2.137-0.8 3.961 0.707 5.419 2.088 4.597 4.367 10.284 7.265 15.5 10.794 4.268 2.931 9.254 4.477 14.103 6.164 5.928 1.934 12.131 2.8 18.361 2.92 0.57 3.435 1.863 6.789 1.885 10.301-0.356 1.534-2.197 1.485-3.43 1.408-5.364-0.553-10.668-1.562-16.016-2.219-5.77-0.652-11.402-2.126-17.095-3.216-16.284-3.2-32.19-8.043-47.888-13.358-9.83-2.855-19.577-5.972-29.33-9.046-11.342-3.063-22.306-7.463-33.85-9.758-2.997-0.548-5.885-1.523-8.706-2.636 6.115 0.071 12.175 1.063 18.256 1.682 4.98 0.427 9.857 1.611 14.843 2.06 6.087 0.641 12.103 1.803 18.147 2.74 6.526 0.948 12.991 2.597 19.621 2.559 3.715-0.06 7.419 0.263 11.128 0.471 6.489 0.284 12.812-1.409 19.052-2.954zm35.221-181.11c-4.734-4.141-9.489-9.303-12.974-14.531-3.257-4.887-5.961-9.764-9.997-14.129-7.854-8.492-17.895-14.984-28.928-18.493-5.185-1.649-10.52-2.835-15.924-3.479-5.042-0.601-10.753 0.368-15.504-1.398 12.497-4.035 26.904-3.006 38.579 2.831 10.726 5.362 20.415 12.782 28.417 21.712 7.058 7.877 13.359 17.071 18.808 26.123 1.797 3.118 4.969 5.413 5.863 9.024-3.163-2.12-5.497-5.172-8.34-7.66zm65.415-16.393c-3.205 0.192-6.252-0.975-9.117-2.263-18.451-8.29-34.522-20.509-50.501-32.65-3.764-2.86-8.18-4.756-11.693-7.95 5.501 0.751 10.471 3.37 15.632 5.265 11.388 4.183 21.905 10.708 32.885 15.834 8.998 4.2 18.103 8.169 27.304 11.903 2.172 0.881 4.511 1.591 6.607 2.634 1.386 0.69 1.527 0.34 1.019 1.72-0.29 0.788-1.387 1.623-2.016 2.141-2.879 2.37-6.494 3.139-10.12 3.366zm44.184-101.35c-5.019 1.14-10.279 0.416-15.068-1.337-5.002-1.364-9.939-2.959-14.646-5.128-5.353-2.312-10.799-4.378-16.087-6.832-4.98-1.71-9.61-4.307-14.684-5.742-2.531-0.751-4.981-1.77-7.172-3.238-3.003-1.983-6.465-3.063-9.758-4.427-2.488-1.041-5.2-1.189-7.846-1.348-3.419-0.197-6.772-1.353-10.213-0.899-3.835 0.493-7.649 1.14-11.402 2.049-3.633 0.926-7.391 0.362-11.079 0.592-4.723 0.236-9.331 1.386-14.027 1.846 3.233-3.468 7.923-4.893 12.438-5.781 3.216-0.652 6.515-0.268 9.753-0.658 3.32-0.411 6.197-2.23 9.315-3.293 2.246-0.789 4.652-0.926 7.019-0.86 3.2 0.082 6.515 0.312 9.441 1.753 5.38 2.608 11.145 4.279 16.805 6.17 4.498 1.6 8.586 4.115 12.838 6.246 4.498 2.225 9.402 3.414 14.087 5.172 4.718 1.786 9.605 3.074 14.328 4.865 5.386 2.049 11.057 3.167 16.596 4.745 4.515 1.331 9.309 1.408 13.747 3.052-1.295 1.218-2.571 2.664-4.385 3.053zm44.003-22.514c5.463 0.844 10.997 0.444 16.498 0.559 7.468 0.23 14.92-1.046 22.388-0.482 1.227 0.225 2.29 0.959 3.381 1.556-5.534 1.901-11.364 2.745-17.155 3.348-9.556 0.23-19.117-0.044-28.64-0.784-3.649-0.471-7.227-1.364-10.739-2.422 4.185-2.777 9.511-2.383 14.267-1.775zm-17.456-7.939c-1.419-0.225-1.238-2.274-0.164-2.871 2.838-2.137 6.674-1.447 9.824-0.482-2.625 2.202-6.121 4.306-9.66 3.353zm4.876-9.134c-1.003 0.816-1.901 1.972-3.276 2.115-3.025 0.46-5.896-0.893-8.745-1.677-3.835-1.205-7.906-1.32-11.725-2.564-8.224-2.964-16.312-6.356-24.01-10.52-6.63-3.271-13.369-6.46-19.325-10.887 9.616 2.367 18.547 6.761 27.867 10.027 5.298 1.819 10.432 4.159 15.89 5.496 4.756 1.211 9.397 2.827 14.218 3.792 3.342 0.613 6.377 2.229 9.106 4.218zm-9.643-52.726c-4.109-1.753-7.413-4.833-11.205-7.117-8.038-5.342-17.495-7.769-26.289-11.523-5.298-2.225-10.805-4.06-16.531-4.756-5.578-0.652-11.161-1.578-16.514-3.309 2.575-0.871 5.26-1.83 8.027-1.397 5.112 0.674 10.284 1.26 15.21 2.866 5.424 1.748 10.86 3.518 16.043 5.917 4.876 2.257 10.032 3.803 15.051 5.704 3.397 1.244 6.416 3.309 9.139 5.665 2.652 2.351 5.989 4.345 7.069 7.95zm29.11-181.55c-1.364 2.811-2.69 5.961-5.638 7.457 0.23-4.087 2.986-7.265 4.679-10.816 1.77-3.578 3.474-7.211 5.863-10.432-1.287 4.706-2.942 9.32-4.904 13.791zm73.575 10.881c-7.359 0.526-14.81-0.866-21.522-3.896-3.742-1.748-7.665-3.09-11.336-4.975 5.517-0.515 10.536 2.082 15.731 3.446 2.783 0.784 5.567 1.666 8.471 1.907 5.753 0.422 11.539-0.016 17.298 0.444-2.374 2.126-5.519 2.997-8.642 3.074zm6.711-12.01c-8.005-0.285-16.421 0.312-23.845-3.293 3.381-1.682 7.211-1.337 10.854-1.134 5.282 0.477 10.531 1.271 15.818 1.753 3.677 0.384 7.419 0.197 11.046 1.047-4.317 2.131-9.221 1.572-13.873 1.627z"/>
</svg>
